<?xml version="1.0" encoding="UTF-8"?>
<svg width="1280px" height="510px" viewBox="0 0 1280 510" version="1.1" xmlns="http://www.w3.org/2000/svg" xmlns:xlink="http://www.w3.org/1999/xlink">
    <!-- Generator: Sketch 41.2 (35397) - http://www.bohemiancoding.com/sketch -->
    <title>Group 2</title>
    <desc>Created with Sketch.</desc>
    <defs></defs>
    <g id="Page-1" stroke="none" stroke-width="1" fill="none" fill-rule="evenodd">
        <g id="Desktop-Landscape" transform="translate(0.000000, -174.000000)">
            <g id="Group-4" transform="translate(-42.000000, 174.000000)">
                <g id="Group-2">
                    <g id="Group" fill="#2A353D">
                        <path d="M8.20310157,129.566075 C8.20310157,129.566075 22.2579955,129.898212 32.9067465,129.566075 C40.6640207,129.898212 50.552243,128.558566 100.014163,149.965765 C113.775376,152.224437 122.411435,152.224437 122.411435,152.224437 C122.411435,152.224437 133.734036,151.745421 145.428742,149.965765 C157.123448,148.186109 184.78788,136.698385 197.614848,135.020285 C210.441816,133.342185 222.424842,138.532912 230.318018,138.532912 C238.211193,138.532912 252.772387,135.778448 260.018012,135.020285 C267.263638,134.262121 272.111049,134.108687 275.676908,134.108687 C294.747431,130.104383 296.855537,123.674659 362.324334,109.446817 C370.323703,105.315315 393.029722,95.9234301 408.416602,90.1164233 C427.210504,78.7038111 467.904198,53.7142361 477.11276,51.155751 C486.321321,48.597266 493.066265,52.0274897 497.853116,51.155751 C500.57472,50.6601168 513.062517,44.2729309 516.906691,41.4851251 C520.750866,38.6973192 521.347707,34.4986246 526.791908,33.5033396 C529.86996,32.9406237 536.018361,37.385588 542.916149,38.4791848 C549.813937,39.5727817 554.028548,36.9765657 558.83183,36.2093533 C562.747813,35.5838665 576.241055,29.477039 592.430714,23.7019761 C595.693198,22.5382052 599.724729,21.4591557 605.055025,18.669703 C610.385322,15.8802502 624.43341,7.43617364 633.802321,4.20890904 C640.544999,1.88629041 646.347147,2.40984396 650.762512,2.00918722 C655.177877,1.60853047 656.885551,-1.01672872 659.671029,0.432218765 C660.882419,1.06235811 668.136579,17.0996145 672.601204,25.0699107 C682.77498,33.4065795 705.259965,37.1489462 708.29314,39.3170357 C709.591407,40.2450266 709.494296,45.3016018 712.237372,51.155751 C714.980448,57.0099002 722.851557,68.1669442 727.770616,70.2609486 C733.843153,75.8687164 742.052929,83.3170315 758.124104,86.4843911 C760.093215,86.87247 762.010209,89.2145087 764.575069,91.4091566 C767.139929,93.6038045 772.734894,97.2399704 775.344361,99.0832622 C778.651378,99.3029822 785.561099,99.6568428 795.858712,98.3640795 C806.156325,97.0713161 808.672494,95.4498265 812.984185,94.3579551 C817.295876,93.2660838 823.210237,88.4859998 827.527149,88.4859998 C831.844062,88.4859998 840.547206,100.492544 846.726551,104.043534 C848.634924,104.349275 860.291261,106.080886 871.619353,105.06221 C882.947446,104.043534 887.587608,102.391182 897.7302,102.852556 C921.950529,103.954308 958.360337,109.446817 958.360337,109.446817 C958.360337,109.446817 965.627313,119.777453 969.26942,121.739434 C971.301404,120.679912 975.560553,116.03856 982.153666,113.725229 C983.174785,113.366948 985.111597,114.371708 987.395075,113.725229 C989.838237,109.446817 998.856824,109.028466 1005.10198,107.447668 C1014.34703,105.107527 1023.95574,102.852556 1023.95574,102.852556 C1023.95574,102.852556 1029.70265,105.06221 1032.89348,108.577458 C1033.21072,108.926961 1032.80915,105.023188 1035.48447,105.06221 C1035.75544,105.066163 1038.04368,105.903584 1041.6143,107.447668 C1045.18493,108.991751 1062.37127,117.645305 1066.01621,118.728473 C1069.66115,119.811642 1077.60178,114.824715 1083.81295,121.739434 C1085.7466,122.127561 1086.86037,119.863168 1088.2777,118.728473 C1089.11413,118.058835 1090.74355,118.636828 1092.6993,117.788277 C1094.65504,116.939726 1094.61182,114.910605 1097.25529,114.704276 C1099.89876,114.497948 1102.53702,116.875276 1104.39662,116.875276 C1106.25623,116.875276 1114.65924,114.643247 1118.04268,113.725229 C1119.53923,113.319174 1130.63434,105.853321 1142.0032,102.852556 C1153.37206,99.8517909 1159.32031,98.3640795 1171.89053,98.3640795 C1184.46074,98.3640795 1208.19633,107.447668 1225.418,110.669978 C1229.97361,110.121436 1237.65573,106.62185 1244.72209,102.852556 C1251.78844,99.0832622 1263.36414,100.371518 1275.51413,95.9234301 C1287.66411,91.4753421 1284.57555,86.5576698 1298.78871,83.0842621 C1307.81117,80.8793561 1328.82169,89.8507582 1343.23228,94.3579551 C1357.64287,98.8651521 1357.8741,95.9234301 1357.8741,95.9234301 L1356.95905,292.892182 L7,294.793687 L41.5428584,381.284422" id="Path-6"></path>
                        <path d="M36.7161975,334.554032 L0.172978926,509.896476 C0.172978926,509.896476 41.1784998,487.570252 51.8272508,487.238115 C59.584525,487.570252 69.4727473,486.230605 118.934667,507.637805 C132.695881,509.896476 141.331939,509.896476 141.331939,509.896476 C141.331939,509.896476 152.654541,509.417461 164.349246,507.637805 C176.043952,505.858149 203.708384,494.370424 216.535352,492.692324 C229.362321,491.014224 241.345347,496.204952 249.238522,496.204952 C257.131697,496.204952 271.692892,493.450488 278.938517,492.692324 C286.184142,491.934161 291.031553,491.780727 294.597412,491.780727 C313.667936,487.776423 315.776041,481.346699 381.244839,467.118857 C389.244208,462.987355 411.950226,453.59547 427.337106,447.788463 C446.131009,436.375851 486.824703,411.386276 496.033264,408.827791 C505.241825,406.269306 511.986769,409.699529 516.773621,408.827791 C519.495225,408.332156 531.983021,401.944971 535.827196,399.157165 C539.67137,396.369359 554.938865,395.057628 561.836653,396.151224 C568.734441,397.244821 572.949052,394.648605 577.752335,393.881393 C581.668317,393.255906 595.16156,387.149079 611.351218,381.374016 C614.613703,380.210245 687.057084,374.771654 691.521708,382.74195 C701.695485,391.078619 728.4148,402.973641 731.157876,408.827791 C733.900952,414.68194 741.772061,425.838984 746.691121,427.932988 C752.763657,433.540756 760.973433,440.989071 777.044608,444.156431 C779.013719,444.54451 780.930713,446.886548 783.495573,449.081196 C786.060433,451.275844 791.655398,454.91201 794.264865,456.755302 C797.571883,456.975022 804.481603,457.328882 814.779216,456.036119 C825.07683,454.743356 827.592998,453.121866 831.904689,452.029995 C836.21638,450.938123 842.130742,446.158039 846.447654,446.158039 C850.764566,446.158039 859.46771,458.164584 865.647055,461.715574 C867.555429,462.021315 879.211765,463.752926 890.539858,462.73425 C901.86795,461.715574 906.508112,460.063222 916.650704,460.524596 C940.871034,461.626348 977.280842,467.118857 977.280842,467.118857 C977.280842,467.118857 984.547817,477.449493 988.189924,479.411473 C990.221908,478.351951 994.481057,473.7106 1001.07417,471.397268 C1002.09529,471.038987 1004.0321,472.043747 1006.31558,471.397268 C1008.75874,467.118857 1017.77733,466.700505 1024.02249,465.119708 C1033.26754,462.779567 1042.87624,460.524596 1042.87624,460.524596 C1042.87624,460.524596 1048.62316,462.73425 1051.81398,466.249498 C1052.13123,466.599001 1051.72966,462.695228 1054.40498,462.73425 C1054.67595,462.738202 1056.96418,463.575624 1060.53481,465.119708 C1064.10543,466.663791 1081.29178,475.317344 1084.93671,476.400513 C1088.58165,477.483682 1096.52228,472.496754 1102.73346,479.411473 C1104.66711,479.799601 1105.78088,477.535207 1107.1982,476.400513 C1108.03463,475.730875 1109.66405,476.308867 1111.6198,475.460316 C1113.57555,474.611765 1113.53232,472.582645 1116.17579,472.376316 C1118.81927,472.169987 1121.45752,474.547316 1123.31713,474.547316 C1125.17673,474.547316 1133.57975,472.315286 1136.96318,471.397268 C1138.45973,470.991214 1149.55485,463.525361 1160.92371,460.524596 C1172.29256,457.52383 1178.24082,456.036119 1190.81103,456.036119 C1203.38124,456.036119 1227.11683,465.119708 1244.3385,468.342018 C1248.89412,467.793476 1256.57624,464.293889 1263.64259,460.524596 C1270.70894,456.755302 1282.28464,458.043558 1294.43463,453.59547 C1306.58462,449.147382 1303.49605,444.229709 1317.70921,440.756302 C1326.73167,438.551396 1347.7422,447.522798 1362.15278,452.029995 C1376.56337,456.537192 1340.08234,249.387182 1340.08234,249.387182 L59.7039505,249.387182 L36.7161975,264.330929" id="Path-6" transform="translate(682.847460, 379.641829) scale(-1, 1) translate(-682.847460, -379.641829) "></path>
                    </g>
                    <text id="“It-originally-occur" font-family="LucidaGrande, Lucida Grande" font-size="25" font-weight="normal" letter-spacing="0.265789479" fill="#ECE8E5">
                        <tspan x="264.782377" y="191">“</tspan>
                        <tspan x="274.98469" y="191" font-family="SwistblnkMonthoers, Swistblnk Monthoers">It originally occurred throughout forest and grass ecosystems</tspan>
                        <tspan x="857.972848" y="191" letter-spacing="0.332236856">.</tspan>
                        <tspan x="866.215241" y="191" font-family="SwistblnkMonthoers, Swistblnk Monthoers" letter-spacing="0.332236856"> Today it is restricted to </tspan>
                        <tspan x="253.083348" y="221" font-family="SwistblnkMonthoers, Swistblnk Monthoers" letter-spacing="0.332236856">alpine tussock grasslands on the mainland and feeds primarily on juices from the bases of </tspan>
                        <tspan x="259.548192" y="246" font-family="SwistblnkMonthoers, Swistblnk Monthoers" letter-spacing="0.332236856">snow tussock and a species of fern rhizome</tspan>
                        <tspan x="672.27714" y="246" letter-spacing="0.332236856">.</tspan>
                        <tspan x="680.519533" y="246" font-family="SwistblnkMonthoers, Swistblnk Monthoers" letter-spacing="0.332236856"> It eats introduced grasses on the islands</tspan>
                        <tspan x="1072.89848" y="246" letter-spacing="0.332236856">.</tspan>
                        <tspan x="1081.14087" y="246" font-family="SwistblnkMonthoers, Swistblnk Monthoers" letter-spacing="0.332236856"> It </tspan>
                        <tspan x="269.298007" y="276" font-family="SwistblnkMonthoers, Swistblnk Monthoers" letter-spacing="0.332236856">usually lays two eggs and chicks can begin breeding at the end of their first year</tspan>
                        <tspan x="1048.24143" y="276" letter-spacing="0.332236856">,</tspan>
                        <tspan x="1056.48382" y="276" font-family="SwistblnkMonthoers, Swistblnk Monthoers" letter-spacing="0.332236856"> but </tspan>
                        <tspan x="344.362152" y="306" font-family="SwistblnkMonthoers, Swistblnk Monthoers" letter-spacing="0.332236856">usually start in their second</tspan>
                        <tspan x="617.847021" y="306" letter-spacing="0.332236856">.</tspan>
                        <tspan x="626.089414" y="306" font-family="SwistblnkMonthoers, Swistblnk Monthoers" letter-spacing="0.332236856"> It is long</tspan>
                        <tspan x="725.694019" y="306" letter-spacing="0.332236856">-</tspan>
                        <tspan x="740.491588" y="306" font-family="SwistblnkMonthoers, Swistblnk Monthoers" letter-spacing="0.332236856">lived</tspan>
                        <tspan x="784.852772" y="306" letter-spacing="0.332236856">,</tspan>
                        <tspan x="793.095165" y="306" font-family="SwistblnkMonthoers, Swistblnk Monthoers" letter-spacing="0.332236856"> probably 14</tspan>
                        <tspan x="909.007008" y="306" letter-spacing="0.332236856">-</tspan>
                        <tspan x="923.804577" y="306" font-family="SwistblnkMonthoers, Swistblnk Monthoers" letter-spacing="0.332236856">20 years</tspan>
                        <tspan x="1002.18747" y="306" letter-spacing="0.332236856">.”</tspan>
                    </text>
                    <text id="—Heather-and-Roberts" font-family="LucidaGrande, Lucida Grande" font-size="25" font-weight="normal" letter-spacing="0.265789479" fill="#ECE8E5">
                        <tspan x="850" y="342">—</tspan>
                        <tspan x="875.265789" y="342" font-family="SwistblnkMonthoers, Swistblnk Monthoers">Heather and Robertson</tspan>
                    </text>
                </g>
            </g>
        </g>
    </g>
</svg>