<?xml version="1.0" encoding="UTF-8"?>
<svg width="525px" height="99px" viewBox="0 0 525 99" version="1.1" xmlns="http://www.w3.org/2000/svg" xmlns:xlink="http://www.w3.org/1999/xlink">
    <!-- Generator: Sketch 41.2 (35397) - http://www.bohemiancoding.com/sketch -->
    <title>Group 5</title>
    <desc>Created with Sketch.</desc>
    <defs></defs>
    <g id="Page-1" stroke="none" stroke-width="1" fill="none" fill-rule="evenodd">
        <g id="Group-5" transform="translate(262.000000, 49.500000) scale(-1, 1) translate(-262.000000, -49.500000) translate(-1.000000, 0.000000)" fill="#2A353D">
            <path d="M507.427389,21.6887168 C507.04961,22.0844247 506.468926,22.0578991 506.119214,21.61532 L497.854945,11.1564495 C497.510239,10.7202056 496.791991,10.2777084 496.241901,10.1630612 C496.241901,10.1630612 489.461565,8.83595605 485.999651,7.32492702 C482.537738,5.81389798 475.364753,0.92004521 475.364753,0.92004521 C475.140502,0.768369844 475.018782,0.86068841 475.095047,1.12967124 C475.095047,1.12967124 475.887362,4.02208254 476.447518,5.16752322 C477.007674,6.3129639 479.097389,9.28374623 479.097389,9.28374623 C479.256225,9.51172151 479.170443,9.64315848 478.894782,9.57393457 C478.894782,9.57393457 477.773384,9.29844916 477.441833,9.18398805 C477.110283,9.06952694 474.758655,8.12552332 474.758655,8.12552332 C474.498012,8.02110583 474.434924,8.10412495 474.62491,8.31812103 C474.62491,8.31812103 477.131042,11.1672757 478.400058,12.3442413 C479.669075,13.521207 481.61387,14.8300098 481.61387,14.8300098 C481.840698,14.9863212 481.794445,15.1494127 481.53521,15.1903882 L478.650021,15.6464325 C478.37975,15.6891526 478.329136,15.8640297 478.553076,16.0470189 C478.553076,16.0470189 481.192019,18.289948 483.171382,19.1089393 C485.150746,19.9279305 486.626698,20.4351739 486.626698,20.4351739 C486.8824,20.525596 486.876451,20.6695329 486.616339,20.7556964 L484.845561,21.342275 C484.584139,21.4288726 484.571323,21.6214868 484.804874,21.7643597 C484.804874,21.7643597 485.962772,22.4809022 486.352098,22.6740361 C486.741424,22.8671699 487.730596,23.2239666 487.730596,23.2239666 C487.986196,23.3182369 488.192684,23.6155897 488.207936,23.8936653 C488.207936,23.8936653 488.097365,25.2481277 489.194774,26.134071 C490.292184,27.0200143 491.943464,26.6845185 492.33155,27.227556 C492.719637,27.7705934 493.158614,29.9796315 493.158614,29.9796315 C493.214615,30.2437732 493.070424,30.5676741 492.826202,30.7078983 C492.826202,30.7078983 490.128083,32.2846654 489.194774,32.5812393 C488.261466,32.8778131 481.336448,34.4272409 481.336448,34.4272409 C480.258687,34.6700673 480.230912,35.1522295 481.285368,35.4987301 C481.285368,35.4987301 487.127643,37.5329518 489.194774,37.5329518 C490.771333,37.5329518 496.044928,35.7331491 496.044928,35.7331491 C496.297726,35.6485098 496.724759,35.6028391 496.990432,35.6281186 C496.990432,35.6281186 505.328847,36.5646327 510.089202,34.8669171 C514.849557,33.1692015 520.115322,26.7455084 520.115322,26.7455084 L524.817848,25.5667822 C525.081892,25.5005974 525.098543,25.3618408 524.828873,25.2448098 C524.828873,25.2448098 522.046946,24.0542971 520.857794,23.3946581 C519.668642,22.7350191 519.272915,22.6014181 519.272915,22.6014181 C519.016056,22.493055 518.960213,22.2304879 519.137803,22.0218545 C519.137803,22.0218545 522.303024,18.4925794 523.428284,15.1130367 C524.553544,11.7334939 523.850879,3.36697327 523.850879,3.36697327 C523.830656,3.09894333 523.624706,2.99807709 523.384762,3.14754382 C523.384762,3.14754382 518.900317,5.85878343 517.08365,7.93645873 C516.073345,9.09191775 513.552157,13.6765877 511.285991,16.9107234 C509.019824,20.1448591 507.427389,21.6887168 507.427389,21.6887168 Z" id="Path-7"></path>
            <path d="M134.597068,67.7256877 C134.207863,68.1090508 133.6032,68.0807303 133.242044,67.6571885 L128.00953,61.5208106 C127.650376,61.0996165 126.928458,60.6768518 126.385233,60.5704713 C126.385233,60.5704713 122.023396,59.7840617 119.64579,58.8224101 C117.268184,57.8607585 112.483504,54.834414 112.483504,54.834414 C112.25126,54.6891679 112.12934,54.7907636 112.208313,55.0462411 C112.208313,55.0462411 112.700777,56.7204084 113.085486,57.4493917 C113.470195,58.1783749 114.80348,59.9324964 114.80348,59.9324964 C114.96885,60.1529985 114.884435,60.281282 114.619818,60.2193434 C114.619818,60.2193434 113.996077,60.0784023 113.768371,60.0055567 C113.540666,59.9327112 112.078381,59.3885565 112.078381,59.3885565 C111.814992,59.2908273 111.759182,59.3767488 111.948473,59.57383 C111.948473,59.57383 113.554923,61.2677639 114.42647,62.0168103 C115.298017,62.7658567 116.495501,63.5090776 116.495501,63.5090776 C116.7276,63.6581138 116.689499,63.8120712 116.429022,63.8502238 L114.748779,64.0963321 C114.479965,64.1357057 114.432315,64.2984223 114.66087,64.4698069 C114.66087,64.4698069 116.343959,65.8007866 117.703365,66.3220104 C119.062771,66.8432341 119.920343,67.1140083 119.920343,67.1140083 C120.182166,67.2002994 120.180323,67.33597 119.923461,67.4148168 L118.999037,67.6985789 C118.738937,67.7784198 118.723372,67.954289 118.967378,68.0921716 C118.967378,68.0921716 119.620461,68.4680005 119.887846,68.5909151 C120.155232,68.7138296 120.672976,68.8847379 120.672976,68.8847379 C120.937773,68.9757526 121.15507,69.2655702 121.183713,69.5445558 C121.183713,69.5445558 121.086478,70.2291227 121.840167,70.7929562 C122.593856,71.3567896 123.727938,71.1432728 123.994471,71.4888736 C124.261005,71.8344744 124.519892,73.0633616 124.519892,73.0633616 C124.581879,73.3292173 124.429402,73.6532701 124.192303,73.7788031 C124.192303,73.7788031 122.481153,74.7073275 121.840167,74.8960735 C121.199181,75.0848195 117.06561,75.9402334 117.06561,75.9402334 C115.98164,76.1669434 115.955963,76.6158411 117.0201,76.9346438 C117.0201,76.9346438 120.420483,78.0474504 121.840167,78.0474504 C122.922931,78.0474504 126.397449,76.9470676 126.397449,76.9470676 C126.652437,76.8683206 127.079638,76.8252177 127.351399,76.8481743 C127.351399,76.8481743 132.920877,77.4311912 136.190238,76.3507282 C139.4596,75.2702653 143.076072,71.1820881 143.076072,71.1820881 L146.139343,70.4705658 C146.412571,70.4071016 146.42276,70.271093 146.162789,70.1661557 C146.162789,70.1661557 144.402691,69.469343 143.585994,69.0495345 C142.769297,68.629726 142.64872,68.608154 142.64872,68.608154 C142.388804,68.5041444 142.330992,68.2564575 142.521824,68.0459018 C142.521824,68.0459018 144.578562,65.9297456 145.351379,63.7789315 C146.124195,61.6281174 145.655269,56.4874074 145.655269,56.4874074 C145.633838,56.2152485 145.421581,56.1059086 145.189582,56.2407891 C145.189582,56.2407891 142.241619,57.8893246 140.993951,59.2116021 C140.300085,59.9469612 138.568559,62.8647443 137.01218,64.9230182 C135.455801,66.9812921 134.597068,67.7256877 134.597068,67.7256877 Z" id="Path-7"></path>
            <path d="M243.863083,5.87592685 C243.602059,5.78596347 243.619253,5.73600482 243.878688,5.75666973 C243.878688,5.75666973 246.979016,6.1524801 251.584007,5.17338004 C254.313954,4.27957914 254.01857,4.17353053 256.568266,2.99147951 C259.117962,1.80942849 258.720882,1.99787894 261.125656,1.66077313 C269.042796,1.29189794 270.865081,0.987417002 270.865081,0.987417002 C270.974869,0.971975722 270.996625,1.02706708 270.918519,1.10559606 L269.042796,2.99147951 C269.042796,2.99147951 275.24774,7.24766249 276.57702,10.6580788 C278.73434,14.9929035 277.50768,24.0565676 277.50768,24.0565676 C277.474507,24.331831 277.343492,24.3553513 277.213281,24.1074211 C277.213281,24.1074211 273.626913,17.1802344 271.555744,14.6374155 C268.831878,9.34475848 263.483189,7.07158934 263.483189,7.07158934 C263.235406,6.95458056 262.817213,6.8597262 262.526742,6.8597262 L257.82026,6.8597262 C257.539812,6.8597262 257.227953,7.06536416 257.115282,7.32451858 C257.115282,7.32451858 255.70781,10.993188 252.670405,13.6706555 C249.633,16.3481229 245.516701,18.6886326 245.516701,18.6886326 C245.283915,18.824558 245.141609,18.725514 245.205224,18.4463132 C245.205224,18.4463132 246.01025,14.7026243 246.979016,12.5217203 C247.947783,10.3408164 249.962222,7.97803229 249.962222,7.97803229 L243.863083,5.87592685 Z" id="Path-8"></path>
            <path d="M341.114933,0.934662946 C340.880245,0.802354425 340.832213,0.878846369 340.994716,1.08259377 C340.994716,1.08259377 343.767898,4.8026759 348.870962,8.51553039 C356.91786,11.8915718 360.807975,15.3204389 361.286736,16.4604076 C362.258322,18.773832 361.382774,20.8266854 359.949318,21.681084 C358.515862,22.5354826 351.491031,22.2990501 351.491031,22.2990501 C351.491031,22.2990501 354.161861,24.1342565 356.91786,24.7055124 C359.673859,25.2767683 361.487518,24.3425625 362.258322,24.7055124 C363.976132,25.5143819 365.960788,27.3697074 372.115482,26.5566594 C378.270176,25.7436113 379.934485,22.5391968 379.934485,22.5391968 C380.082987,22.3141077 380.430889,22.1316369 380.702766,22.1316369 L383.52394,22.1316369 C383.799748,22.1316369 383.847427,22.0065114 383.612617,21.8375814 C383.612617,21.8375814 382.159223,20.8180055 381.571167,20.2268323 C380.98311,19.6356591 381.067027,19.4921022 381.067027,19.4921022 C380.992514,19.233593 381.142562,18.9837127 381.416892,18.9332073 C381.416892,18.9332073 383.461565,18.5217061 385.819153,18.3443271 C388.176742,18.166948 391.6527,18.2289765 393.667588,17.8430033 C397.561804,17.0970248 399.130531,15.591971 399.130531,15.591971 C399.346038,15.4191074 399.301293,15.2905273 399.017983,15.3040078 C399.017983,15.3040078 394.637287,15.560661 389.715806,15.2789737 C384.794324,14.9972864 383.525854,13.8791404 380.203372,14.6486272 C376.880891,15.4181141 375.088278,18.1535012 373.228889,17.8430033 C371.3695,17.5325054 368.966738,13.1352024 364.443668,10.6965568 C359.920597,8.25791131 357.609123,8.80849817 352.772559,6.8138271 C347.935995,4.81915602 341.114933,0.934662946 341.114933,0.934662946 Z" id="Path-9"></path>
            <path d="M0.226425945,84.0710648 C-0.0144199464,83.9358231 -0.0744169332,83.9990954 0.101243637,84.2142681 C0.101243637,84.2142681 1.4971598,86.1040078 4.32701695,88.1629368 C8.78934944,90.0350893 10.9465765,91.9365358 11.212069,92.5686948 C11.7508529,93.8515829 11.2653259,94.9899737 10.4704162,95.4637726 C9.67550656,95.9375714 5.7799519,95.8064599 5.7799519,95.8064599 C5.7799519,95.8064599 7.26103582,96.8241567 8.78934944,97.1409413 C10.3176631,97.457726 11.3234111,96.9396708 11.7508529,97.1409413 C12.703449,97.5894924 13.8040211,98.618346 17.2170498,98.1674777 C20.6300786,97.7166094 21.4194844,96.1098491 21.4194844,96.1098491 C21.5755767,95.8910192 21.9288123,95.7136225 22.193425,95.7136225 L23.329128,95.7136225 C23.6004713,95.7136225 23.6342657,95.58059 23.4123675,95.4190975 C23.4123675,95.4190975 22.7867134,94.9851604 22.4606121,94.6573308 C22.1345107,94.3295012 22.28654,94.4442332 22.28654,94.4442332 C22.1869568,94.1935482 22.3180982,93.950329 22.5994265,93.9003676 C22.5994265,93.9003676 23.5089149,93.7117688 24.8162939,93.6134049 C26.1236729,93.515041 28.0512332,93.5494384 29.1685706,93.3354005 C31.3280718,92.921725 32.0121608,92.2177247 32.0121608,92.2177247 C32.2343016,92.049729 32.1880273,91.9250058 31.9204317,91.9366593 C31.9204317,91.9366593 29.7063082,92.0697487 26.9771462,91.9135416 C24.2479842,91.7573345 23.5445658,91.137277 21.7021145,91.5639888 C19.8596631,91.9907006 18.8655864,93.5075842 17.8344795,93.3354005 C16.8033726,93.1632167 15.470943,90.7247331 12.9627163,89.3724048 C10.4544897,88.0200765 9.17268268,88.3253994 6.49061114,87.219273 C3.80853961,86.1131467 0.226425945,84.0710648 0.226425945,84.0710648 Z" id="Path-9"></path>
            <path d="M233.540129,49.6396894 C233.304482,49.5067489 233.247907,49.5732378 233.420875,49.7911675 C233.420875,49.7911675 236.651663,54.1208519 242.517897,58.3889687 C251.768219,62.2699015 256.240106,66.2115602 256.790466,67.5220127 C257.907354,70.1814128 256.900866,72.5412732 255.253035,73.5234482 C253.605204,74.5056233 245.529801,74.2338319 245.529801,74.2338319 C245.529801,74.2338319 248.600057,76.3434959 251.768219,77.0001839 C254.936381,77.6568719 257.021276,76.5829543 257.907354,77.0001839 C259.882065,77.9300208 262.163528,80.0628128 269.238665,79.1281723 C276.313802,78.1935318 278.273412,74.4460616 278.273412,74.4460616 C278.418496,74.2225632 278.75991,74.0413819 279.039842,74.0413819 L282.423621,74.0413819 C282.701824,74.0413819 282.740728,73.9086901 282.520492,73.7505151 C282.520492,73.7505151 280.784461,72.5312952 280.10846,71.8517113 C279.432459,71.1721274 279.497191,70.9302146 279.497191,70.9302146 C279.429061,70.6755083 279.594916,70.426599 279.870511,70.3756159 C279.870511,70.3756159 282.28157,69.8915811 284.991739,69.6876748 C287.701908,69.4837686 291.6977,69.5550735 294.013918,69.1113774 C298.490518,68.2538369 300.35921,66.4749335 300.35921,66.4749335 C300.57085,66.3031511 300.5201,66.1756712 300.252289,66.1886341 C300.252289,66.1886341 295.128636,66.4877079 289.471141,66.1638939 C283.813645,65.8400798 282.355473,64.5547136 278.53611,65.4392782 C274.716747,66.3238428 272.656047,69.4683107 270.518584,69.1113774 C268.381121,68.7544441 265.619022,63.6995187 260.419521,60.8961705 C255.22002,58.0928223 252.562861,58.7257502 247.002983,56.4327734 C241.443105,54.1397966 233.540129,49.6396894 233.540129,49.6396894 Z" id="Path-9"></path>
        </g>
    </g>
</svg>