<?xml version="1.0" encoding="UTF-8"?>
<svg width="1262px" height="39px" viewBox="0 0 1262 39" version="1.1" xmlns="http://www.w3.org/2000/svg" xmlns:xlink="http://www.w3.org/1999/xlink" style="background: #F2F0EA;">
    <!-- Generator: Sketch 41.2 (35397) - http://www.bohemiancoding.com/sketch -->
    <title>Desktop Landscape</title>
    <desc>Created with Sketch.</desc>
    <defs></defs>
    <g id="Page-1" stroke="none" stroke-width="1" fill="none" fill-rule="evenodd">
        <g id="Desktop-Landscape" fill="#000000">
            <g id="Group-3" transform="translate(-649.000000, -2.000000)">
                <path d="M1383.26717,30.3058341 C1383.65318,30.3058341 1384.16786,30.8215042 1384.16786,31.3371743 C1384.16786,31.8528444 1383.91052,32.2395969 1383.39584,32.3685145 C1382.88117,32.497432 1382.36649,31.9817619 1382.36649,31.4660918 C1382.49516,30.9504217 1382.88117,30.4347516 1383.26717,30.3058341 Z" id="Shape"></path>
                <path d="M1280.45078,16.9428033 C1280.83678,16.9428033 1281.35146,17.4584734 1281.35146,17.9741435 C1281.35146,18.4898136 1281.09412,18.8765662 1280.57945,19.0054837 C1280.06477,19.1344012 1279.55009,18.6187311 1279.55009,18.103061 C1279.67876,17.5873909 1280.06477,17.0717208 1280.45078,16.9428033 Z" id="Shape"></path>
                <path d="M1367.74098,31.3337595 C1368.25566,31.3337595 1368.64167,31.7205121 1368.513,32.2361822 C1368.513,32.6229347 1368.12699,32.8807698 1367.74098,33.0096873 C1367.22631,33.0096873 1366.96897,32.7518523 1366.96897,32.3650997 C1366.8403,31.8494296 1367.22631,31.3337595 1367.74098,31.3337595 Z" id="Shape"></path>
                <path d="M1383.52451,20.8177671 C1382.7525,20.8177671 1382.36649,20.4310145 1382.36649,19.7864269 C1382.36649,19.3996743 1382.62383,19.0129217 1383.00984,19.0129217 C1383.52451,18.8840042 1384.16786,19.6575094 1384.03919,20.1731795 C1384.16786,20.4310145 1383.78185,20.6888496 1383.52451,20.8177671 Z" id="Shape"></path>
                <path d="M1420.17735,0.495996232 C1420.69203,0.495996232 1421.07803,0.882748805 1420.94936,1.3984189 C1420.94936,1.78517147 1420.56336,2.04300652 1420.17735,2.17192405 C1419.66267,2.17192405 1419.40533,1.914089 1419.40533,1.52733643 C1419.27666,1.01166633 1419.66267,0.495996232 1420.17735,0.495996232 Z" id="Shape"></path>
            </g>
            <g id="Group-3" transform="translate(-336.000000, 9.000000)">
                <path d="M936.247408,21.147231 C936.508673,21.147231 936.857027,21.4961421 936.857027,21.8450532 C936.857027,22.1939643 936.68285,22.4556477 936.334497,22.5428754 C935.986143,22.6301032 935.63779,22.2811921 935.63779,21.932281 C935.724878,21.5833699 935.986143,21.2344588 936.247408,21.147231 Z" id="Shape"></path>
                <path d="M866.65739,12.1055784 C866.918656,12.1055784 867.267009,12.4544895 867.267009,12.8034006 C867.267009,13.1523117 867.092832,13.413995 866.744479,13.5012228 C866.396125,13.5884506 866.047772,13.2395395 866.047772,12.8906284 C866.13486,12.5417172 866.396125,12.1928061 866.65739,12.1055784 Z" id="Shape"></path>
                <path d="M925.738696,21.8427427 C926.08705,21.8427427 926.348315,22.1044261 926.261226,22.4533372 C926.261226,22.7150205 925.999961,22.8894761 925.738696,22.9767039 C925.390343,22.9767039 925.216166,22.8022483 925.216166,22.540565 C925.129078,22.1916539 925.390343,21.8427427 925.738696,21.8427427 Z" id="Shape"></path>
                <path d="M936.421585,14.7274444 C935.899055,14.7274444 935.63779,14.4657611 935.63779,14.0296222 C935.63779,13.7679388 935.811966,13.5062555 936.073232,13.5062555 C936.421585,13.4190277 936.857027,13.9423944 936.769939,14.2913055 C936.857027,14.4657611 936.595762,14.6402166 936.421585,14.7274444 Z" id="Shape"></path>
                <path d="M961.229605,0.977390485 C961.577959,0.977390485 961.839224,1.23907382 961.752136,1.58798493 C961.752136,1.84966826 961.49087,2.02412382 961.229605,2.11135159 C960.881252,2.11135159 960.707075,1.93689604 960.707075,1.67521271 C960.619987,1.3263016 960.881252,0.977390485 961.229605,0.977390485 Z" id="Shape"></path>
            </g>
        </g>
    </g>
</svg>