<?xml version="1.0" encoding="UTF-8"?>
<svg width="595px" height="63px" viewBox="0 0 595 63" version="1.1" xmlns="http://www.w3.org/2000/svg" xmlns:xlink="http://www.w3.org/1999/xlink">
    <!-- Generator: Sketch 41.2 (35397) - http://www.bohemiancoding.com/sketch -->
    <title>A4</title>
    <desc>Created with Sketch.</desc>
    <defs></defs>
    <g id="Page-1" stroke="none" stroke-width="1" fill="none" fill-rule="evenodd">
        <g id="A4" stroke="#979797">
            <g id="Group-2" transform="translate(297.500000, 26.500000) rotate(90.000000) translate(-297.500000, -26.500000) translate(268.000000, -86.000000)">
                <g id="Group" transform="translate(0.000000, 0.000000)">
                    <path d="M19.3188839,2.73867549 C19.3188839,2.73867549 18.4999674,3.93386862 19.3188839,8.65186636 C20.1378004,13.3698641 24.6733112,31.4441575 26.145566,38.7947822 C29.2683576,47.079758 31.618627,70.9099093 33.8084875,94.8321022 C35.6939261,103.678946 35.8365337,121.088952 35.8365337,139.351359 C35.0076789,164.880382 26.7606194,202.239811 23.9612715,212.075063 C21.1619237,221.910316 21.2299471,223.844848 21.2299471,223.844848 C21.179863,224.383302 21.5107005,224.568697 21.9640739,224.262198 L21.7302589,224.420266 C22.6461566,223.801082 23.4692267,222.399211 23.6060851,221.303207 C23.6060851,221.303207 23.5525745,220.416828 24.5421332,216.654659 C25.531692,212.89249 31.9476617,190.214676 33.3011778,180.257674 C35.2175045,166.160412 35.8483304,157.317595 36.5859686,154.358505 C39.5501759,142.467372 38.2159806,119.48969 35.8365337,94.8321022 C33.4570868,70.1745142 33.9447913,70.2476808 32.0571557,58.7709645 C26.2833369,23.6664776 19.3188839,2.73867549 19.3188839,2.73867549 Z" id="Path"></path>
                    <path d="M28.8268196,202.126045 C28.5727776,201.818505 28.4639742,201.88171 28.58038,202.266647 C28.58038,202.266647 29.0971146,203.867651 29.2404667,204.902239 C29.3838189,205.936827 29.2743747,207.663939 29.2743747,207.663939 C29.2556479,208.065511 29.355217,208.085748 29.4865314,207.701386 C29.4865314,207.701386 30.0181525,206.473199 30.0181525,204.902239 C30.0181525,203.331278 28.8268196,202.126045 28.8268196,202.126045 Z" id="Path-2" stroke-width="0.7"></path>
                    <path d="M23.0577999,197.50037 C23.0577999,197.50037 23.5902673,198.619265 23.7742411,200.215219 C23.9582149,201.811174 23.8529788,203.348292 23.8529788,203.348292 C23.8350256,203.772547 23.9483872,203.803141 24.0914939,203.404957 C24.0914939,203.404957 24.5947562,202.40324 24.5981573,200.627663 C24.6015585,198.852086 23.8340317,197.037282 23.8340317,197.037282 L23.0577999,197.50037 Z" id="Path-2" stroke-width="0.7" transform="translate(23.827984, 200.361594) scale(-1, 1) rotate(-73.000000) translate(-23.827984, -200.361594) "></path>
                    <path d="M32.6125002,194.404343 L31.4272933,195.404206 C31.4272933,195.404206 32.1235312,196.925089 32.1678101,197.842968 C32.2120891,198.760848 31.683789,201.689199 31.683789,201.689199 C31.596654,202.197714 31.7021814,202.225981 31.9133226,201.752022 C31.9133226,201.752022 33.1001931,199.260584 33.2901071,197.826269 C33.4800211,196.391954 32.6125002,194.404343 32.6125002,194.404343 Z" id="Path-2" stroke-width="0.7" transform="translate(32.372291, 198.247086) rotate(-34.000000) translate(-32.372291, -198.247086) "></path>
                    <path d="M33.3486247,190.349696 L32.6669309,191.25298 C32.6669309,191.25298 33.8156167,191.784767 34.4545563,193.807672 C35.2419426,198.28675 37.0935392,199.288396 37.0935392,199.288396 C37.5137048,199.646067 37.6165849,199.54651 37.3514462,199.066568 C37.3514462,199.066568 35.6247623,196.589989 35.7285535,192.840646 C35.4356692,190.850508 33.3486247,190.349696 33.3486247,190.349696 Z" id="Path-2" stroke-width="0.7" transform="translate(35.082053, 194.926388) rotate(-37.000000) translate(-35.082053, -194.926388) "></path>
                    <path d="M35.6250379,186.487865 L34.5197133,187.323234 C34.5197133,187.323234 35.9643878,188.518829 36.6033273,190.541734 C36.8171884,191.758291 36.9968345,194.15892 37.4901597,195.435059 C37.9834849,196.711197 40.6240764,200.513394 40.6240764,200.513394 C40.932852,200.964919 40.9500038,200.941653 40.6794011,200.472126 C40.6794011,200.472126 38.6928804,197.312439 38.1855722,194.513597 C37.6782641,191.714754 38.2710118,191.526318 37.8773246,189.574708 C37.5844403,187.58457 35.6250379,186.487865 35.6250379,186.487865 Z" id="Path-2" stroke-width="0.7" transform="translate(37.694785, 193.663222) rotate(-37.000000) translate(-37.694785, -193.663222) "></path>
                    <path d="M23.7876498,193.647411 L22.786854,194.153155 C22.786854,194.153155 23.4729073,194.835676 23.5672853,197.061404 C23.6616633,199.287131 23.111293,201.725854 23.111293,201.725854 C23.0240558,202.167914 23.094941,202.181923 23.2622529,201.758441 C23.2622529,201.758441 24.2637005,199.445088 24.4275166,197.701737 C24.5913328,195.958386 23.7876498,193.647411 23.7876498,193.647411 Z" id="Path-2" stroke-width="0.7" transform="translate(23.618198, 197.857186) scale(-1, 1) rotate(-75.000000) translate(-23.618198, -197.857186) "></path>
                    <path d="M22.875631,187.597645 L21.8748351,188.103389 C21.8748351,188.103389 22.7343387,189.567445 23.5830323,192.323666 C24.4317259,195.079887 24.8842475,197.534964 24.8842475,197.534964 C24.9940399,198.0803 25.0609122,198.070839 25.026898,197.529647 C25.026898,197.529647 24.967669,195.335276 24.3615589,192.335569 C23.7554488,189.335862 22.875631,187.597645 22.875631,187.597645 Z" id="Path-2" stroke-width="0.7" transform="translate(23.455317, 192.768708) scale(-1, -1) rotate(-57.000000) translate(-23.455317, -192.768708) "></path>
                    <path d="M22.6615918,169.678287 C22.6615918,169.678287 23.7039367,171.572553 24.0910424,173.706399 C24.3650518,176.412952 24.3111686,178.731486 22.4154803,182.545333 C20.5197919,186.359179 16.8121942,191.977803 16.8121942,191.977803 C16.5135311,192.436608 16.5492125,192.460136 16.8986438,192.017041 C16.8986438,192.017041 20.1756255,187.961621 22.4744601,184.247194 C24.7732947,180.532768 25.5605636,176.709936 25.2478894,173.946472 C25.0353074,172.06764 24.0731667,170.002652 23.7619614,169.208548 L22.6615918,169.678287 Z" id="Path-2" stroke-width="0.7" transform="translate(20.961821, 180.772296) scale(-1, -1) rotate(-57.000000) translate(-20.961821, -180.772296) "></path>
                    <path d="M19.553373,178.2659 C19.553373,178.2659 20.6276016,180.447977 21.0147074,182.581823 C21.148206,183.900468 21.1551032,186.092844 20.2777525,189.56966 C19.642527,191.723464 20.8476673,194.881056 20.8476673,194.881056 C21.0199177,195.405652 21.1115227,195.384928 21.0827721,194.830749 C21.0827721,194.830749 20.8421564,194.011119 21.4339587,189.735719 C22.0257609,185.460319 23.2211944,183.930815 23.0175034,182.408402 C22.8138124,180.885989 21.3983528,178.373937 21.0871475,177.579832 L19.553373,178.2659 Z" id="Path-2" stroke-width="0.7" transform="translate(21.296979, 186.420357) scale(-1, -1) rotate(-57.000000) translate(-21.296979, -186.420357) "></path>
                    <path d="M15.4161351,5.60746089 C15.4161351,5.60746089 15.0821541,7.59307501 15.4692599,9.72692125 C15.6027585,11.0455664 17.1726005,13.2307987 17.1726005,13.2307987 C17.4769512,13.6853016 17.5871265,13.6310722 17.4229185,13.1033883 C17.4229185,13.1033883 16.7898542,11.2474098 16.5861632,9.72499682 C16.3824722,8.20258388 17.8226204,4.4135954 17.5114152,3.61949103 L15.4161351,5.60746089 Z" id="Path-2" stroke-width="0.7" transform="translate(16.418958, 8.579025) scale(-1, -1) rotate(-57.000000) translate(-16.418958, -8.579025) "></path>
                    <path d="M18.1478752,3.56083015 C18.1478752,3.56083015 14.4577041,5.95366759 14.3493618,6.25193696 C14.2410195,6.55020634 16.7973598,7.93169108 16.7973598,7.93169108 C17.2710389,8.19698605 18.0991953,8.48320137 18.6437797,8.54786364 C18.6437797,8.54786364 22.3930064,9.31659734 20.947959,7.09475083 C19.5029117,4.87290431 20.5543605,2.36696466 20.2431552,1.57286028 L18.1478752,3.56083015 Z" id="Path-2" stroke-width="0.7" transform="translate(17.812667, 5.124652) scale(-1, -1) rotate(-57.000000) translate(-17.812667, -5.124652) "></path>
                    <path d="M30.9611521,198.008411 C30.7230619,197.809429 30.6142117,197.887586 30.7085263,198.173619 C30.7085263,198.173619 30.9977871,198.911562 31.1411393,199.946149 C31.2844915,200.980737 31.3004586,202.079988 31.3004586,202.079988 C31.3099805,202.387729 31.4113489,202.397963 31.5040979,202.112632 C31.5040979,202.112632 31.8034079,201.577664 31.8034079,200.006704 C31.8034079,198.435743 30.9611521,198.008411 30.9611521,198.008411 Z" id="Path-2" stroke-width="0.7" transform="translate(31.239054, 200.108411) rotate(-29.000000) translate(-31.239054, -200.108411) "></path>
                    <path d="M31.1418967,200.041084 C30.7680971,199.574329 30.6637062,199.637437 30.9044908,200.185314 C30.9044908,200.185314 32.0209356,202.59165 32.1642878,203.626238 C32.30764,204.660826 32.2105903,206.030186 32.2105903,206.030186 C32.1850181,206.629339 32.333034,206.656155 32.5167241,206.084102 C32.5167241,206.084102 32.9419736,205.197199 32.9419736,203.626238 C32.9419736,202.055278 31.1418967,200.041084 31.1418967,200.041084 Z" id="Path-2" stroke-width="0.7" transform="translate(31.858538, 203.112807) scale(-1, -1) rotate(-59.000000) translate(-31.858538, -203.112807) "></path>
                    <path d="M34.1158376,175.395048 C34.1158376,175.395048 37.4972139,172.249446 41.4569155,171.931112 C45.4166171,171.612777 49.3985415,174.161051 51.228623,174.161051 C55.013722,174.161051 54.898927,173.700638 54.898927,173.700638 C55.3753251,173.440328 55.6187747,173.648752 55.4344378,174.173988 C55.4344378,174.173988 51.161373,187.160173 46.5870132,189.434878 C44.0184123,191.495157 40.4134694,189.434878 37.0998996,188.197821 C33.7863298,186.960764 32.0476112,188.197821 32.0476112,188.197821 C32.0476112,188.197821 32.7378902,184.004146 33.0840066,181.86161 C33.430123,179.719074 34.1158376,175.395048 34.1158376,175.395048 Z" id="Path-3" stroke-width="0.7"></path>
                    <path d="M38.2982456,138.718563 C38.2982456,138.718563 42.0103143,135.556466 45.2570217,135.345378 C48.503729,135.13429 50.3886792,137.051179 51.8381183,137.307356 C55.206892,137.902759 56.8575479,136.717349 56.8575479,136.717349 C57.3461098,136.471707 57.524093,136.663467 57.2426614,137.145147 C57.2426614,137.145147 54.1908254,142.920422 50.4401368,144.428781 C49.4192806,145.090987 45.730625,144.706669 42.8732845,145.54467 C40.015944,146.382672 37.6527195,148.529723 37.6527195,148.529723 C37.6527195,148.529723 37.9379578,144.787598 38.0394737,143.244688 C38.1409896,141.701778 38.2982456,138.718563 38.2982456,138.718563 Z" id="Path-3" stroke-width="0.7"></path>
                    <path d="M36.3314392,99.647529 C36.3314392,99.647529 39.8655841,96.9116441 41.8389594,96.7397025 C46.7618764,96.7397025 48.1116447,98.682099 52.4155503,98.9694956 C56.7194559,99.2568921 57.9762566,98.1553706 57.9762566,98.1553706 C58.4583047,97.8958965 58.6512637,98.0868825 58.4017001,98.571581 C58.4017001,98.571581 56.9720242,101.641179 55.4988142,102.659771 C54.0256041,103.678363 52.1085266,104.294567 48.5423879,105.123921 C44.9762491,105.953275 37.4588173,111.849432 37.4588173,111.849432 C37.4588173,111.849432 37.0153204,107.606384 36.8141933,105.429534 C36.6130662,103.252684 36.3314392,99.647529 36.3314392,99.647529 Z" id="Path-3" stroke-width="0.7"></path>
                    <path d="M10.914198,97.0781904 C10.914198,97.0781904 13.6559666,94.1621185 16.9292714,92.4033399 C20.2025762,90.6445614 22.5697222,89.9291273 24.660239,89.8896145 C28.9217717,89.8090674 34.2724761,93.731588 34.2724761,93.731588 C34.7307655,94.0451835 34.6747592,94.451451 34.156938,94.645493 C34.156938,94.645493 30.4152937,95.8880547 28.5433451,97.6762235 C26.6713965,99.4643923 25.73831,102.040735 25.73831,102.040735 C25.73831,102.040735 22.5927996,106.010504 21.3661965,106.662531 C18.9912014,107.92501 16.2086139,108.060168 14.5562707,109.118088 C11.9996961,110.754947 11.7119469,111.112413 11.7119469,111.112413 L10.9874653,104.373541 L10.914198,97.0781904 Z" id="Path-3" stroke-width="0.7" transform="translate(22.748884, 100.500402) scale(-1, 1) rotate(9.000000) translate(-22.748884, -100.500402) "></path>
                    <path d="M33.6642383,71.7842982 C33.6642383,71.7842982 41.8400395,66.3944428 44.3015241,65.7261181 C46.7630086,65.0577935 52.3646518,65.638204 52.3646518,65.638204 C52.9130997,65.6867576 53.2171269,66.1437307 53.0290907,66.6729287 C53.0290907,66.6729287 51.9240647,70.187995 50.6688715,71.0750963 C48.9780665,72.2700639 47.0182763,72.1568446 44.3015241,74.0976525 C41.5847718,76.0384603 34.871098,82.393596 34.871098,82.393596 C34.871098,82.393596 34.4276011,78.150548 34.226474,75.9736982 C34.0253469,73.7968484 33.6642383,71.7842982 33.6642383,71.7842982 Z" id="Path-3" stroke-width="0.7"></path>
                    <path d="M11.3742471,62.2277145 C11.3742471,62.2277145 16.9403188,60.2361776 19.9045314,60.1429657 C22.8687441,60.0497537 31.58624,61.4113184 31.58624,61.4113184 C32.1320002,61.4940177 32.4060561,61.963202 32.1020543,62.4324753 C32.1020543,62.4324753 32.3105725,62.8980234 29.4293179,64.7314326 C26.5480634,66.5648417 24.7572689,65.5597916 20.4951551,68.7757405 C16.2330413,71.9916895 13.6569916,76.6323341 13.6569916,76.6323341 L11.3742471,62.2277145 Z" id="Path-3" stroke-width="0.7" transform="translate(21.801229, 68.385362) scale(-1, 1) rotate(16.000000) translate(-21.801229, -68.385362) "></path>
                    <path d="M19.5834803,2.89359167 C19.5834803,2.89359167 19.034876,1.29777298 19.5834803,1.32864793 C19.7339193,1.33711449 20.3555496,2.34841431 21.7432508,3.4049261 C23.130952,4.46143789 25.1847073,5.48460567 26.7717312,6.75489269 C29.9924234,9.33280198 31.5105783,10.6185438 31.5105783,10.6185438 C31.9379125,10.9756413 31.923486,11.5406414 31.491974,11.8763783 C31.491974,11.8763783 29.2259152,13.5632715 28.1594292,14.8299912 C27.0929432,16.0967108 24.3914565,20.8933876 24.3914565,20.8933876 C24.3914565,20.8933876 22.6770258,14.769923 21.7432508,11.265126 C20.8094758,7.76032899 19.5834803,2.89359167 19.5834803,2.89359167 Z" id="Path-3" stroke-width="0.7"></path>
                    <path d="M28.3220467,38.2673373 C28.3220467,38.2673373 29.1691013,37.2730216 30.5703819,35.9045529 C31.9716624,34.5360843 34.0919752,32.6535793 35.6683628,32.1169584 C38.7518733,31.067295 42.6074548,32.7350218 42.6074548,32.7350218 C43.1283772,32.9273898 43.36006,33.4781415 43.1115904,33.9720911 C43.1115904,33.9720911 41.8709698,36.6861064 40.5762262,37.7894416 C40.0502393,38.2376693 37.8684895,38.4170684 35.6935887,39.844888 C33.518688,41.2727076 29.1302289,45.3719291 29.1302289,45.3719291 C29.1302289,45.3719291 28.833238,42.5305418 28.6985519,41.0727988 C28.5638657,39.6150558 28.3220467,38.2673373 28.3220467,38.2673373 Z" id="Path-3" stroke-width="0.7" transform="translate(35.766831, 38.571037) rotate(-7.000000) translate(-35.766831, -38.571037) "></path>
                    <path d="M11.3270623,26.3243666 C11.3270623,26.3243666 14.7902725,24.0798241 18.837093,24.3592556 C22.8839135,24.6386871 24.1958702,25.912923 24.1958702,25.912923 C25.6346019,26.7302537 25.5788402,27.9360339 24.0785551,28.6581749 C24.0785551,28.6581749 21.1229996,29.7584793 18.097672,32.4280398 C15.0723445,35.0976003 13.3705503,39.2438442 13.3705503,39.2438442 C13.3705503,39.2438442 12.7691622,35.2315566 12.6344761,33.7738136 C12.4997899,32.3160706 11.3270623,26.3243666 11.3270623,26.3243666 Z" id="Path-3" stroke-width="0.7" transform="translate(18.283681, 31.789509) scale(-1, 1) rotate(21.000000) translate(-18.283681, -31.789509) "></path>
                    <path d="M46.2681048,61.2958633 C51.0551966,61.8572554 52.0478799,62.9661463 52.0478799,62.9661463 C52.5055917,63.273529 52.4447697,63.5967646 51.8939691,63.6950343 C51.8939691,63.6950343 46.7384399,64.5374775 44.3121302,65.5851546 C43.2517578,66.0430219 33.8121229,71.7547438 33.8121229,71.7547438 L33.0147722,65.5851546 C33.0147722,65.5851546 41.481013,60.7344713 46.2681048,61.2958633 Z" id="Path-3" stroke-width="0.7"></path>
                    <path d="M37.4014664,112.341268 C37.4014664,112.341268 40.1377551,112.635508 42.7283234,111.407369 C45.3188916,110.179229 46.4190426,108.026198 47.9981306,107.482794 C49.618163,106.925299 51.9206752,107.048037 53.865817,106.62745 C55.8109589,106.206863 57.7768011,105.376491 57.7768011,105.376491 C58.2865144,105.175185 58.6374379,105.457493 58.5542912,105.992255 C58.5542912,105.992255 57.8405777,111.891638 55.4258516,116.175504 C54.2294931,117.799306 51.5679388,120.751631 49.2789595,123.338524 C46.9899802,125.925417 41.4434799,127.255415 40.1979102,127.626639 L38.1702634,127.858961 C38.1702634,127.858961 38.1468854,121.692674 38.0394737,119.524634 C37.9320619,117.356594 37.4014664,112.341268 37.4014664,112.341268 Z" id="Path-3" stroke-width="0.7"></path>
                    <path d="M11.871145,141.445761 C11.871145,141.445761 12.6228779,141.685316 14.2060624,140.690562 C15.7892468,139.695809 16.4450301,137.636265 18.4021078,136.674217 C20.3591854,135.71217 23.9046059,135.881121 27.874172,135.16856 C31.8437381,134.455998 34.8156901,133.814052 34.8156901,133.814052 C35.3550954,133.700384 35.5677376,133.99729 35.292094,134.475084 C35.292094,134.475084 31.8489326,140.432748 29.4342065,144.716613 C27.0194804,149.000479 23.0741877,149.18068 18.8130048,152.307141 C14.551822,155.433603 11.9442647,159.661873 11.9442647,159.661873 C11.9442647,159.661873 11.7064008,150.79058 11.598989,148.62254 C11.4915773,146.454501 11.871145,141.445761 11.871145,141.445761 Z" id="Path-3" stroke-width="0.7" transform="translate(23.496277, 146.725838) scale(-1, 1) rotate(-5.000000) translate(-23.496277, -146.725838) "></path>
                    <path d="M38.2812763,129.94135 C42.1491951,126.637574 44.2881091,125.943763 47.5348164,125.732675 C50.7815238,125.521587 54.9727758,131.027013 57.6375676,132.140055 C57.6375676,132.140055 56.3507788,134.436797 53.8333734,134.27228 C51.3159681,134.107764 47.8809908,131.377001 45.5604032,132.140055 C40.7606481,133.718307 38.5570175,138.552644 38.5570175,138.552644 C38.5570175,138.552644 38.4555017,136.519293 38.5570175,134.976383 C38.6585334,133.433473 38.2812763,129.94135 38.2812763,129.94135 Z" id="Path-3" stroke-width="0.7"></path>
                    <path d="M9.84456691,156.976065 C9.84456691,156.976065 12.9832951,154.307202 15.7802095,152.398603 C18.5771238,150.490004 22.3356144,149.722397 24.1656958,149.722397 C27.9507949,149.722397 35.5969306,146.523054 35.5969306,146.523054 C36.1015777,146.319609 36.2141966,146.480684 35.8397336,146.900783 C35.8397336,146.900783 32.843293,150.114931 31.1288107,153.1177 C28.1026408,159.19057 22.3157424,171.015895 22.3157424,171.015895 C22.3157424,171.015895 20.1501003,175.768934 14.8220633,179.81865 C12.0564354,181.92074 8.91687742,182.045842 7.26378448,182.49712 C5.61069154,182.948398 5.58358012,183.73362 5.58358012,183.73362 C5.58358012,183.73362 7.1363057,171.411306 7.4824221,169.26877 C7.8285385,167.126234 9.84456691,156.976065 9.84456691,156.976065 Z" id="Path-3" stroke-width="0.7" transform="translate(20.822477, 165.084535) scale(-1, 1) rotate(-18.000000) translate(-20.822477, -165.084535) "></path>
                    <path d="M32.3464912,186.295243 C32.3464912,186.295243 34.2370233,185.345694 36.8580962,185.870354 C39.4791692,186.395013 42.7360528,188.55873 45.2491534,187.566253 C49.0672333,186.058412 55.4675903,173.582017 55.4675903,173.582017" id="Line" stroke-width="0.7" stroke-linecap="round"></path>
                    <path d="M32.8640351,184.228167 C32.8640351,184.228167 34.7545671,183.278618 37.3756401,183.803277 C39.996713,184.327937 43.0048965,185.642533 45.5179971,184.650056 C49.336077,183.142215 55.1162543,173.969824 55.1162543,173.969824" id="Line" stroke-width="0.7" stroke-linecap="round"></path>
                    <path d="M33.3815789,182.161091 C33.3815789,182.161091 34.321956,181.701958 37.2333569,181.804991 C40.1447578,181.908024 40.5938437,182.916947 43.6384311,182.504093 C48.0704641,180.990639 55.359143,173.715846 55.359143,173.715846" id="Line" stroke-width="0.7" stroke-linecap="round"></path>
                    <path d="M33.414199,180.269547 C33.414199,180.269547 36.1830452,179.692594 38.0394737,179.979504 C39.8959022,180.266413 41.3540849,180.600092 43.3497118,180.433252 C45.3453386,180.266413 55.359143,173.715846 55.359143,173.715846" id="Line" stroke-width="0.7" stroke-linecap="round"></path>
                    <path d="M33.6063875,178.716634 C33.6063875,178.716634 35.9970499,177.541591 39.1075095,177.129521 C42.2179692,176.717451 42.182564,177.52278 44.8681613,177.129521 C47.5537587,176.736263 55.3708348,173.989495 55.3708348,173.989495" id="Line" stroke-width="0.7" stroke-linecap="round"></path>
                    <path d="M33.7510955,177.328774 C33.7510955,177.328774 38.1362297,174.033258 41.3456745,173.715846 C44.5551193,173.398435 46.7455844,174.374356 49.5533848,174.975083 C53.1080752,174.975083 55.359143,173.715846 55.359143,173.715846" id="Line" stroke-width="0.7" stroke-linecap="round"></path>
                    <path d="M34.5107506,171.69455 C34.5107506,171.69455 38.30077,168.707063 41.5102148,168.389651 C44.7196595,168.07224 47.8054107,169.328004 49.9015842,169.333425 C51.9977576,169.338845 56.1111367,167.90425 56.1111367,167.90425" id="Line" stroke-width="0.7" stroke-linecap="round"></path>
                    <path d="M34.673889,169.505496 C34.673889,169.505496 39.2796662,166.403014 42.489111,166.085603 C45.6985557,165.768191 48.6427071,167.042509 50.7388805,167.047929 C52.835054,167.05335 56.1111367,165.837173 56.1111367,165.837173" id="Line" stroke-width="0.7" stroke-linecap="round"></path>
                    <path d="M35.0541263,167.045466 C35.0541263,167.045466 39.0137242,164.249549 43.8814722,163.770097 C47.0909169,163.452686 48.4323075,164.941584 50.9407961,164.941584 C53.4492847,164.941584 56.6286805,163.770097 56.6286805,163.770097" id="Line" stroke-width="0.7" stroke-linecap="round"></path>
                    <path d="M35.0541263,165.495159 C35.0541263,165.495159 39.0137242,162.699242 43.8814722,162.21979 C47.0909169,161.902379 48.8861383,162.886024 51.3946268,162.886024 C53.9031154,162.886024 57.3878546,160.795407 57.3878546,160.795407" id="Line" stroke-width="0.7" stroke-linecap="round"></path>
                    <path d="M35.3561956,163.22233 C35.3561956,163.22233 38.9770726,160.991247 43.8448206,160.511795 C47.0542653,160.194384 48.1132175,160.843667 51.1261777,160.511795 C54.1391378,160.179924 57.3878546,158.728331 57.3878546,158.728331" id="Line" stroke-width="0.7" stroke-linecap="round"></path>
                    <path d="M35.7265115,161.287913 C35.7265115,161.287913 39.4946164,158.924171 44.3623644,158.444719 C49.2301124,157.965267 48.5931638,158.776591 51.606124,158.444719 C54.6190841,158.112848 57.2541025,154.888573 57.2541025,154.888573" id="Line" stroke-width="0.7" stroke-linecap="round"></path>
                    <path d="M35.7916551,93.3934951 C35.7916551,93.3934951 38.524484,90.1179007 42.6572767,89.4161936 C46.7900694,88.7144865 48.9820122,89.688318 50.9209876,89.688318 C52.859963,89.688318 56.2030296,88.8842769 56.2030296,88.8842769" id="Line" stroke-width="0.7" stroke-linecap="round"></path>
                    <path d="M31.866012,61.9617817 C31.866012,61.9617817 36.1147123,59.7628131 40.0301688,58.3950923 C43.5019542,57.9572251 45.0758968,59.0695001 46.9133752,58.6914452 C48.7508537,58.3133903 50.6454677,56.2370846 50.6454677,56.2370846" id="Line" stroke-width="0.7" stroke-linecap="round" transform="translate(41.255740, 59.099433) rotate(-16.000000) translate(-41.255740, -59.099433) "></path>
                    <path d="M31.9584734,60.018867 C31.9584734,60.018867 37.671608,57.3841498 40.2136381,56.8316747 C42.7556682,56.2791996 44.3164287,57.3801309 46.1539071,57.002076 C47.9913856,56.6240211 49.7606886,54.8269208 49.7606886,54.8269208" id="Line" stroke-width="0.7" stroke-linecap="round" transform="translate(40.859581, 57.422894) rotate(-16.000000) translate(-40.859581, -57.422894) "></path>
                    <path d="M31.4409295,58.4685598 C31.4409295,58.4685598 37.1540641,55.8338426 39.6960942,55.2813675 C42.2381243,54.7288924 43.7988848,55.8298238 45.6363632,55.4517689 C47.4738417,55.0737139 49.2431447,53.2766136 49.2431447,53.2766136" id="Line" stroke-width="0.7" stroke-linecap="round" transform="translate(40.342037, 55.872587) rotate(-16.000000) translate(-40.342037, -55.872587) "></path>
                    <path d="M30.9885319,56.4265662 C30.9885319,56.4265662 36.7016665,53.791849 39.2436966,53.2393739 C41.7857267,52.6868988 42.9804097,53.7991754 44.8178881,53.4211205 C46.6553666,53.0430656 48.5468612,51.6723829 48.5468612,51.6723829" id="Line" stroke-width="0.7" stroke-linecap="round" transform="translate(39.767697, 54.049475) rotate(-16.000000) translate(-39.767697, -54.049475) "></path>
                    <path d="M25.8235717,33.0236031 C25.8235717,33.0236031 30.7088532,30.5562795 33.2508833,30.0038044 C35.7929134,29.4513292 41.2962179,28.7235682 41.2962179,28.7235682" id="Line" stroke-width="0.7" stroke-linecap="round" transform="translate(33.559895, 30.873586) rotate(-31.000000) translate(-33.559895, -30.873586) "></path>
                    <path d="M25.4533586,31.506208 C25.4533586,31.506208 30.6861563,29.2441759 33.2281864,28.6917007 C35.7702165,28.1392256 40.5971361,27.4141097 40.5971361,27.4141097" id="Line" stroke-width="0.7" stroke-linecap="round" transform="translate(33.025247, 29.460159) rotate(-31.000000) translate(-33.025247, -29.460159) "></path>
                    <path d="M25.3522167,29.7067203 C25.3522167,29.7067203 30.0277846,27.5425481 32.740668,27.0543628 C35.4535514,26.5661776 40.007509,26.1340586 40.007509,26.1340586" id="Line" stroke-width="0.7" stroke-linecap="round" transform="translate(32.679863, 27.920389) rotate(-31.000000) translate(-32.679863, -27.920389) "></path>
                    <path d="M24.8346729,28.1564132 C24.8346729,28.1564132 29.5102407,25.9922409 32.2231241,25.5040557 C34.9360076,25.0158705 39.4899651,24.5837515 39.4899651,24.5837515" id="Line" stroke-width="0.7" stroke-linecap="round" transform="translate(32.162319, 26.370082) rotate(-31.000000) translate(-32.162319, -26.370082) "></path>
                    <path d="M24.6253341,26.4975626 C24.6253341,26.4975626 29.2045904,24.5022706 31.9174738,24.0140854 C34.6303572,23.5259002 39.0481827,23.289165 39.0481827,23.289165" id="Line" stroke-width="0.7" stroke-linecap="round" transform="translate(31.836758, 24.893364) rotate(-31.000000) translate(-31.836758, -24.893364) "></path>
                    <path d="M24.299986,24.4631394 C24.299986,24.4631394 28.6673412,22.7667483 31.3802246,22.2785631 C34.093108,21.7903778 38.4127196,21.9337027 38.4127196,21.9337027" id="Line" stroke-width="0.7" stroke-linecap="round" transform="translate(31.356353, 23.188613) rotate(-31.000000) translate(-31.356353, -23.188613) "></path>
                    <path d="M24.1061555,22.7625024 C24.1061555,22.7625024 28.2956415,21.1260361 31.0085249,20.6378509 C33.7214084,20.1496657 37.6381525,20.5462365 37.6381525,20.5462365" id="Line" stroke-width="0.7" stroke-linecap="round" transform="translate(30.872154, 21.578394) rotate(-31.000000) translate(-30.872154, -21.578394) "></path>
                    <path d="M23.731214,20.7804833 C23.731214,20.7804833 27.4564766,19.5744258 30.16936,19.0862406 C32.8822434,18.5980554 36.8134429,18.9884328 36.8134429,18.9884328" id="Line" stroke-width="0.7" stroke-linecap="round" transform="translate(30.272328, 19.810565) rotate(-31.000000) translate(-30.272328, -19.810565) "></path>
                    <path d="M7.89202291,22.5507206 C7.89202291,22.5507206 11.1551272,20.8925641 15.1024153,20.3907947 C17.8152988,19.9026095 22.285356,20.3606424 22.285356,20.3606424" id="Line" stroke-width="0.7" stroke-linecap="round" transform="translate(15.088689, 21.358221) scale(-1, -1) rotate(19.000000) translate(-15.088689, -21.358221) "></path>
                    <path d="M7.88985673,20.9501238 C7.88985673,20.9501238 10.8541575,19.3551822 14.8014456,18.8534127 C17.5143291,18.3652275 21.9843863,18.8232605 21.9843863,18.8232605" id="Line" stroke-width="0.7" stroke-linecap="round" transform="translate(14.937121, 19.789231) scale(-1, -1) rotate(19.000000) translate(-14.937121, -19.789231) "></path>
                    <path d="M7.87404584,19.3478701 C7.87404584,19.3478701 10.5432717,17.8992157 14.4905598,17.3974462 C17.2034432,16.909261 21.6735004,17.367294 21.6735004,17.367294" id="Line" stroke-width="0.7" stroke-linecap="round" transform="translate(14.773773, 18.260121) scale(-1, -1) rotate(19.000000) translate(-14.773773, -18.260121) "></path>
                    <path d="M7.87404584,19.3478701 C7.87404584,19.3478701 10.5432717,17.8992157 14.4905598,17.3974462 C17.2034432,16.909261 21.6735004,17.367294 21.6735004,17.367294" id="Line" stroke-width="0.7" stroke-linecap="round" transform="translate(14.773773, 18.260121) scale(-1, -1) rotate(19.000000) translate(-14.773773, -18.260121) "></path>
                    <path d="M8.02581748,17.7716494 C8.02581748,17.7716494 10.2559073,16.4703729 14.2031955,15.9686034 C16.9160789,15.4804182 21.2140079,15.8660286 21.2140079,15.8660286" id="Line" stroke-width="0.7" stroke-linecap="round" transform="translate(14.619913, 16.746538) scale(-1, -1) rotate(19.000000) translate(-14.619913, -16.746538) "></path>
                    <path d="M8.51059175,16.0858345 C8.51059175,16.0858345 9.96247451,15.1155959 13.9097627,14.6138265 C16.6226461,14.1256412 20.920575,14.5112517 20.920575,14.5112517" id="Line" stroke-width="0.7" stroke-linecap="round" transform="translate(14.715583, 15.226242) scale(-1, -1) rotate(19.000000) translate(-14.715583, -15.226242) "></path>
                    <path d="M9.47262446,14.5214528 C9.47262446,14.5214528 11.0278248,13.4845376 14.0412131,13.2377849 C16.7540965,12.7495997 20.6942885,13.3968505 20.6942885,13.3968505" id="Line" stroke-width="0.7" stroke-linecap="round" transform="translate(15.083456, 13.788505) scale(-1, -1) rotate(19.000000) translate(-15.083456, -13.788505) "></path>
                    <path d="M10.3737777,13.300373 C10.3737777,13.300373 11.4610777,12.4806491 14.1934454,11.9871249 C16.9063288,11.4989397 20.1913673,12.2931874 20.1913673,12.2931874" id="Line" stroke-width="0.7" stroke-linecap="round" transform="translate(15.282573, 12.564422) scale(-1, -1) rotate(19.000000) translate(-15.282573, -12.564422) "></path>
                    <path d="M23.4135271,19.1515909 C23.4135271,19.1515909 26.7964302,18.0888524 29.5665462,17.4903062 C32.3366621,16.89176 35.8550458,17.5387886 35.8550458,17.5387886" id="Line" stroke-width="0.7" stroke-linecap="round" transform="translate(29.634286, 18.193945) rotate(-31.000000) translate(-29.634286, -18.193945) "></path>
                    <path d="M22.0225167,15.7735965 C22.0225167,15.7735965 25.7080858,14.290165 27.5805383,13.9880504 C29.4529908,13.6859358 33.0754206,13.750566 33.0754206,13.750566" id="Line" stroke-width="0.7" stroke-linecap="round" transform="translate(27.548969, 14.759180) rotate(-39.000000) translate(-27.548969, -14.759180) "></path>
                    <path d="M21.7634131,14.0260663 C21.7634131,14.0260663 24.2864743,13.0930073 26.7072164,12.7198571 C29.1279584,12.346707 31.6541536,12.4105579 31.6541536,12.4105579" id="Line" stroke-width="0.7" stroke-linecap="round" transform="translate(26.708783, 13.216237) rotate(-39.000000) translate(-26.708783, -13.216237) "></path>
                    <path d="M21.3895616,12.7278424 C21.3895616,12.7278424 23.5724667,11.8993396 25.9932087,11.5261894 C28.4139508,11.1530393 30.4236814,11.2832759 30.4236814,11.2832759" id="Line" stroke-width="0.7" stroke-linecap="round" transform="translate(25.906622, 11.994555) rotate(-39.000000) translate(-25.906622, -11.994555) "></path>
                    <path d="M21.097507,11.0173719 C21.097507,11.0173719 22.440915,10.3787012 24.861657,10.0055511 C27.2823991,9.63240093 28.8976042,9.97013676 28.8976042,9.97013676" id="Line" stroke-width="0.7" stroke-linecap="round" transform="translate(24.997556, 10.423686) rotate(-39.000000) translate(-24.997556, -10.423686) "></path>
                    <path d="M20.8962467,9.28366527 C20.8962467,9.28366527 22.5601795,8.77046114 24.1480517,8.55482595 C25.7359238,8.33919075 27.4371546,8.59943639 27.4371546,8.59943639" id="Line" stroke-width="0.7" stroke-linecap="round" transform="translate(24.166701, 8.969328) rotate(-39.000000) translate(-24.166701, -8.969328) "></path>
                    <path d="M20.5022766,8.05732853 C20.5022766,8.05732853 21.8925572,7.59076747 23.4804293,7.37513227 C25.0683015,7.15949708 26.0033691,7.30053547 26.0033691,7.30053547" id="Line" stroke-width="0.7" stroke-linecap="round" transform="translate(23.252823, 7.755234) rotate(-39.000000) translate(-23.252823, -7.755234) "></path>
                    <path d="M20.2743362,6.30997024 C20.2743362,6.30997024 20.9690341,6.06160489 22.5569063,5.84596969 C24.1447784,5.63033449 24.5324578,6.05901859 24.5324578,6.05901859" id="Line" stroke-width="0.7" stroke-linecap="round" transform="translate(22.403397, 6.285322) rotate(-37.000000) translate(-22.403397, -6.285322) "></path>
                    <path d="M20.1293222,5.14688886 C20.1293222,5.14688886 21.4522447,4.35461986 23.133252,4.94791815" id="Line" stroke-width="0.7" stroke-linecap="round" transform="translate(21.631287, 5.227490) rotate(-37.000000) translate(-21.631287, -5.227490) "></path>
                    <path d="M19.8059477,3.85816543 C19.8059477,3.85816543 20.8296404,3.33994628 21.8327446,3.76542075" id="Line" stroke-width="0.7" stroke-linecap="round" transform="translate(20.819346, 4.097696) rotate(-37.000000) translate(-20.819346, -4.097696) "></path>
                    <path d="M15.9906584,3.12063601 C15.9906584,3.12063601 17.7065107,2.82560631 18.9490085,3.48526503" id="Line" stroke-width="0.7" stroke-linecap="round" transform="translate(17.469833, 3.554865) scale(-1, 1) rotate(-28.000000) translate(-17.469833, -3.554865) "></path>
                    <path d="M14.440939,4.28515718 C14.440939,4.28515718 17.5173391,4.00596176 19.0259006,5.24188472" id="Line" stroke-width="0.7" stroke-linecap="round" transform="translate(16.733420, 4.758118) scale(-1, 1) rotate(-28.000000) translate(-16.733420, -4.758118) "></path>
                    <path d="M13.5303597,5.61985587 C13.5303597,5.61985587 17.6687554,5.52593423 19.1115578,6.93774953" id="Line" stroke-width="0.7" stroke-linecap="round" transform="translate(16.320959, 6.278155) scale(-1, 1) rotate(-31.000000) translate(-16.320959, -6.278155) "></path>
                    <path d="M30.8791103,54.2366361 C30.8791103,54.2366361 36.1668308,51.6675009 38.7088609,51.1150257 C41.250891,50.5625506 42.4455739,51.6748273 44.2830524,51.2967723 C46.1205308,50.9187174 48.0120254,49.5480347 48.0120254,49.5480347" id="Line" stroke-width="0.7" stroke-linecap="round" transform="translate(39.445568, 51.892335) rotate(-16.000000) translate(-39.445568, -51.892335) "></path>
                    <path d="M30.5229468,52.373132 C30.5229468,52.373132 35.6798768,49.9242829 38.2219069,49.3718078 C40.763937,48.8193327 41.8658795,49.7973537 43.703358,49.4192988 C45.5408364,49.0412439 47.4541162,47.9073825 47.4541162,47.9073825" id="Line" stroke-width="0.7" stroke-linecap="round" transform="translate(38.988531, 50.140257) rotate(-16.000000) translate(-38.988531, -50.140257) "></path>
                    <path d="M10.7027042,38.7812107 C10.7027042,38.7812107 14.6636384,36.6842051 17.2056685,36.13173 C19.7476986,35.5792549 20.958982,35.8094165 22.4215433,35.8094165 C23.8841046,35.8094165 26.2612566,35.3643678 26.2612566,35.3643678" id="Line" stroke-width="0.7" stroke-linecap="round" transform="translate(18.481980, 37.072789) scale(-1, 1) translate(-18.481980, -37.072789) "></path>
                    <path d="M10.9133695,40.2004871 C10.9133695,40.2004871 15.1446987,38.2345123 17.6867288,37.6820371 C20.2287589,37.129562 21.4400423,37.3597237 22.9026036,37.3597237 C24.3651649,37.3597237 26.5316515,36.9196601 26.5316515,36.9196601" id="Line" stroke-width="0.7" stroke-linecap="round" transform="translate(18.722511, 38.560074) scale(-1, 1) translate(-18.722511, -38.560074) "></path>
                    <path d="M11.220248,41.881825 C11.220248,41.881825 15.1811823,39.7848194 17.7232124,39.2323443 C20.2652425,38.6798692 21.4765259,38.9100308 22.9390872,38.9100308 C24.4016485,38.9100308 26.7788005,38.4649821 26.7788005,38.4649821" id="Line" stroke-width="0.7" stroke-linecap="round" transform="translate(18.999524, 40.173404) scale(-1, 1) translate(-18.999524, -40.173404) "></path>
                    <path d="M11.2813137,44.0107126 C11.2813137,44.0107126 14.9787453,42.2404798 17.4333876,41.5923394 C19.8880298,40.9441991 21.1660057,40.7702374 22.628567,40.7702374 C24.0911283,40.7702374 27.6396216,40.4236295 27.6396216,40.4236295" id="Line" stroke-width="0.7" stroke-linecap="round" transform="translate(19.460468, 42.217171) scale(-1, 1) translate(-19.460468, -42.217171) "></path>
                    <path d="M11.5220733,46.0777888 C11.5220733,46.0777888 15.2195049,44.307556 17.6741472,43.6594156 C20.1287894,43.0112753 21.4067653,42.8373136 22.8693266,42.8373136 C24.3318879,42.8373136 28.1571655,42.3094244 28.1571655,42.3094244" id="Line" stroke-width="0.7" stroke-linecap="round" transform="translate(19.839619, 44.193607) scale(-1, 1) translate(-19.839619, -44.193607) "></path>
                    <path d="M11.8037463,47.9762366 C11.8037463,47.9762366 14.8240838,46.7530951 17.2787261,46.1049547 C19.7333684,45.4568144 21.7171849,44.6969901 23.3063709,44.8342741 C24.895557,44.971558 28.3289359,44.2336729 28.3289359,44.2336729" id="Line" stroke-width="0.7" stroke-linecap="round" transform="translate(20.066341, 46.104955) scale(-1, 1) translate(-20.066341, -46.104955) "></path>
                    <path d="M12.1570194,50.0433128 C12.1570194,50.0433128 15.1773569,48.8201713 17.6319992,48.1720309 C20.0866415,47.5238906 21.1387245,47.1623091 23.6596441,46.9013503 C26.1805636,46.6403914 28.8464797,46.2281531 28.8464797,46.2281531" id="Line" stroke-width="0.7" stroke-linecap="round" transform="translate(20.501750, 48.135733) scale(-1, 1) translate(-20.501750, -48.135733) "></path>
                    <path d="M12.4434325,52.110389 C12.4434325,52.110389 15.46377,50.8872475 17.9184123,50.2391071 C20.3730546,49.5909668 21.4251376,49.2293853 23.9460571,48.9684265 C26.4669767,48.7074676 28.8464797,48.3334161 28.8464797,48.3334161" id="Line" stroke-width="0.7" stroke-linecap="round" transform="translate(20.644956, 50.221903) scale(-1, 1) translate(-20.644956, -50.221903) "></path>
                    <path d="M12.4434325,54.2248197 C12.4434325,54.2248197 15.9866164,52.9543237 18.4412587,52.3061834 C20.895901,51.658043 21.947984,51.2964615 24.4689036,51.0355027 C26.9898232,50.7745438 29.3693261,50.4004923 29.3693261,50.4004923" id="Line" stroke-width="0.7" stroke-linecap="round" transform="translate(20.906379, 52.312656) scale(-1, 1) translate(-20.906379, -52.312656) "></path>
                    <path d="M10.5452256,75.6552256 C10.5452256,75.6552256 15.522546,72.4682995 16.9428976,71.9874375 C18.3632493,71.5065755 19.2939448,70.7599592 22.546701,71.5921093 C25.7994572,72.4242595 31.9346656,75.6552256 31.9346656,75.6552256" id="Line" stroke-width="0.7" stroke-linecap="round" transform="translate(21.239946, 73.436470) scale(-1, 1) translate(-21.239946, -73.436470) "></path>
                    <path d="M10.6480302,77.2055327 C10.6480302,77.2055327 15.1877658,74.2675217 16.6081174,73.7866596 C17.4581127,73.4988925 18.4968244,72.922698 19.5987044,72.8398986 C20.7005844,72.7570991 21.795747,72.933145 23.4485403,73.5377447 C25.1013337,74.1423443 31.9346656,77.2055327 31.9346656,77.2055327" id="Line" stroke-width="0.7" stroke-linecap="round" transform="translate(21.291348, 75.013106) scale(-1, 1) translate(-21.291348, -75.013106) "></path>
                    <path d="M10.7945752,79.2726089 C10.7945752,79.2726089 17.7910869,75.0473498 19.9027299,74.7704032 C22.0143729,74.4934566 23.7294046,75.2696672 25.3821979,75.8742669 C27.0349912,76.4788666 32.27794,79.0717058 32.27794,79.0717058" id="Line" stroke-width="0.7" stroke-linecap="round" transform="translate(21.536258, 76.992614) scale(-1, 1) translate(-21.536258, -76.992614) "></path>
                    <path d="M10.7945752,81.3396851 C10.7945752,81.3396851 15.15603,77.9825541 18.3461438,77.2640503 C21.5362576,76.5455465 21.9808844,76.8374794 25.3821979,77.9413431 C27.0349912,78.5459428 32.27794,81.138782 32.27794,81.138782" id="Line" stroke-width="0.7" stroke-linecap="round" transform="translate(21.536258, 79.105562) scale(-1, 1) translate(-21.536258, -79.105562) "></path>
                    <path d="M10.7945752,83.4067613 C10.7945752,83.4067613 15.15603,80.2380806 18.3461438,79.3311265 C21.5362576,78.4241724 21.9808844,78.9045556 25.3821979,80.0084193 C27.0349912,80.613019 32.27794,83.2058582 32.27794,83.2058582" id="Line" stroke-width="0.7" stroke-linecap="round" transform="translate(21.536258, 81.131051) scale(-1, 1) translate(-21.536258, -81.131051) "></path>
                    <path d="M10.5277443,85.7736844 C10.5277443,85.7736844 15.3233207,82.5151812 18.5134345,81.608227 C21.7035482,80.7012729 22.4375071,80.3922168 25.634313,82.0754955 C29.1937924,84.0875056 32.7968859,85.0733115 32.7968859,85.0733115" id="Line" stroke-width="0.7" stroke-linecap="round" transform="translate(21.662315, 83.321649) scale(-1, 1) translate(-21.662315, -83.321649) "></path>
                    <path d="M9.93439255,88.0616052 C9.93439255,88.0616052 14.6620197,84.5327568 17.8521335,83.6258027 C21.0422473,82.7188486 21.1467669,82.3740726 25.0800841,83.6258027 C29.8817247,85.4813931 32.8360089,87.4369182 32.8360089,87.4369182" id="Line" stroke-width="0.7" stroke-linecap="round" transform="translate(21.385201, 85.436401) scale(-1, 1) translate(-21.385201, -85.436401) "></path>
                    <path d="M9.91909066,90.1864627 C9.91909066,90.1864627 16.2563133,86.083724 18.223159,85.450475 C20.1900048,84.817226 20.4166996,84.3022503 25.4810436,85.1761098 C30.5099237,86.8367916 33.2522703,88.0437687 33.2522703,88.0437687" id="Line" stroke-width="0.7" stroke-linecap="round" transform="translate(21.585680, 87.449148) scale(-1, 1) translate(-21.585680, -87.449148) "></path>
                    <path d="M10.0752253,92.1136112 C10.0752253,92.1136112 16.2879937,87.6475868 18.2548395,87.0143378 C20.2216852,86.3810888 21.3248567,86.2981158 25.6217879,86.5897424 C29.9867162,87.753645 33.2667121,88.1900347 33.2667121,88.1900347" id="Line" stroke-width="0.7" stroke-linecap="round" transform="translate(21.670969, 89.271118) scale(-1, 1) translate(-21.670969, -89.271118) "></path>
                    <path d="M15.6738716,93.6639183 C15.6738716,93.6639183 21.88664,89.197894 23.8534857,88.564645 C25.8203314,87.931396 29.2443564,87.1766511 33.2667121,88.7733237" id="Line" stroke-width="0.7" stroke-linecap="round" transform="translate(24.470292, 90.742331) scale(-1, 1) translate(-24.470292, -90.742331) "></path>
                    <path d="M12.4434325,56.3569207 C12.4434325,56.3569207 16.2353499,55.3187695 18.6899922,54.6706291 C21.1446345,54.0224888 22.2055395,53.6987125 24.7264591,53.4377537 C27.2473787,53.1767949 29.658858,52.9843376 29.658858,52.9843376" id="Line" stroke-width="0.7" stroke-linecap="round" transform="translate(21.051145, 54.670629) scale(-1, 1) translate(-21.051145, -54.670629) "></path>
                    <path d="M12.4434325,58.3177673 C12.4434325,58.3177673 15.7939958,57.3858457 18.2486381,56.7377054 C20.7032804,56.089565 22.4908605,55.7657887 25.01178,55.5048299 C27.5326996,55.2438711 29.944179,55.0514138 29.944179,55.0514138" id="Line" stroke-width="0.7" stroke-linecap="round" transform="translate(21.193806, 56.684591) scale(-1, 1) translate(-21.193806, -56.684591) "></path>
                    <path d="M30.0054029,50.3060558 C30.0054029,50.3060558 35.162333,47.8572067 37.7043631,47.3047316 C40.2463932,46.7522565 41.3483357,47.7302775 43.1858141,47.3522226 C45.0232926,46.9741677 46.9365723,45.8403063 46.9365723,45.8403063" id="Line" stroke-width="0.7" stroke-linecap="round" transform="translate(38.470988, 48.073181) rotate(-16.000000) translate(-38.470988, -48.073181) "></path>
                    <path d="M29.7711547,48.2127325 C29.7711547,48.2127325 34.6410948,45.7503755 37.1831249,45.1979004 C39.725155,44.6454252 40.8270975,45.6234463 42.6645759,45.2453914 C44.5020544,44.8673365 46.4153342,43.7334751 46.4153342,43.7334751" id="Line" stroke-width="0.7" stroke-linecap="round" transform="translate(38.093244, 45.973104) rotate(-16.000000) translate(-38.093244, -45.973104) "></path>
                    <path d="M29.2536108,46.1456563 C29.2536108,46.1456563 34.1235509,43.6832993 36.665581,43.1308242 C39.2076111,42.578349 40.3095536,43.5563701 42.1470321,43.1783152 C43.9845105,42.8002603 45.8977903,41.6663989 45.8977903,41.6663989" id="Line" stroke-width="0.7" stroke-linecap="round" transform="translate(37.575701, 43.906028) rotate(-16.000000) translate(-37.575701, -43.906028) "></path>
                    <path d="M35.7916551,95.4605713 C35.7916551,95.4605713 38.524484,92.1849769 42.6572767,91.4832698 C46.7900694,90.7815627 48.9820122,91.7553942 50.9209876,91.7553942 C52.859963,91.7553942 56.6914072,90.7680266 56.6914072,90.7680266" id="Line" stroke-width="0.7" stroke-linecap="round"></path>
                    <path d="M36.1382254,97.1986988 C36.1382254,97.1986988 38.524484,94.2520531 42.6572767,93.550346 C46.7900694,92.8486389 48.9508076,93.550346 51.1916732,93.550346 C53.4325387,93.550346 57.2930231,92.6551734 57.2930231,92.6551734" id="Line" stroke-width="0.7" stroke-linecap="round"></path>
                    <path d="M36.309199,99.0779546 C36.309199,99.0779546 39.0420279,95.8023603 43.1748206,95.1006532 C47.3076133,94.3989461 49.0266669,95.1006532 51.709217,95.1006532 C54.3917672,95.1006532 57.810567,94.2054806 57.810567,94.2054806" id="Line" stroke-width="0.7" stroke-linecap="round"></path>
                    <path d="M35.4353243,91.1459884 C35.4353243,91.1459884 39.6307628,87.8902604 42.6572767,87.3491174 C45.6837907,86.8079745 48.5968317,87.7407609 50.4744615,87.7407609 C52.3520913,87.7407609 55.5378748,87.3491174 55.5378748,87.3491174" id="Line" stroke-width="0.7" stroke-linecap="round"></path>
                    <path d="M35.4353243,89.0789122 C35.4353243,89.0789122 39.6307628,85.8231841 42.6572767,85.2820412 C45.6837907,84.7408982 48.5968317,85.6736847 50.4744615,85.6736847 C52.3520913,85.6736847 55.1695053,85.2820412 55.1695053,85.2820412" id="Line" stroke-width="0.7" stroke-linecap="round"></path>
                    <path d="M35.4353243,87.011836 C35.4353243,87.011836 39.6307628,83.7561079 42.6572767,83.214965 C45.6837907,82.673822 47.7348506,83.5673126 49.9435296,83.5673126 C52.1522085,83.5673126 54.7384295,82.542356 54.7384295,82.542356" id="Line" stroke-width="0.7" stroke-linecap="round"></path>
                    <path d="M12.2442241,111.957443 C12.2442241,111.957443 16.7253194,108.907147 19.5325698,108.907147 C22.3398202,108.907147 26.7192055,107.057358 28.2362597,105.330084 C29.7533138,103.60281 35.3469649,102.157274 35.3469649,102.157274" id="Line" stroke-width="0.7" stroke-linecap="round" transform="translate(23.795594, 107.057358) scale(-1, 1) translate(-23.795594, -107.057358) "></path>
                    <path d="M12.734145,114.541288 C12.734145,114.541288 16.0762465,111.486891 20.0584007,111.185671 C24.0405549,110.884452 27.815324,109.107945 29.7140407,107.549058 C31.6127574,105.99017 35.3469649,104.918664 35.3469649,104.918664" id="Line" stroke-width="0.7" stroke-linecap="round" transform="translate(24.040555, 109.729976) scale(-1, 1) translate(-24.040555, -109.729976) "></path>
                    <path d="M12.734145,115.574826 C12.734145,115.574826 16.0762465,112.520429 20.0584007,112.219209 C24.0405549,111.91799 27.815324,110.141483 29.7140407,108.582596 C31.6127574,107.023708 35.3469649,105.952202 35.3469649,105.952202" id="Line" stroke-width="0.7" stroke-linecap="round" transform="translate(24.040555, 110.763514) scale(-1, 1) translate(-24.040555, -110.763514) "></path>
                    <path d="M12.734145,118.675441 C12.734145,118.675441 14.3355735,115.276635 20.077038,114.839337 C25.8185025,114.402038 28.3156941,112.175224 30.6411166,110.232369 C32.9665391,108.289514 35.3469649,109.052817 35.3469649,109.052817" id="Line" stroke-width="0.7" stroke-linecap="round" transform="translate(24.040555, 113.790237) scale(-1, 1) translate(-24.040555, -113.790237) "></path>
                    <path d="M12.3915021,121.334834 C12.3915021,121.334834 15.8031575,117.365924 21.544622,116.928625 C27.2860866,116.491327 27.9842202,115.5677 30.6094993,113.849752 C33.2347785,112.131805 35.6579905,111.340778 35.6579905,111.340778" id="Line" stroke-width="0.7" stroke-linecap="round" transform="translate(24.024746, 116.337806) scale(-1, 1) translate(-24.024746, -116.337806) "></path>
                    <path d="M12.9741802,124.435448 C12.9741802,124.435448 16.0167023,119.561964 21.7581668,119.124665 C27.4996314,118.687367 28.5668983,118.668314 31.1921774,116.950367 C33.8174566,115.232419 35.6579905,115.219202 35.6579905,115.219202" id="Line" stroke-width="0.7" stroke-linecap="round" transform="translate(24.316085, 119.827325) scale(-1, 1) translate(-24.316085, -119.827325) "></path>
                    <path d="M13.5549669,128.052832 C13.5549669,128.052832 19.0477946,122.946599 22.73583,122.208564 C26.4238654,121.470529 29.1134654,121.083362 31.7387445,119.365415 C34.3640237,117.647467 35.6579905,118.307721 35.6579905,118.307721" id="Line" stroke-width="0.7" stroke-linecap="round" transform="translate(24.606479, 123.117923) scale(-1, 1) translate(-24.606479, -123.117923) "></path>
                    <path d="M13.4141463,130.636677 C13.4141463,130.636677 18.906974,125.530445 22.5950095,124.79241 C26.2830449,124.054375 28.3201735,123.104186 30.410493,122.247335 C32.5008125,121.390483 35.6579905,120.872812 35.6579905,120.872812" id="Line" stroke-width="0.7" stroke-linecap="round" transform="translate(24.536068, 125.754744) scale(-1, 1) translate(-24.536068, -125.754744) "></path>
                    <path d="M12.9982556,133.220522 C12.9982556,133.220522 19.0023061,127.818609 22.3132037,126.737019 C25.6241013,125.655429 27.9042828,125.688032 29.9946023,124.83118 C32.0849218,123.974328 35.6579905,123.515811 35.6579905,123.515811" id="Line" stroke-width="0.7" stroke-linecap="round" transform="translate(24.328123, 128.368167) scale(-1, 1) translate(-24.328123, -128.368167) "></path>
                    <path d="M12.9982556,136.076535 C12.9982556,136.076535 19.7019949,130.312942 22.3306342,128.92354 C24.9592735,127.534139 27.9634938,126.72157 30.0538133,125.864718 C32.1441327,125.007866 35.7172015,124.549349 35.7172015,124.549349" id="Line" stroke-width="0.7" stroke-linecap="round" transform="translate(24.357729, 130.312942) scale(-1, 1) translate(-24.357729, -130.312942) "></path>
                    <path d="M12.5158177,138.66038 C12.5158177,138.66038 14.5602446,136.971096 16.8680915,135.139159 C19.1759384,133.307222 18.3663518,133.265878 21.7419678,131.488001 C25.1175838,129.710124 26.3139092,130.237706 29.6183457,128.91041 C32.9227822,127.583115 35.7172015,125.874559 35.7172015,125.874559" id="Line" stroke-width="0.7" stroke-linecap="round" transform="translate(24.116510, 132.267469) scale(-1, 1) translate(-24.116510, -132.267469) "></path>
                    <path d="M12.734145,118.675441 C12.734145,118.675441 14.3355735,115.276635 20.077038,114.839337 C25.8185025,114.402038 28.3156941,112.175224 30.6411166,110.232369 C32.9665391,108.289514 35.3469649,109.052817 35.3469649,109.052817" id="Line" stroke-width="0.7" stroke-linecap="round" transform="translate(24.040555, 113.790237) scale(-1, 1) translate(-24.040555, -113.790237) "></path>
                    <path d="M34.9177804,84.9447598 C34.9177804,84.9447598 39.1132189,81.6890317 42.1397329,81.1478888 C45.1662468,80.6067458 47.2173067,81.5002364 49.4259857,81.5002364 C51.6346647,81.5002364 54.2208856,80.4752797 54.2208856,80.4752797" id="Line" stroke-width="0.7" stroke-linecap="round"></path>
                    <path d="M34.9177804,82.8776836 C34.9177804,82.8776836 39.1132189,79.6219555 42.1397329,79.0808126 C45.1662468,78.5396696 47.2173067,79.4331602 49.4259857,79.4331602 C51.6346647,79.4331602 53.9917324,78.2238452 53.9917324,78.2238452" id="Line" stroke-width="0.7" stroke-linecap="round"></path>
                    <path d="M42.7346599,77.882853 C45.7611739,77.3417101 47.4678874,78.0178399 49.6765663,78.0178399 C51.8852453,78.0178399 53.8489495,76.6921717 53.8489495,76.6921717" id="Line" stroke-width="0.7" stroke-linecap="round"></path>
                    <path d="M47.9749049,75.9411941 C48.8641026,75.7674882 50.134074,76.3496518 51.0396666,76.1888615 C51.9452592,76.0280713 53.6241062,74.9375236 53.6241062,74.9375236" id="Line" stroke-width="0.7" stroke-linecap="round"></path>
                    <path d="M35.7265115,159.737606 C35.7265115,159.737606 39.7804261,157.579813 44.3623644,156.894412 C48.9443027,156.209011 49.530861,156.854603 51.5432944,156.209011 C53.5557278,155.563418 56.8948838,152.084461 56.8948838,152.084461" id="Line" stroke-width="0.7" stroke-linecap="round"></path>
                    <path d="M36.2440554,157.670529 C36.2440554,157.670529 40.29797,155.512737 44.8799083,154.827336 C49.4618466,154.141934 49.5089656,154.445007 51.6328735,153.852743 C53.7567815,153.260479 56.7328551,150.034957 56.7328551,150.034957" id="Line" stroke-width="0.7" stroke-linecap="round"></path>
                    <path d="M36.1419107,156.673037 C36.1419107,156.673037 41.0687609,154.013164 44.8799083,153.277029 C48.6910557,152.540894 49.4017847,152.834535 51.9621818,152.052518 C54.5225789,151.270501 56.5803782,148.40875 56.5803782,148.40875" id="Line" stroke-width="0.7" stroke-linecap="round"></path>
                    <path d="M36.6594546,154.605961 C36.6594546,154.605961 41.5863047,151.946087 45.3974522,151.209952 C49.2085996,150.473818 49.9193285,150.767459 52.4797257,149.985442 C55.0401228,149.203425 56.6783216,146.798483 56.6783216,146.798483" id="Line" stroke-width="0.7" stroke-linecap="round"></path>
                    <path d="M37.1769984,152.538885 C37.1769984,152.538885 42.1038486,149.879011 45.914996,149.142876 C49.7261434,148.406741 50.4368724,148.700383 52.9972695,147.918366 C55.5576666,147.136349 56.5779385,144.981568 56.5779385,144.981568" id="Line" stroke-width="0.7" stroke-linecap="round"></path>
                    <path d="M38.0394737,146.473156 C38.0394737,146.473156 40.1698853,143.217275 43.9810327,142.48114 C47.7921801,141.745006 49.0113058,142.147091 51.6659418,140.781238 C54.3205778,139.415385 57.0954824,136.713263 57.0954824,136.713263" id="Line" stroke-width="0.7" stroke-linecap="round"></path>
                    <path d="M12.5220539,145.773599 C12.5220539,145.773599 17.0228005,139.502279 21.8053283,138.305058 C26.5878561,137.107837 35.4896221,132.953257 35.4896221,132.953257" id="Line" stroke-width="0.7" stroke-linecap="round" transform="translate(24.005838, 139.363428) scale(-1, 1) translate(-24.005838, -139.363428) "></path>
                    <path d="M12.1290584,163.273363 C12.1290584,163.273363 16.0320422,154.709947 20.81457,153.512727 C25.5970978,152.315506 33.6287277,142.694591 33.6287277,142.694591" id="Line" stroke-width="0.7" stroke-linecap="round" transform="translate(22.878893, 152.983977) scale(-1, 1) translate(-22.878893, -152.983977) "></path>
                    <path d="M12.1457183,165.857208 C12.1457183,165.857208 15.8466896,156.414775 20.6292174,155.217554 C25.4117452,154.020334 33.1111839,142.876324 33.1111839,142.876324" id="Line" stroke-width="0.7" stroke-linecap="round" transform="translate(22.628451, 154.366766) scale(-1, 1) translate(-22.628451, -154.366766) "></path>
                    <path d="M12.4713041,168.596212 C12.4713041,168.596212 16.3866921,158.998621 21.1692199,157.8014 C25.9517477,156.604179 32.8080567,143.182159 32.8080567,143.182159" id="Line" stroke-width="0.7" stroke-linecap="round" transform="translate(22.639680, 155.889186) scale(-1, 1) translate(-22.639680, -155.889186) "></path>
                    <path d="M13.0439437,170.787828 C13.0439437,170.787828 14.807621,166.921429 18.5840083,164.433504 C23.5804019,161.761082 32.5326066,143.791239 32.5326066,143.791239" id="Line" stroke-width="0.7" stroke-linecap="round" transform="translate(22.788275, 157.289533) scale(-1, 1) translate(-22.788275, -157.289533) "></path>
                    <path d="M12.1244068,185.708533 C12.1244068,185.708533 18.0260538,180.874773 19.9959036,177.464091 C20.5557445,176.494758 21.7520312,173.974792 22.8934228,168.904834 C23.815466,162.436401 24.7653576,156.99049 24.9628903,155.349015 C25.3833509,151.855033 29.8181961,142.70533 29.8181961,142.70533" id="Line" stroke-width="0.7" stroke-linecap="round" transform="translate(20.971301, 164.206931) scale(-1, 1) translate(-20.971301, -164.206931) "></path>
                    <path d="M12.4747532,183.124688 C12.4747532,183.124688 16.9454599,179.146733 18.9591467,175.692302 C20.9728335,172.23787 21.6130476,170.358007 22.5537024,165.551882 C23.4943573,160.745757 24.9293416,155.10548 25.3327104,153.661959 C26.3103643,150.163266 30.33574,143.437321 30.33574,143.437321" id="Line" stroke-width="0.7" stroke-linecap="round" transform="translate(21.405247, 163.281004) scale(-1, 1) translate(-21.405247, -163.281004) "></path>
                    <path d="M13.3640977,177.440228 C13.3640977,177.440228 16.8660391,174.483833 18.8797259,171.029401 C20.8249108,167.692482 21.5771543,165.210712 23.2203129,161.12254 C24.8634715,157.034368 31.3708277,144.804851 31.3708277,144.804851" id="Line" stroke-width="0.7" stroke-linecap="round" transform="translate(22.367463, 161.122540) scale(-1, 1) translate(-22.367463, -161.122540) "></path>
                    <path d="M12.7196101,149.467236 C12.7196101,149.467236 16.8334777,142.020399 21.6160055,140.823178 C26.3985333,139.625957 35.1834473,132.882291 35.1834473,132.882291" id="Line" stroke-width="0.7" stroke-linecap="round" transform="translate(23.951529, 141.174763) scale(-1, 1) translate(-23.951529, -141.174763) "></path>
                    <path d="M12.7270337,152.138742 C12.7270337,152.138742 23.3867213,146.176127 25.5037973,141.41162 C27.6208733,136.647113 34.7770617,132.971338 34.7770617,132.971338" id="Line" stroke-width="0.7" stroke-linecap="round" transform="translate(23.752048, 142.555040) scale(-1, -1) rotate(82.000000) translate(-23.752048, -142.555040) "></path>
                    <path d="M11.9977899,152.623897 C11.9977899,152.623897 18.9674162,146.488725 22.4784527,141.887881 C25.9894892,137.287036 35.3360058,133.808981 35.3360058,133.808981" id="Line" stroke-width="0.7" stroke-linecap="round" transform="translate(23.666898, 143.216439) scale(-1, -1) rotate(82.000000) translate(-23.666898, -143.216439) "></path>
                    <path d="M10.3601956,153.847621 C10.3601956,153.847621 17.9732061,148.327997 21.4842426,143.727153 C24.9952791,139.126309 36.7458498,135.689997 36.7458498,135.689997" id="Line" stroke-width="0.7" stroke-linecap="round" transform="translate(23.553023, 144.768809) scale(-1, -1) rotate(82.000000) translate(-23.553023, -144.768809) "></path>
                    <path d="M38.0394737,125.896253 C38.0394737,125.896253 41.3457499,125.596138 45.0868475,123.092818 C48.8279451,120.589497 49.1420152,119.230956 51.5679969,117.266676 C53.9939785,115.302397 56.7141056,113.511594 56.7141056,113.511594" id="Line" stroke-width="0.7" stroke-linecap="round"></path>
                    <path d="M38.0394737,123.312407 C38.0394737,123.312407 41.3121928,123.032189 45.0532904,120.528868 C48.794388,118.025547 48.9850821,116.988794 51.4110638,115.024514 C53.8370455,113.060235 57.2137267,111.56916 57.2137267,111.56916" id="Line" stroke-width="0.7" stroke-linecap="round"></path>
                    <path d="M38.0394737,120.211793 C38.0394737,120.211793 41.5513229,120.650559 44.8979159,118.483579 C48.2445089,116.316599 49.9373727,113.741448 51.9816733,112.589672 C54.025974,111.437896 57.728266,109.403233 57.728266,109.403233" id="Line" stroke-width="0.7" stroke-linecap="round"></path>
                    <path d="M38.0394737,118.144717 C38.0394737,118.144717 41.4943505,118.144717 44.8979159,116.416503 C48.3014813,114.688288 49.4179981,112.411901 51.6729636,111.28107 C53.927929,110.15024 58.2538799,107.892205 58.2538799,107.892205" id="Line" stroke-width="0.7" stroke-linecap="round"></path>
                    <path d="M38.0394737,116.077641 C38.0394737,116.077641 41.4943505,116.077641 44.8979159,114.349426 C48.3014813,112.621212 47.8527691,112.134889 50.0211636,110.764787 C51.0832707,110.093694 52.6112331,108.44995 55.7636385,107.537791 C58.5433079,106.171396 58.5433079,105.276448 58.5433079,105.276448" id="Line" stroke-width="0.7" stroke-linecap="round"></path>
                    <path d="M38.0394737,114.010564 C38.0394737,114.010564 40.937299,114.055671 43.522136,112.731381 C46.106973,111.407091 46.8573699,110.155638 48.2178285,109.268373 C50.1602962,108.001533 52.0753672,107.360461 53.114473,107.039914 C54.1535787,106.719368 58.3961833,105.484204 58.3961833,105.484204" id="Line" stroke-width="0.7" stroke-linecap="round"></path>
                    <path d="M36.3988578,108.123304 L42.312552,106.832258 C42.312552,106.832258 45.7774796,105.862892 47.1379382,104.975627 C49.0804059,103.708787 50.2684185,102.690748 52.3357752,101.602932 C54.4031319,100.515116 59.6104164,100.260704 59.6104164,100.260704" id="Line" stroke-width="0.7" stroke-linecap="round" transform="translate(48.004637, 104.192004) scale(1, -1) rotate(49.000000) translate(-48.004637, -104.192004) "></path>
                    <path d="M37.5482271,107.540975 C37.5482271,107.540975 42.5455993,106.467931 44.9121,105.119319 C47.0256206,103.914873 50.0707617,101.311067 52.1381183,100.223251 C54.600921,98.6221609 58.3884663,97.7161304 58.3884663,97.7161304" id="Line" stroke-width="0.7" stroke-linecap="round" transform="translate(47.968347, 102.628552) scale(1, -1) rotate(49.000000) translate(-47.968347, -102.628552) "></path>
                    <path d="M10.1557635,99.4506503 C10.1557635,99.4506503 14.8855282,95.8507098 17.252029,94.502097 C19.6185298,93.1534843 21.4767832,92.415421 24.2277306,91.8315645 C26.9786781,91.247708 33.7537822,93.5834859 33.7537822,93.5834859" id="Line" stroke-width="0.7" stroke-linecap="round" transform="translate(21.954773, 95.594261) scale(-1, 1) rotate(12.000000) translate(-21.954773, -95.594261) "></path>
                    <path d="M10.7399161,103.154556 C10.7399161,103.154556 13.0751364,100.318197 17.2297979,97.9544438 C21.3844594,95.5906902 22.1801507,94.1924725 25.6573586,94.2352762 C29.1345664,94.27808 33.8020143,93.5784241 33.8020143,93.5784241" id="Line" stroke-width="0.7" stroke-linecap="round" transform="translate(22.270965, 98.366490) scale(-1, 1) rotate(12.000000) translate(-22.270965, -98.366490) "></path>
                    <path d="M11.2161918,107.679233 C11.2161918,107.679233 14.1477725,104.945445 18.4170908,103.382023 C22.5717523,101.018269 22.3986503,96.7656084 25.9194669,96.0183561 C29.4402835,95.2711038 33.7702134,93.5817615 33.7702134,93.5817615" id="Line" stroke-width="0.7" stroke-linecap="round" transform="translate(22.493203, 100.630497) scale(-1, 1) rotate(12.000000) translate(-22.493203, -100.630497) "></path>
                    <path d="M37.6381007,106.938138 C37.6381007,106.938138 42.6354728,105.865095 45.0019736,104.516482 C47.1154941,103.312037 48.8627295,101.536233 51.4981122,98.9047959 C54.1113513,97.0869471 57.5709446,95.7731231 57.5709446,95.7731231" id="Line" stroke-width="0.7" stroke-linecap="round" transform="translate(47.604523, 101.355631) scale(1, -1) rotate(45.000000) translate(-47.604523, -101.355631) "></path>
                    <path d="M38.5718819,106.605265 C38.5718819,106.605265 42.0181578,106.885875 44.7655297,104.735447 C47.6659802,102.455974 48.5585307,100.355293 51.1939133,97.7238561 C53.1647651,95.3295514 56.5256212,93.6095969 56.5256212,93.6095969" id="Line" stroke-width="0.7" stroke-linecap="round" transform="translate(47.548752, 100.113441) scale(1, -1) rotate(45.000000) translate(-47.548752, -100.113441) "></path>
                    <path d="M35.9801413,76.8013742 C35.9801413,76.8013742 38.8687191,74.8125288 41.1026892,73.388765 C43.3366593,71.9650012 44.0039249,72.1629414 46.6393076,69.5315041 C49.2746902,66.9000668 50.843534,62.5658162 50.843534,62.5658162" id="Line" stroke-width="0.7" stroke-linecap="round" transform="translate(43.411838, 69.683595) scale(1, -1) rotate(66.000000) translate(-43.411838, -69.683595) "></path>
                    <path d="M37.0413579,73.3007583 C37.0413579,73.3007583 39.4161214,72.6361517 41.894412,70.4698452 C44.3727026,68.3035388 45.0937204,67.8426002 46.5608671,65.2157099 C48.0280137,62.5888195 48.8075279,57.8762393 48.8075279,57.8762393" id="Line" stroke-width="0.7" stroke-linecap="round" transform="translate(42.924443, 65.588499) scale(1, -1) rotate(66.000000) translate(-42.924443, -65.588499) "></path>
                    <path d="M36.1103542,73.9363609 C36.1103542,73.9363609 38.3891885,72.9967149 40.931907,71.0914435 C43.4746254,69.1861721 43.6998936,68.8823782 45.683874,66.7628755 C47.6678544,64.6433727 49.7195182,59.3519487 49.7195182,59.3519487" id="Line" stroke-width="0.7" stroke-linecap="round" transform="translate(42.914936, 66.644155) scale(1, -1) rotate(66.000000) translate(-42.914936, -66.644155) "></path>
                    <path d="M35.5274152,77.3766026 C35.5274152,77.3766026 38.4944055,75.5995506 40.4743246,74.6030419 C42.4542437,73.6065332 44.4206947,72.5948449 46.4949072,70.6934557 C48.5691198,68.7920665 51.8397162,64.3225264 51.8397162,64.3225264" id="Line" stroke-width="0.7" stroke-linecap="round" transform="translate(43.683566, 70.849564) scale(1, -1) rotate(66.000000) translate(-43.683566, -70.849564) "></path>
                    <path d="M34.3505115,78.1508881 C34.3505115,78.1508881 41.2502423,74.9281214 43.4471753,73.9556794 C45.6441083,72.9832373 46.262987,71.0590536 47.7404194,69.7315845 C49.2178519,68.4041153 53.0814005,66.1012196 53.0814005,66.1012196" id="Line" stroke-width="0.7" stroke-linecap="round" transform="translate(43.715956, 72.126054) scale(1, -1) rotate(66.000000) translate(-43.715956, -72.126054) "></path>
                    <path d="M33.3711057,78.7120695 C33.3711057,78.7120695 40.4340329,75.5485339 42.6309659,74.5760919 C44.8278989,73.6036498 45.6304368,71.828711 47.1078693,70.5012418 C48.5853017,69.1737726 54.0550148,67.5369699 54.0550148,67.5369699" id="Line" stroke-width="0.7" stroke-linecap="round" transform="translate(43.713060, 73.124520) scale(1, -1) rotate(66.000000) translate(-43.713060, -73.124520) "></path>
                    <path d="M11.1283083,74.4863768 C11.1283083,74.4863768 15.1530205,74.2539369 19.1895896,72.0328837 C23.2261586,69.8118305 23.2304333,68.5487621 25.4666819,66.2135792 C27.7351729,64.2305535 30.3650131,62.3538161 30.3650131,62.3538161" id="Line" stroke-width="0.7" stroke-linecap="round" transform="translate(20.746661, 68.420096) scale(-1, -1) rotate(50.000000) translate(-20.746661, -68.420096) "></path>
                    <path d="M11.6217226,72.7451525 C11.6217226,72.7451525 15.6464349,72.5127127 19.6830039,70.2916595 C23.7195729,68.0706063 23.9813536,66.9862901 26.2176022,64.6511072 C28.4860932,62.6680815 29.9227863,61.2011398 29.9227863,61.2011398" id="Line" stroke-width="0.7" stroke-linecap="round" transform="translate(20.772254, 66.973146) scale(-1, -1) rotate(43.000000) translate(-20.772254, -66.973146) "></path>
                    <path d="M12.8597568,71.7934498 C12.8597568,71.7934498 14.2176088,69.5022463 18.2541779,67.2811931 C22.2907469,65.0601399 22.4827483,63.7833982 24.2926305,61.1480836 C26.291195,58.6124024 27.7273304,57.2468125 27.7273304,57.2468125" id="Line" stroke-width="0.7" stroke-linecap="round" transform="translate(20.293544, 64.520131) scale(-1, -1) rotate(43.000000) translate(-20.293544, -64.520131) "></path>
                    <path d="M13.5598936,71.4161397 C13.5598936,71.4161397 16.6860078,68.5013856 19.1249348,66.7410458 C21.6326736,64.8840657 22.8596747,62.4936935 23.4153457,61.6994218 C23.9710168,60.9051502 26.7780316,55.5629466 26.7780316,55.5629466" id="Line" stroke-width="0.7" stroke-linecap="round" transform="translate(20.168963, 63.489543) scale(-1, -1) rotate(43.000000) translate(-20.168963, -63.489543) "></path>
                    <path d="M20.996893,64.145549 C20.996893,64.145549 24.4132453,60.610236 28.3132798,56.6245574" id="Line" stroke-width="0.7" stroke-linecap="round" transform="translate(24.655086, 60.385053) scale(-1, -1) rotate(43.000000) translate(-24.655086, -60.385053) "></path>
                    <path d="M27.8531635,41.8045322 C27.8531635,41.8045322 32.0947586,40.8853857 34.4959075,39.6947859 C36.8970564,38.5041862 37.6389112,37.3889494 39.7535829,36.4948146 C41.8682546,35.6006798 44.3218636,35.230231 44.3218636,35.230231" id="Line" stroke-width="0.7" stroke-linecap="round" transform="translate(36.087514, 38.517382) scale(1, -1) rotate(66.000000) translate(-36.087514, -38.517382) "></path>
                    <path d="M29.0215467,41.0583478 C29.0215467,41.0583478 33.0802183,40.47666 35.4813672,39.2860603 C37.8825162,38.0954605 38.7667461,37.5895481 40.3290269,35.8725586 C41.8913076,34.155569 42.1220899,31.8513022 42.1220899,31.8513022" id="Line" stroke-width="0.7" stroke-linecap="round" transform="translate(35.571818, 36.454825) scale(1, -1) rotate(66.000000) translate(-35.571818, -36.454825) "></path>
                    <path d="M10.8306618,32.6754811 C10.8306618,32.6754811 14.1816908,32.3124299 16.8626989,30.3634655 C19.7878466,28.2711461 21.7216543,23.2698638 21.7216543,23.2698638" id="Line" stroke-width="0.7" stroke-linecap="round" transform="translate(16.276158, 27.972672) scale(-1, -1) rotate(21.000000) translate(-16.276158, -27.972672) "></path>
                    <path d="M11.4846122,33.5440994 C11.4846122,33.5440994 13.7918339,32.50032 16.472842,30.5513557 C19.3979897,28.4590363 21.6436249,23.8122721 21.6436249,23.8122721" id="Line" stroke-width="0.7" stroke-linecap="round" transform="translate(16.564119, 28.678186) scale(-1, -1) rotate(31.000000) translate(-16.564119, -28.678186) "></path>
                    <path d="M11.7890039,35.131253 C11.7890039,35.131253 13.3307898,34.2245138 14.6604021,33.2228372 C15.9900145,32.2211606 16.8559803,31.3436145 18.314796,29.5560476 C21.3486676,25.8384784 21.7397572,24.5707992 21.7397572,24.5707992" id="Line" stroke-width="0.7" stroke-linecap="round" transform="translate(16.764381, 29.851026) scale(-1, -1) rotate(42.000000) translate(-16.764381, -29.851026) "></path>
                    <path d="M11.4336807,35.5390209 C11.4336807,35.5390209 15.6641733,33.7479759 17.122989,31.960409 C20.1568606,28.2428399 22.8017248,26.6187276 22.8017248,26.6187276" id="Line" stroke-width="0.7" stroke-linecap="round" transform="translate(17.117703, 31.078874) scale(-1, -1) rotate(42.000000) translate(-17.117703, -31.078874) "></path>
                    <path d="M19.0162624,34.5018116 C19.0162624,34.5018116 23.0538631,33.1813245 24.5126789,31.3937576" id="Line" stroke-width="0.7" stroke-linecap="round" transform="translate(21.764471, 32.947785) scale(-1, -1) rotate(42.000000) translate(-21.764471, -32.947785) "></path>
                    <path d="M28.622772,41.1997605 C28.622772,41.1997605 32.7191087,40.9448177 35.1202576,39.754218 C37.5214066,38.5636182 38.4164268,37.6728386 39.6913347,36.4734318 C40.9662427,35.2740251 43.0045618,33.1649771 43.0045618,33.1649771" id="Line" stroke-width="0.7" stroke-linecap="round" transform="translate(35.813667, 37.182369) scale(1, -1) rotate(66.000000) translate(-35.813667, -37.182369) "></path>
                    <path d="M28.1128039,41.5674354 C28.1128039,41.5674354 32.3137147,41.0760528 34.7148636,39.8854531 C37.1160125,38.6948533 37.8561379,38.0700498 39.1296468,37.1008587 C40.4031557,36.1316677 43.7750309,34.3826482 43.7750309,34.3826482" id="Line" stroke-width="0.7" stroke-linecap="round" transform="translate(35.943917, 37.975042) scale(1, -1) rotate(66.000000) translate(-35.943917, -37.975042) "></path>
                    <path d="M38.0394737,142.011529 C38.0394737,142.011529 40.1827617,139.10992 44.176699,138.342845 C46.5977068,137.787428 47.6851843,138.342845 50.00407,138.342845 C56.5367141,137.571471 57.3308949,136.553323 57.3308949,136.553323" id="Line" stroke-width="0.7" stroke-linecap="round"></path>
                    <path d="M38.2982456,131.549854 C38.2982456,131.549854 40.8726647,128.57907 44.485461,127.6527 C46.6855373,127.099164 48.3533187,127.135868 50.7570771,128.243237 C52.841653,129.36215 54.6303337,130.83468 55.8188094,131.549854 C57.007285,132.265029 57.4488069,132.127801 57.4488069,132.127801" id="Line" stroke-width="0.7" stroke-linecap="round"></path>
                    <path d="M38.2982456,133.61693 C38.2982456,133.61693 40.7861627,130.389708 44.3989591,129.463338 C46.5990353,128.909802 48.3533187,129.202944 50.7570771,130.310313 C51.9610551,131.055988 53.5372857,131.871262 54.8430906,132.136978 C56.1488956,132.402694 57.4488711,132.136978 57.4488711,132.136978" id="Line" stroke-width="0.7" stroke-linecap="round"></path>
                    <path d="M38.2982456,135.684007 C38.2982456,135.684007 42.6851955,131.581819 44.283913,131.081845 C46.7582742,130.078218 48.3758251,130.734412 50.7005604,131.805377 C51.267391,132.156439 52.9648485,133.114375 54.3933385,133.115721 C55.8218285,133.117067 57.5149429,132.289034 57.5149429,132.289034" id="Line" stroke-width="0.7" stroke-linecap="round"></path>
                    <path d="M37.6945423,149.955039 C37.6945423,149.955039 39.8922815,147.817904 43.703429,147.081769 C47.5145764,146.345634 49.6747559,146.18771 49.6747559,146.18771" id="Line" stroke-width="0.7" stroke-linecap="round"></path>
                    <path d="M34.2726077,175.185125 C34.2726077,175.185125 34.317868,172.542258 34.6190124,169.555408 C34.9201568,166.568558 35.5333528,161.863436 35.8685005,159.351215 C36.5091496,154.548996 37.6564949,149.014853 37.6564949,149.014853 C37.6564949,149.014853 39.3837799,146.180699 43.271638,145.570554 C47.159496,144.960409 50.4817449,146.958156 53.0751012,146.384688 C55.3616444,145.514457 55.9251398,145.210307 55.9251398,145.210307 C56.4209259,144.980563 56.778847,145.245164 56.742823,145.785594 C56.742823,145.785594 56.5398271,146.938962 56.8228399,151.062192 C57.1058528,155.185422 57.5421293,154.608854 57.5421293,159.656509 C57.2354768,161.834144 56.4708196,164.163778 56.2902241,165.536353 C56.1096285,166.908928 56.2338241,168.2037 56.2338241,168.2037 C56.2649729,168.755748 55.8841725,169.406062 55.3886465,169.648539 C55.3886465,169.648539 51.8680347,171.451415 49.668446,171.981987 C46.9516213,172.301946 44.3235727,171.447502 40.9753164,171.981987 C37.6564949,172.521406 34.2726077,175.185125 34.2726077,175.185125 Z" id="Path-4" stroke-width="0.7"></path>
                    <path d="M9.02774289,141.061906 C9.02774289,141.061906 9.07300318,138.419038 9.37414755,135.432188 C9.67529192,132.445338 10.288488,127.740217 10.6236357,125.227995 C11.2642848,120.425776 12.7898231,108.232172 12.7898231,108.232172 C12.7898231,108.232172 13.4749553,107.283525 16.835129,106.716187 C20.1953026,106.148849 20.6377554,107.115261 23.1630988,106.408862 C25.6884421,105.702464 27.5352245,103.640798 30.1801908,102.531483 C32.825157,101.422167 37.1943414,100.664462 37.1943414,100.664462 C37.7364684,100.562291 37.9471979,100.861687 37.6703349,101.350831 C37.6703349,101.350831 36.2981571,103.47 35.6961538,106.235436 C35.0941506,109.000873 35.9362457,110.82027 35.3188639,113.417664 C33.9508383,119.1731 33.6686626,116.641439 33.405543,120.720409 C33.1424234,124.79938 33.8807673,127.131205 33.8807673,127.131205 C34.1170082,128.207701 33.5836824,129.606302 32.657781,130.223452 C32.657781,130.223452 30.9306002,131.702691 27.625029,132.616012 C24.3194578,133.529333 21.0380766,132.712741 18.8955728,133.728156 C16.4094997,134.906402 14.2863168,137.859507 12.3024391,139.535193 C10.3185614,141.210879 9.02774289,141.061906 9.02774289,141.061906 Z" id="Path-4" stroke-width="0.7" transform="translate(23.409913, 120.854903) scale(-1, 1) rotate(-6.000000) translate(-23.409913, -120.854903) "></path>
                    <path d="M36.3698619,99.6570669 L34.7678399,82.3442098 C34.7678399,82.3442098 40.2960113,79.0028517 41.535669,78.3411881 C42.7753266,77.6795246 44.7983235,77.6072379 45.9865624,76.9854417 C49.8504739,74.9634866 52.5294769,73.1569939 52.5294769,73.1569939 C52.9911707,72.8561265 53.4211733,73.0483939 53.4946157,73.6135152 C53.4946157,73.6135152 54.5438049,81.9848875 55.4925627,86.2284426 C56.4413205,90.4719977 57.8576306,93.5347645 57.8576306,93.5347645 C58.0719479,94.0348816 57.8151869,94.557064 57.2831176,94.6987052 C57.2831176,94.6987052 54.0854248,95.5867994 51.8858362,95.9405741 C49.1690114,96.1539165 46.5094878,95.9102365 43.1612315,96.2666201 C39.84241,96.6262936 36.3698619,99.6570669 36.3698619,99.6570669 Z" id="Path-4" stroke-width="0.7"></path>
                    <path d="M11.5923894,97.0172347 L9.36241495,76.4678137 C9.36241495,76.4678137 14.1401926,70.7897784 17.7836593,70.0826205 C21.427126,69.3754626 29.4935536,72.4587264 29.4935536,72.4587264 C30.0133876,72.6475181 30.4719281,73.2463398 30.520426,73.7894543 C30.520426,73.7894543 30.8139627,77.6624217 31.3768425,79.9761974 C31.9397224,82.2899731 33.2447612,85.1007745 33.2447612,85.1007745 C33.4681335,85.6049991 33.2202358,86.132834 32.6913152,86.2799941 C32.6913152,86.2799941 24.7148375,88.4884487 20.2358851,89.8449409 C16.3077058,91.8045905 11.5923894,97.0172347 11.5923894,97.0172347 Z" id="Path-4" stroke-width="0.7" transform="translate(21.344658, 83.497235) scale(-1, 1) rotate(11.000000) translate(-21.344658, -83.497235) "></path>
                    <path d="M33.1721974,65.3847919 L29.9608401,46.3316817 C29.9608401,46.3316817 33.4216667,43.1947228 36.0826264,42.0031115 C37.9097985,41.1848808 40.7281079,41.1367145 42.3416836,40.7959581 C43.9552593,40.4552016 44.2549641,39.9178274 44.2549641,39.9178274 C44.6674275,39.5563279 45.1063778,39.6963091 45.2363255,40.2301617 C45.2363255,40.2301617 46.6963539,46.3316817 47.8138851,50.0133527 C48.9314163,53.6950238 49.5382456,53.6836098 49.5382456,53.6836098 C49.9322574,54.0613797 50.0537371,54.7786367 49.7962297,55.2671941 C49.7962297,55.2671941 48.911561,57.3886881 46.9566781,58.7698655 C46.1443815,59.3437749 43.1608839,59.3862091 40.050087,60.8371034 C36.9392901,62.2879978 33.1721974,65.3847919 33.1721974,65.3847919 Z" id="Path-4" stroke-width="0.7"></path>
                    <path d="M12.8186978,62.5197972 C12.8186978,62.5197972 10.8467399,52.5889581 10.0893946,47.5832679 C9.33204938,42.5775777 9.46777402,40.3717921 9.46777402,40.3717921 C9.46777402,40.3717921 12.1498241,37.1474247 14.1414617,35.9100646 C16.1330993,34.6727045 21.9233787,32.423274 21.9233787,32.423274 C22.4374552,32.2199403 22.9272105,32.505337 23.0206554,33.0448368 C23.0206554,33.0448368 23.3048811,35.0216644 24.1086485,37.9533228 C24.912416,40.8849812 25.4308246,44.5931336 25.9850642,46.4190582 C27.1025954,50.1007293 28.6967186,52.587261 28.6967186,52.587261 C28.9702799,53.0528859 28.7935391,53.6255026 28.3009151,53.8664723 C28.3009151,53.8664723 21.9408593,56.98509 18.8300624,58.4359843 C15.7192655,59.8868786 12.8186978,62.5197972 12.8186978,62.5197972 Z" id="Path-4" stroke-width="0.7" transform="translate(19.141868, 47.438668) scale(-1, 1) rotate(20.000000) translate(-19.141868, -47.438668) "></path>
                    <path d="M28.3994238,38.5206255 C28.3994238,38.5206255 27.1220011,33.5077141 26.4714661,30.1318501 C25.8209312,26.7559862 24.3692405,21.1104931 24.3692405,21.1104931 C24.3692405,21.1104931 28.2409756,16.6532599 30.3582085,15.0312379 C32.4754415,13.409216 33.0742828,13.5728591 33.0742828,13.5728591 C33.6134608,13.465509 34.2976961,13.761222 34.5903114,14.220615 C34.5903114,14.220615 36.0098545,16.3783301 36.6686601,17.8015314 C37.0163453,18.5526273 37.3376636,20.8454514 38.0394737,22.663051 C38.7412838,24.4806506 39.326924,25.1653728 39.326924,25.1653728 C39.6340696,25.6143458 39.5282204,26.2351362 39.0773543,26.5652871 C39.0773543,26.5652871 34.8230101,29.6029233 33.1087488,31.4752226 C31.3944876,33.3475219 28.3994238,38.5206255 28.3994238,38.5206255 Z" id="Path-4" stroke-width="0.7"></path>
                    <path d="M9.31137636,26.5133223 L7.55902931,14.7695416 C7.55902931,14.7695416 10.0311945,14.1681407 11.0427764,13.3641236 C12.0543584,12.5601065 13.7537984,10.1759334 13.7537984,10.1759334 C14.0777915,9.73612935 14.7449164,9.55973261 15.2504385,9.80109112 C15.2504385,9.80109112 17.2795068,10.6092198 19.0203271,12.2759446 C20.7611474,13.9426695 20.925767,15.5360844 21.2292624,16.3220995 C21.9310725,18.1396991 21.6032287,17.2796216 21.6032287,17.2796216 C21.8149433,17.7844531 21.6783229,18.514759 21.2883565,18.9209887 C21.2883565,18.9209887 18.3795397,21.9502089 18.2562325,22.0848838 C16.5419713,23.957183 9.31137636,26.5133223 9.31137636,26.5133223 Z" id="Path-4" stroke-width="0.7" transform="translate(14.630807, 18.102887) scale(-1, 1) rotate(22.000000) translate(-14.630807, -18.102887) "></path>
                </g>
            </g>
        </g>
    </g>
</svg>