<?xml version="1.0" encoding="UTF-8"?>
<svg width="1262px" height="210px" viewBox="0 0 1262 210" version="1.1" xmlns="http://www.w3.org/2000/svg" xmlns:xlink="http://www.w3.org/1999/xlink">
    <!-- Generator: Sketch 41.2 (35397) - http://www.bohemiancoding.com/sketch -->
    <title>Leaf</title>
    <desc>Created with Sketch.</desc>
    <defs></defs>
    <g id="Page-1" stroke="none" stroke-width="1" fill="none" fill-rule="evenodd">
        <g id="Desktop-Landscape" transform="translate(0.000000, -90.000000)" fill="#000000">
            <g id="Leaf" transform="translate(604.471696, 202.008359) rotate(90.000000) translate(-604.471696, -202.008359) translate(439.971696, -459.991641)">
                <g id="Layer_1" transform="translate(0.000000, 92.000000)">
                    <g id="Group" transform="translate(-0.000000, 0.000000)">
                        <path d="M188.317463,1084.29061 C183.623276,1084.29061 178.929089,1084.21105 174.234902,1084.37017 C173.518839,1084.37017 172.643652,1085.72274 172.325402,1086.59792 C170.01809,1093.28117 164.92609,1097.02061 158.879341,1099.64617 C145.910654,1105.29511 132.464593,1108.23892 118.382031,1105.37467 C115.597344,1104.81773 112.892219,1103.54473 110.505345,1102.03305 C108.038907,1100.36223 108.834532,1098.21405 111.221407,1097.17973 C123.792281,1091.68992 136.283592,1085.96142 149.093154,1081.10811 C153.707779,1079.35774 159.197591,1079.75555 164.28959,1079.51686 C169.938527,1079.27817 175.507902,1079.4373 182.191151,1079.4373 C179.247339,1078.00517 177.099152,1076.8913 174.871402,1075.93655 C169.779402,1073.78836 164.60784,1071.64017 159.515841,1069.49199 C152.434779,1066.54817 145.592404,1067.42336 138.829592,1070.5263 C137.238342,1071.24236 135.328843,1071.87886 133.737593,1071.56061 C131.509843,1071.08324 128.884281,1070.20805 129.600343,1066.86642 C130.316405,1063.5248 132.623718,1063.04742 135.647093,1063.36567 C138.75003,1063.68392 141.852967,1063.60436 144.955904,1063.68392 C145.512842,1063.68392 146.069779,1063.28611 147.581467,1062.72917 C141.693842,1059.38755 138.590905,1053.42036 131.668968,1052.94299 C127.929531,1052.7043 125.303968,1048.72618 126.179156,1045.14586 C126.417843,1044.35024 127.293031,1043.39549 128.168218,1042.99768 C133.180655,1040.76993 137.954405,1043.63418 138.511342,1049.12399 C138.590905,1049.84005 138.909155,1050.7948 139.466092,1051.11305 C143.125967,1053.81818 146.944967,1056.5233 150.684404,1059.14886 C152.434779,1060.3423 154.185154,1061.45617 156.015091,1062.57005 C158.322403,1064.00217 160.709278,1065.35474 163.01659,1066.7073 C163.255278,1066.46861 163.493965,1066.22992 163.65309,1065.99124 C162.459653,1063.92261 160.868403,1061.93355 160.072778,1059.7058 C158.720216,1055.56855 157.367653,1051.35174 156.890278,1047.05536 C156.651591,1044.74805 158.561091,1042.59986 161.584465,1042.75899 C164.448715,1042.91811 165.88084,1044.58893 166.19909,1047.21449 C166.358215,1048.40793 166.19909,1049.60136 166.19909,1051.03349 C161.902715,1052.14736 162.459653,1055.72768 164.050903,1058.11455 C167.233402,1062.8883 170.893277,1067.50292 175.269214,1071.1628 C178.213027,1073.7088 182.588964,1074.74311 186.487526,1075.93655 C192.37515,1077.68692 198.342337,1079.67599 204.468649,1080.31249 C211.708836,1081.02855 219.108148,1080.31249 226.427898,1080.23292 C227.14396,1080.23292 227.860023,1079.75555 229.928647,1079.11905 C226.587023,1076.81174 224.27971,1074.82267 221.654148,1073.31099 C216.243899,1070.12849 210.117587,1067.82117 205.423399,1063.92261 C201.365712,1060.58099 198.74015,1055.56855 195.796338,1051.03349 C195.159838,1050.07874 195.796338,1048.01011 196.432838,1046.73711 C196.751088,1046.18018 198.74015,1046.02105 199.615337,1046.41886 C205.025587,1048.64661 210.356274,1051.11305 215.766524,1053.42036 C222.449773,1056.20505 227.14396,1061.29705 230.565147,1067.3438 C232.713335,1071.08324 233.270272,1075.69786 234.78196,1080.55117 L259.844145,1080.55117 C259.844145,1082.54024 260.32152,1084.13149 259.68502,1085.00667 C259.207645,1085.64317 257.298145,1085.48405 256.104708,1085.48405 C246.716334,1085.1658 237.407522,1084.60886 228.019148,1084.5293 C219.028586,1084.44974 210.038024,1084.13149 201.127025,1085.1658 C196.83065,1085.64317 192.852525,1088.74611 188.874401,1090.97386 C187.919651,1091.5308 186.964901,1093.67898 187.283151,1094.63373 C189.908713,1102.3513 186.487526,1108.15936 181.395526,1113.09223 C176.223964,1118.02511 170.33634,1122.56017 162.69834,1122.40104 C160.231903,1122.32148 156.810716,1121.44629 155.537716,1119.69592 C154.662528,1118.42292 156.174216,1114.92217 157.367653,1112.77398 C162.300528,1103.70386 171.131965,1098.93011 179.406464,1093.51986 C182.748089,1091.37167 185.612338,1088.3483 188.715276,1085.8023 C188.715276,1085.08624 188.476588,1084.68842 188.317463,1084.29061 Z M160.391028,1117.78642 C163.732653,1117.14992 166.756028,1117.14992 169.222465,1116.03605 C179.247339,1111.58055 181.713776,1108.00023 183.464151,1096.78192 C174.155339,1099.8053 163.255278,1109.27323 160.391028,1117.78642 Z" id="Shape"></path>
                        <path d="M209.27896,174.425623 C203.514108,167.803834 198.450387,162.194789 193.620376,156.352034 C190.893757,153.080091 190.660046,149.262824 192.062308,145.28975 C192.841342,143.108455 194.087796,142.485228 196.269091,143.809585 C198.606194,145.211847 201.021199,146.302494 203.514108,147.393142 C209.980091,150.119761 213.329937,155.105579 214.420585,161.805272 C214.576392,162.584306 214.732198,163.36334 214.965909,164.064471 C218.082045,173.412879 218.082045,173.412879 228.209487,173.568686 C235.532407,173.724493 242.933231,173.8803 250.256151,174.036106 C251.502605,174.036106 253.060673,174.036106 253.995514,174.659334 C255.008259,175.282561 255.943099,176.606919 256.021003,177.77547 C256.098906,178.320794 254.229225,179.645152 253.294384,179.645152 C250.489861,179.645152 247.685339,178.788214 244.880816,178.866118 C233.818533,179.099828 222.678346,179.800958 211.616062,179.878862 C201.72233,179.956765 192.919245,183.384515 184.349871,187.591299 C182.480189,188.448236 181.155831,190.629532 179.831473,192.343407 C176.481627,196.472287 173.13178,200.445361 167.444832,201.536008 C163.393855,202.315042 159.498684,203.795207 155.447707,204.730048 C154.045446,205.041661 152.565281,204.574241 151.085117,204.496338 C151.39673,203.17198 151.240924,201.536008 152.019958,200.601167 C156.849969,194.758412 161.524173,188.837753 169.70403,186.968072 C174.689848,185.877424 179.441956,183.774032 184.349871,182.060157 C184.271967,181.514833 184.11616,180.891606 184.038257,180.346282 C180.298893,180.346282 176.481627,179.956765 172.742263,180.424186 C165.34144,181.359026 159.031264,178.788214 152.331571,176.139498 C147.968981,174.425623 142.593646,174.036106 137.997345,174.737237 C131.297652,175.749981 125.29909,174.425623 120.391175,170.530453 C117.664556,168.349158 116.418102,164.142374 115.01584,160.636721 C114.78213,160.013494 117.197136,157.208971 118.131977,157.364778 C126.623448,158.455425 135.114919,159.70188 143.450583,161.649465 C146.099299,162.272692 148.202691,165.077215 150.539793,166.946897 C151.864151,168.037544 153.032702,169.283999 154.279156,170.374646 C154.746577,170.140936 155.291901,169.829323 155.759321,169.595612 C155.05819,166.79109 154.434963,163.908664 153.655929,161.104141 C152.487378,156.819454 150.306083,152.61267 152.409475,148.094273 C154.746577,143.108455 156.849969,137.96683 159.576588,133.136819 C160.355622,131.656654 162.770627,131.11133 164.406599,130.17649 C164.951923,131.734558 165.57515,133.370529 165.886764,135.006501 C166.276281,136.642472 166.04257,138.43425 166.587894,139.914415 C169.626127,147.393142 168.301769,153.781221 162.692724,159.70188 C159.810298,162.818016 160.277718,170.608357 163.393855,172.867555 C165.10773,174.11401 167.600639,175.048851 169.70403,174.970947 C180.376797,174.893044 191.127467,174.503527 201.800233,174.269817 C203.825722,174.425623 206.08492,174.425623 209.27896,174.425623 Z" id="Shape"></path>
                        <path d="M183.354893,61.6557097 C167.471442,60.709014 152.955441,64.1802317 138.544628,67.6514493 C128.025787,70.1759713 117.612134,73.1212469 106.988104,75.7509572 C104.042829,76.4872761 102.990944,77.6443487 102.780568,81.0103779 C102.570191,84.7971609 100.781988,88.5839438 98.9937847,91.949973 C98.3626542,93.0018572 94.8914365,93.7381761 93.5239871,93.0018572 C92.2617261,92.2655383 91.5254072,89.5306395 91.6305957,87.7424365 C91.7357841,85.4282913 92.998045,83.2193346 93.9447408,80.0636822 C86.3711749,83.0089578 79.6391164,85.7438566 72.8018695,88.1631901 C68.3839561,89.7410163 63.8608543,91.424031 59.3377525,92.0551614 C57.444361,92.2655383 55.1302159,89.8462047 53.131636,88.6891322 C54.7094622,87.111306 56.0769116,84.4815956 57.9703031,83.9556535 C63.6504775,82.4830157 69.5410287,81.9570737 75.221203,80.8000011 C79.9546817,79.8533054 84.4777835,78.3806676 90.1579579,76.8028414 C85.108914,74.8042615 81.2169426,73.8575658 77.9561018,71.7537975 C76.3782756,70.8071018 76.0627103,67.8618262 75.1160146,65.7580579 C77.1145945,65.1269274 79.2183628,63.6542896 81.0065658,63.9698548 C87.2126823,65.021739 92.8928566,67.1255073 95.522567,73.9627542 C116.770627,68.8085219 138.018686,63.759478 159.477123,58.5000573 C159.056369,57.65855 158.951181,56.9222311 158.635616,56.8170427 C143.06773,52.5043177 129.498425,42.6166067 112.983844,40.0920848 C105.831032,39.0402006 99.2041615,34.4119104 92.472103,31.3614464 C89.947581,30.2043738 87.3178707,29.0473013 85.2141024,27.2590982 C82.05845,24.7345763 78.6924207,21.9996775 76.5886524,18.7388367 C74.695261,15.7935611 76.3782756,13.6897928 80.2702469,13.2690391 C87.2126823,12.5327202 92.998045,15.3728074 98.573031,18.6336483 C107.619235,24.1034458 116.455061,30.2043738 125.396077,35.9897366 C131.391816,39.881708 137.387556,43.6684909 143.383295,47.5604622 C143.804049,47.0345201 144.224803,46.6137665 144.645556,46.0878244 C142.331411,41.0387805 140.017266,36.094925 137.80831,31.0458812 C135.178599,25.2605184 132.338512,19.4751556 130.234744,13.479416 C129.393236,11.0600824 129.498425,7.90443001 130.234744,5.27471966 C130.760686,3.17095137 132.548889,0.22567577 134.126715,0.0152989415 C135.80973,-0.195077887 139.070571,1.80350198 139.701701,3.59170503 C143.06773,13.0586623 148.432339,21.8944891 146.644136,32.7288958 C145.381875,40.5128384 151.587992,49.0331 158.425239,52.3991293 C169.259645,57.8689268 180.304429,54.9236512 191.349212,54.9236512 C210.703881,54.9236512 230.058549,55.4495933 249.413217,56.0807238 C250.675478,56.0807238 251.937739,58.3948689 253.2,59.6571298 C251.622174,60.4986372 250.044348,62.1816518 248.57171,62.1816518 C232.898636,61.5505213 217.225562,60.4986372 201.4473,59.9726951 C194.715242,59.7623183 188.509125,61.5505213 183.880835,67.4410725 C180.830371,71.3330438 176.622834,74.3835078 172.836051,77.7495371 C182.618574,86.3749871 179.357733,100.996177 173.361994,109.41125 C169.890776,114.355105 153.586572,119.088584 148.327151,116.248497 C147.275267,115.722555 146.223383,113.829163 146.328571,112.672091 C147.590832,99.4183504 154.007325,88.2683785 162.737964,78.8014212 C167.997384,73.1212469 175.045008,69.2292755 181.251125,64.4957969 C181.777067,63.759478 182.303009,62.9179707 183.354893,61.6557097 Z" id="Shape"></path>
                    </g>
                </g>
                <g id="Group-2" transform="translate(259.000000, 662.000000) rotate(-90.000000) translate(-259.000000, -662.000000) translate(-403.000000, 592.500000)">
                    <g id="tree" transform="translate(662.264284, 69.219942) scale(-1, 1) rotate(-267.000000) translate(-662.264284, -69.219942) translate(627.764284, -591.280058)">
                        <g id="Scan_xA0_Image_1_" transform="translate(-0.000000, 0.000000)">
                            <g id="Group" transform="translate(-0.000000, 0.000000)">
                                <path d="M0.0513541973,0.920833709 C0.0513541973,0.920833709 1.8554246,-1.72803994 2.43142283,1.99775979 C3.00742106,5.72355951 4.1090652,27.1678217 4.1090652,27.1678217 C4.1090652,27.1678217 5.35338941,50.3377296 6.37799066,71.5720025 C6.57040437,75.5596662 7.26790623,78.6941059 7.41627269,81.9796957 C7.56463915,85.2652856 7.85785857,104.371504 8.77032153,105.850291 C9.09432418,107.945712 8.71812093,111.887862 9.04212358,114.132956 C9.04212358,117.725106 9.2041249,119.9702 9.69012887,122.065621 C10.0141315,123.712023 10.0141315,125.508098 9.85213019,127.1545 C10.3381342,132.243379 9.85213019,135.386511 10.1761328,138.529642 C9.85213019,143.618521 9.52812755,146.911326 9.2041249,150.054457 C9.04212358,152.299551 8.88012225,154.694318 8.55611961,156.939411 C8.39411829,158.585813 8.07011564,160.381889 7.74611299,162.028291 C6.28810109,167.566189 5.47809447,173.25376 4.66808786,178.941331 C4.02008257,182.9825 4.02008257,187.023669 4.02008257,191.064837 C4.02008257,194.357642 4.18208389,197.650446 3.85808124,200.94325 C4.02008257,203.787036 4.34408521,205.882457 4.50608654,208.12755 C4.66808786,212.019046 4.83008918,212.917084 4.83008918,213.665449 C5.15409183,216.209888 5.47809447,218.754328 5.80209712,221.44844 C6.12609977,226.237974 6.28810109,228.034049 6.77410506,229.830124 C6.93610638,233.422274 7.0981077,234.76933 7.58411167,236.116387 C7.26010903,241.803958 8.07011564,245.845127 8.07011564,249.736623 C8.07011564,251.832043 8.39411829,253.777791 8.55611961,255.873212 C8.71812093,259.315689 9.04212358,262.608494 9.2041249,266.050971 C9.36612622,270.09214 10.0141315,274.133309 10.1761328,278.174478 C10.3381342,283.263357 10.9861395,288.352236 11.4721434,293.441116 C11.9581474,298.829341 12.768154,304.367239 13.254158,309.755464 C13.5781606,313.497287 14.0641646,317.23911 14.2261659,320.980933 C14.5501686,326.219485 14.5501686,331.308365 14.8741712,336.546917 C14.3881672,340.887432 14.3881672,343.282198 14.0641646,345.527292 C14.0641646,348.670423 14.2261659,351.06519 14.2261659,353.60963 C14.2261659,357.501126 14.3881672,361.242949 14.0641646,365.134445 C13.9021633,367.678884 14.0641646,370.372997 14.3881672,372.917437 C14.5501686,374.414166 14.3881672,375.761222 14.3881672,377.257951 C14.3881672,378.605008 14.2261659,379.952064 14.2261659,381.29912 C14.2261659,384.741597 14.3881672,388.333748 14.3881672,391.776225 C14.3881672,394.769683 14.2261659,397.763142 14.2261659,400.606927 C14.2261659,402.403002 14.2261659,404.199077 14.3881672,405.995152 C13.5781606,408.988611 13.9021633,410.934359 13.9021633,412.880107 C14.0641646,415.424546 13.9021633,418.118659 13.9021633,420.663099 C13.9021633,422.010155 13.9021633,423.357211 14.0641646,424.704267 C14.2261659,426.200997 14.3881672,427.548053 14.5501686,429.044782 C14.7121699,430.541511 15.0361725,432.038241 15.1981738,433.53497 C15.6841778,437.426466 15.8461791,440.569597 16.1701818,443.712728 C16.3321831,444.910112 16.4941844,446.257168 16.6561858,447.454552 C16.8181871,449.998991 16.9801884,452.393758 17.304191,454.938198 C17.790195,458.081329 17.4661924,461.22446 18.276199,464.217919 C18.4382003,466.912031 18.4382003,468.857779 18.6002016,470.803527 C18.762203,474.395677 18.9242043,477.987827 19.2482069,481.579978 C19.7342109,486.968203 19.5722096,492.356428 20.2202149,497.744653 C20.3822162,499.540728 20.2202149,501.336803 20.3822162,503.132878 C20.5442175,507.024374 20.8682201,510.766197 21.0302215,514.657693 C21.1922228,518.10017 21.1922228,521.392975 21.1922228,524.835452 C21.1922228,526.481854 21.3542241,528.277929 21.3542241,529.924331 C21.6782268,533.666154 21.5162254,537.407977 21.8402281,541.1498 C22.1642307,545.789661 22.3262321,550.429521 23.1362387,555.069382 C23.6222426,557.913167 23.784244,559.260224 23.9462453,560.457607 C24.7562519,564.798122 24.7562519,568.090926 25.0802545,571.084384 C25.8902612,576.622283 26.2142638,582.160181 27.0242704,587.698079 C27.3482731,589.943173 27.6722757,592.188266 27.9962784,594.283687 C28.1582797,601.61766 28.320281,605.209811 28.320281,608.801961 C27.5102744,614.040513 27.3482731,616.135934 27.6722757,618.381028 C27.834277,619.877757 27.834277,621.224813 27.6722757,622.721542 C27.5102744,624.517617 27.3482731,626.313692 27.6722757,628.109767 C27.5102744,635.743086 27.3482731,639.933928 27.3482731,644.12477 C27.5102744,650.111687 27.5102744,656.098604 26.8622691,662.085521 C26.7002678,663.881596 26.7002678,665.677671 26.5382665,667.473746 C26.5382665,669.868512 26.7002678,672.263279 26.3762651,674.658046 C25.8902612,678.699215 25.8902612,682.890057 25.8902612,686.931226 C25.8902612,690.673049 25.5662585,694.414872 25.8902612,698.156695 C26.2142638,701.299826 26.7002678,704.293284 26.3762651,707.586089 C26.2142638,709.082818 26.8622691,710.579547 27.0242704,712.076276 C27.6722757,716.117445 28.320281,720.008941 28.320281,724.05011 C29.1302876,729.138989 29.7782929,733.479504 30.5882995,737.820019 C31.0743035,741.262496 31.2363048,743.058571 31.5603075,744.854646 C32.0463114,749.943525 32.3703141,752.787311 32.5323154,755.780769 C32.6943167,758.624555 32.6943167,761.46834 33.1803207,764.312126 C33.342322,771.346753 33.828326,775.088576 33.828326,778.830399 C33.828326,780.776147 34.1523286,782.572222 34.1523286,784.368297 C34.3143299,787.661102 34.3143299,790.953906 34.4763313,794.24671 C34.6383326,796.79115 34.6383326,799.485262 34.8003339,802.029702 C34.1523286,808.016619 34.3143299,810.411386 34.3143299,812.955825 C34.3143299,816.398302 34.6383326,819.691107 33.9903273,823.133584 C34.3143299,827.923117 34.3143299,830.61723 33.828326,833.461015 C33.9903273,838.549895 33.828326,840.794989 33.5043233,842.890409 C33.828326,847.979289 33.828326,850.374056 33.9903273,852.768822 C33.9903273,856.510645 34.4763313,860.252468 34.8003339,863.994291 C34.9623352,865.640693 35.1243366,867.436769 35.2863379,869.083171 C35.7723419,871.777283 36.2583458,874.321723 36.5823485,877.015836 C37.0683524,879.560275 37.3923551,881.955042 37.7163577,884.499482 C38.6883657,889.588361 39.336371,892.132801 39.8223749,894.527567 C40.3083789,896.473315 40.6323815,898.419063 40.9563842,900.364811 C41.2803868,902.609905 41.6043895,904.854999 41.9283921,907.100093 C42.4143961,910.54257 42.7383987,913.985047 43.0624014,917.577197 C43.2244027,918.924253 43.2244027,920.27131 43.0624014,921.618366 C42.9004001,923.86346 42.9004001,926.108554 43.2244027,928.353647 C43.386404,930.149723 43.386404,931.945798 43.5484054,933.741873 C43.7104067,937.932714 43.7104067,942.123556 43.5484054,946.314398 C44.5204133,948.858838 43.7104067,951.253604 43.5484054,953.498698 C43.386404,955.444446 43.386404,957.240521 43.386404,959.186269 C43.2244027,961.431363 43.0624014,963.82613 43.0624014,966.071224 C43.0624014,967.567953 42.7383987,968.915009 42.5763974,970.262065 C42.4143961,971.609122 42.2523948,973.105851 42.5763974,974.60258 C43.0624014,978.19473 42.5763974,981.78688 43.5484054,985.229358 C43.872408,988.222816 44.0344093,989.270526 44.1964106,990.46791 C44.5204133,995.10777 45.1684186,997.951556 45.8164239,1000.94501 C46.3024278,1003.04044 46.4644292,1005.28553 47.5984384,1007.38095 C48.408445,1012.17048 49.380453,1015.16394 50.3524609,1018.30707 C51.1624675,1022.49791 51.1624675,1023.99464 51.6484715,1025.49137 C51.6484715,1029.68222 51.6484715,1030.28091 51.8104728,1030.8796 C52.1344755,1032.37633 52.2964768,1033.87306 52.4584781,1035.36979 C52.4584781,1038.96194 52.9444821,1042.70376 52.9444821,1046.29591 C52.9444821,1049.58871 53.1064834,1052.88152 52.6204794,1056.17432 C52.2964768,1059.01811 52.7824808,1061.71222 53.1064834,1064.40633 C52.9444821,1069.64489 53.2684847,1072.93769 53.4304861,1076.38017 C52.7824808,1080.57101 53.7544887,1083.26512 53.7544887,1085.95923 C53.91649,1088.80302 54.2404927,1091.49713 54.5644953,1094.19124 C54.0784913,1098.98078 54.5644953,1101.67489 54.7264966,1104.51868 C54.5644953,1107.66181 54.402494,1108.11083 54.402494,1108.55984 C54.402494,1112.00232 54.5644953,1115.59447 54.2404927,1119.03695 C53.91649,1123.52714 54.402494,1128.167 54.2404927,1132.65719 C54.2404927,1134.75261 53.91649,1136.9977 54.0784913,1139.09312 C54.2404927,1144.182 53.7544887,1149.27088 54.402494,1154.35976 C54.5644953,1156.00616 55.0504993,1157.65256 55.3745019,1159.44864 C55.6985046,1160.79569 56.0225072,1162.14275 56.1845085,1163.34013 C56.5085112,1165.43555 56.8325138,1167.3813 57.1565165,1169.47672 C57.4805191,1171.2728 57.4805191,1173.21855 58.1285244,1175.01462 C58.938531,1178.00808 58.7765297,1181.30088 59.424535,1184.29434 C60.3965429,1187.2878 60.5585443,1188.48518 60.2345416,1189.83224 C60.3965429,1194.02308 60.5585443,1196.26818 60.7205456,1198.66294 C61.0445482,1204.50019 61.3685509,1210.4871 61.5305522,1216.32435 C61.5305522,1220.06617 62.0165562,1223.80799 62.8265628,1227.54982 C63.1505654,1228.89687 63.3125667,1230.24393 63.7985707,1231.44131 C65.0945813,1234.88379 65.7425866,1238.32627 66.3905919,1241.91842 C66.8765959,1244.16351 67.5246011,1246.40861 68.0106051,1248.80337 C68.8206117,1252.39552 68.6586104,1255.98767 68.4966091,1259.57982 C68.3346078,1264.07001 68.3346078,1264.96805 68.1726064,1265.71641 C67.5246011,1269.15889 67.8486038,1272.45169 67.8486038,1275.89417 C67.8486038,1281.58174 67.3625998,1287.41899 65.5805853,1292.95688 C64.446576,1296.54903 63.6365694,1300.29086 62.6645615,1303.88301 C62.1785575,1305.82875 61.6925535,1307.7745 61.3685509,1309.72025 C60.7205456,1313.16273 60.3965429,1316.60521 60.8825469,1320.19736 L56.1845085,1320.19736 C56.3465099,1314.65946 56.1845085,1311.36665 57.1565165,1307.92418 C57.6425204,1306.27777 57.4805191,1304.33203 57.8045218,1302.53595 C58.6145284,1298.79413 59.7485376,1295.20198 60.8825469,1291.60983 C61.6925535,1289.21506 62.0165562,1286.67062 62.6645615,1284.27585 C63.3125667,1281.73141 63.3125667,1279.18697 63.3125667,1276.49286 C63.3125667,1273.64908 63.4745681,1270.80529 63.960572,1267.96151 C63.3125667,1263.32165 63.7985707,1260.02884 63.7985707,1256.73604 C63.7985707,1252.09618 63.4745681,1247.45632 61.8545548,1242.96613 C61.3685509,1241.76874 61.3685509,1240.27202 61.3685509,1238.92496 C61.2065495,1236.97921 60.5585443,1235.18314 59.7485376,1233.53673 C57.9665231,1230.3936 57.1565165,1226.95113 56.8325138,1223.50865 C56.5085112,1219.16813 56.0225072,1214.97729 55.6985046,1210.63678 C55.2125006,1206.89495 55.0504993,1205.09888 55.0504993,1203.15313 C54.2404927,1197.76491 54.2404927,1195.07079 53.91649,1192.37668 C53.4304861,1188.78453 52.9444821,1185.04271 52.2964768,1181.45056 C51.8104728,1177.85841 51.3244689,1174.11658 50.8384649,1170.52443 C50.6764636,1169.0277 50.6764636,1167.53098 50.5144622,1166.03425 C50.3524609,1164.53752 50.0284583,1163.04079 49.2184517,1161.69373 C48.2464437,1156.15583 47.9224411,1152.86303 47.5984384,1149.7199 C48.2464437,1144.48135 47.9224411,1140.44018 48.0844424,1136.54868 C48.0844424,1132.35784 47.9224411,1128.167 48.408445,1123.97616 C48.894449,1119.48597 49.380453,1114.84611 49.5424543,1110.35592 C49.7044556,1106.01541 49.8664569,1101.52522 49.2184517,1097.1847 C48.7324477,1091.94615 48.5704464,1090.59909 48.408445,1089.25204 C48.2464437,1087.30629 48.0844424,1085.36054 47.9224411,1083.41479 C47.2744358,1077.57755 47.9224411,1073.9854 47.7604397,1070.54292 C47.7604397,1068.29783 47.7604397,1066.05274 47.5984384,1063.80764 C47.4364371,1061.86189 47.2744358,1059.91615 47.1124345,1057.9704 C47.1124345,1056.02465 47.1124345,1054.22857 47.2744358,1052.28283 C47.2744358,1050.18741 47.4364371,1047.94231 47.4364371,1045.84689 C46.7902411,1044.05583 48.5695381,1039.34695 48.0505847,1032.46576 C47.7910959,1029.02501 47.6461388,1023.38087 46.4369854,1018.5 C45.227832,1013.61913 42.9546995,1009.50228 42.9004001,1009.3267 C41.6043895,1005.4352 41.2803868,1001.39403 40.4703802,997.502537 C39.8223749,994.509079 39.0123683,991.51562 39.1743696,988.522162 C38.2023617,984.33132 38.364363,981.487535 37.8783591,978.943095 C37.8783591,975.201272 38.0403604,974.452907 38.0403604,973.854216 C37.7163577,969.214355 38.2023617,964.724167 38.5263643,960.084307 C38.6883657,958.288232 38.6883657,956.492157 38.6883657,954.696082 C38.6883657,950.654913 38.5263643,946.613744 38.850367,942.572575 C39.0123683,938.830752 38.850367,935.238602 38.5263643,931.496779 C38.364363,930.299395 38.0403604,929.102012 37.8783591,927.754956 C37.5543564,924.162806 37.2303538,920.570656 36.9063511,916.978505 C36.4203471,910.841916 36.4203471,904.555653 35.1243366,898.568736 C33.9903273,893.62953 33.1803207,888.690323 32.0463114,883.751117 C31.0743035,879.709948 30.4262982,875.668779 30.5882995,871.477937 C29.6162916,865.491021 29.1302876,862.048543 29.4542903,858.30672 C29.6162916,856.510645 29.4542903,854.71457 29.4542903,852.918495 C29.2922889,850.224383 29.4542903,847.53027 29.4542903,844.836157 L29.4542903,838.998914 C29.6162916,831.814613 29.2922889,827.773444 29.4542903,823.582603 C29.4542903,817.745359 29.6162916,811.908115 29.6162916,806.070871 C29.6162916,801.880029 29.4542903,797.689187 29.4542903,793.498345 C28.4822823,790.205541 28.4822823,788.11012 28.4822823,786.014699 C28.4822823,784.068951 28.320281,782.272876 28.1582797,780.327128 C27.9962784,778.680726 27.9962784,777.183997 27.9962784,775.537595 C28.1582797,772.693809 27.9962784,769.850024 27.6722757,766.856565 C27.1862717,762.366378 27.0242704,757.87619 26.0522625,753.535675 C26.7002678,747.848104 26.0522625,743.657263 25.4042572,739.316748 C24.9182532,735.425252 24.4322493,731.533756 23.9462453,727.64226 C23.6222426,725.247493 23.1362387,722.852727 22.812236,720.45796 C22.6502347,719.110904 22.3262321,717.91352 22.4882334,716.416791 C21.6782268,711.178239 21.3542241,708.783472 21.1922228,706.239032 C20.8682201,701.748845 20.5442175,697.108984 20.2202149,692.469124 C20.0582135,690.673049 20.2202149,688.727301 21.0302215,686.931226 C21.5162254,685.733842 21.5162254,684.536459 21.6782268,683.189402 C21.6782268,678.998561 21.5162254,674.807719 21.6782268,670.467204 C21.8402281,665.228652 22.1642307,659.840427 22.4882334,654.601875 C22.6502347,651.608416 22.9742373,648.764631 23.29824,645.771172 C22.812236,638.586872 22.6502347,633.947011 22.812236,629.157478 C22.3262321,621.07514 22.3262321,615.836588 22.3262321,610.747709 C23.29824,607.005886 23.4602413,605.509156 23.29824,604.1621 C22.4882334,598.773875 22.4882334,593.235977 22.3262321,587.847752 C22.1642307,582.758872 21.6782268,577.669993 21.1922228,572.581114 C20.8682201,568.390272 20.5442175,564.19943 20.2202149,560.008588 C19.7342109,557.01513 19.4102082,554.919709 19.2482069,552.824288 C18.9242043,549.681157 18.6002016,546.538025 18.4382003,543.394894 C18.1141977,540.551109 17.790195,540.10209 17.9521963,539.653071 C18.4382003,537.707323 18.1141977,535.761575 17.9521963,533.815827 C17.4661924,526.930873 16.8181871,520.045918 16.3321831,513.160964 C16.0081805,509.718487 16.0081805,506.126337 15.8461791,502.683859 C15.6841778,500.13942 15.3601752,497.445307 15.1981738,494.900868 C15.0361725,491.757736 14.8741712,488.614605 14.7121699,485.471474 C15.3601752,481.72965 15.3601752,479.334884 15.1981738,476.940117 C14.8741712,471.851238 14.5501686,466.912031 13.7401619,461.972825 C13.4161593,459.727731 13.254158,457.482637 13.0921566,455.237543 C12.6061527,450.747356 12.1201487,446.107495 11.6341447,441.617308 C11.1481408,437.276793 10.6621368,432.936278 10.1761328,428.446091 C10.0141315,427.099034 9.85213019,425.751978 9.69012887,424.404922 C9.52812755,421.112117 9.36612622,417.968986 9.2041249,414.676182 C10.3381342,405.845479 10.0141315,399.409544 10.0141315,392.973608 C10.0141315,389.381458 9.85213019,385.789308 10.1761328,382.197158 C10.3381342,380.550756 10.1761328,378.754681 10.1761328,377.108279 C10.3381342,374.11482 10.5001355,371.271035 10.3381342,368.277576 C10.8241381,364.685426 11.3101421,363.039024 10.6621368,361.242949 C10.1761328,357.501126 10.3381342,357.052107 10.5001355,356.603088 C10.8241381,354.65734 11.1481408,352.711592 10.8241381,350.765844 L10.8241381,339.390702 C10.6621368,334.601169 10.6621368,329.961308 10.9861395,325.171775 C10.5001355,320.232568 10.5001355,318.28682 10.3381342,316.341072 C10.1761328,311.401866 10.1761328,309.605791 10.0141315,307.809716 C9.2041249,303.020182 8.71812093,300.026724 8.55611961,296.883593 C8.39411829,295.237191 8.07011564,293.740461 7.90811432,292.094059 C7.58411167,288.950928 7.26010903,285.658124 6.93610638,282.514992 C7.0981077,277.875132 5.96409844,273.68429 5.80209712,269.343775 C5.6400958,264.554242 5.31609315,259.914381 5.15409183,255.124848 C4.99209051,251.083679 4.99209051,247.04251 4.66808786,243.001341 C4.50608654,240.456901 3.85808124,237.912462 3.69607992,235.218349 C3.37207728,232.823582 3.37207728,230.428816 3.21007595,228.034049 C2.56207066,223.843207 2.07606669,222.196805 1.91406537,220.40073 C1.59006272,217.257599 0.942057433,213.964794 0.942057433,210.821663 C0.942057433,205.134092 0.132050818,199.446521 0.456053464,193.609277 C0.618054787,187.921706 0.942057433,182.234135 1.91406537,176.696237 C2.72407198,171.906703 3.85808124,167.11717 4.66808786,162.477309 C5.31609315,159.184505 5.6400958,155.742028 5.96409844,152.299551 C6.45010241,148.108709 6.77410506,143.917867 6.93610638,139.727025 C7.0981077,136.284548 6.93610638,132.692398 6.77410506,129.249921 C6.61210373,125.807444 6.12609977,122.215294 6.12609977,118.772816 C6.12609977,115.330339 5.6400958,112.037535 5.15409183,108.595058" id="Shape"></path>
                            </g>
                        </g>
                    </g>
                </g>
            </g>
        </g>
    </g>
</svg>