<?xml version="1.0" encoding="UTF-8"?>
<svg width="1262px" height="275px" viewBox="0 0 1262 275" version="1.1" xmlns="http://www.w3.org/2000/svg" xmlns:xlink="http://www.w3.org/1999/xlink" style="background: #2E3547;">
    <!-- Generator: Sketch 41.2 (35397) - http://www.bohemiancoding.com/sketch -->
    <title>Desktop Landscape</title>
    <desc>Created with Sketch.</desc>
    <defs></defs>
    <g id="Page-1" stroke="none" stroke-width="1" fill="none" fill-rule="evenodd">
        <g id="Desktop-Landscape">
            <g id="Leaf" transform="translate(621.000000, 143.000000) rotate(90.000000) translate(-621.000000, -143.000000) translate(489.000000, -431.000000)">
                <g id="Layer_1" transform="translate(0.000000, 25.000000)" fill="#F2F0EA">
                    <path d="M209.27896,174.425623 C203.514108,167.803834 198.450387,162.194789 193.620376,156.352034 C190.893757,153.080091 190.660046,149.262824 192.062308,145.28975 C192.841342,143.108455 194.087796,142.485228 196.269091,143.809585 C198.606194,145.211847 201.021199,146.302494 203.514108,147.393142 C209.980091,150.119761 213.329937,155.105579 214.420585,161.805272 C214.576392,162.584306 214.732198,163.36334 214.965909,164.064471 C218.082045,173.412879 218.082045,173.412879 228.209487,173.568686 C235.532407,173.724493 242.933231,173.8803 250.256151,174.036106 C251.502605,174.036106 253.060673,174.036106 253.995514,174.659334 C255.008259,175.282561 255.943099,176.606919 256.021003,177.77547 C256.098906,178.320794 254.229225,179.645152 253.294384,179.645152 C250.489861,179.645152 247.685339,178.788214 244.880816,178.866118 C233.818533,179.099828 222.678346,179.800958 211.616062,179.878862 C201.72233,179.956765 192.919245,183.384515 184.349871,187.591299 C182.480189,188.448236 181.155831,190.629532 179.831473,192.343407 C176.481627,196.472287 173.13178,200.445361 167.444832,201.536008 C163.393855,202.315042 159.498684,203.795207 155.447707,204.730048 C154.045446,205.041661 152.565281,204.574241 151.085117,204.496338 C151.39673,203.17198 151.240924,201.536008 152.019958,200.601167 C156.849969,194.758412 161.524173,188.837753 169.70403,186.968072 C174.689848,185.877424 179.441956,183.774032 184.349871,182.060157 C184.271967,181.514833 184.11616,180.891606 184.038257,180.346282 C180.298893,180.346282 176.481627,179.956765 172.742263,180.424186 C165.34144,181.359026 159.031264,178.788214 152.331571,176.139498 C147.968981,174.425623 142.593646,174.036106 137.997345,174.737237 C131.297652,175.749981 125.29909,174.425623 120.391175,170.530453 C117.664556,168.349158 116.418102,164.142374 115.01584,160.636721 C114.78213,160.013494 117.197136,157.208971 118.131977,157.364778 C126.623448,158.455425 135.114919,159.70188 143.450583,161.649465 C146.099299,162.272692 148.202691,165.077215 150.539793,166.946897 C151.864151,168.037544 153.032702,169.283999 154.279156,170.374646 C154.746577,170.140936 155.291901,169.829323 155.759321,169.595612 C155.05819,166.79109 154.434963,163.908664 153.655929,161.104141 C152.487378,156.819454 150.306083,152.61267 152.409475,148.094273 C154.746577,143.108455 156.849969,137.96683 159.576588,133.136819 C160.355622,131.656654 162.770627,131.11133 164.406599,130.17649 C164.951923,131.734558 165.57515,133.370529 165.886764,135.006501 C166.276281,136.642472 166.04257,138.43425 166.587894,139.914415 C169.626127,147.393142 168.301769,153.781221 162.692724,159.70188 C159.810298,162.818016 160.277718,170.608357 163.393855,172.867555 C165.10773,174.11401 167.600639,175.048851 169.70403,174.970947 C180.376797,174.893044 191.127467,174.503527 201.800233,174.269817 C203.825722,174.425623 206.08492,174.425623 209.27896,174.425623 Z" id="Shape"></path>
                    <path d="M183.354893,61.6557097 C167.471442,60.709014 152.955441,64.1802317 138.544628,67.6514493 C128.025787,70.1759713 117.612134,73.1212469 106.988104,75.7509572 C104.042829,76.4872761 102.990944,77.6443487 102.780568,81.0103779 C102.570191,84.7971609 100.781988,88.5839438 98.9937847,91.949973 C98.3626542,93.0018572 94.8914365,93.7381761 93.5239871,93.0018572 C92.2617261,92.2655383 91.5254072,89.5306395 91.6305957,87.7424365 C91.7357841,85.4282913 92.998045,83.2193346 93.9447408,80.0636822 C86.3711749,83.0089578 79.6391164,85.7438566 72.8018695,88.1631901 C68.3839561,89.7410163 63.8608543,91.424031 59.3377525,92.0551614 C57.444361,92.2655383 55.1302159,89.8462047 53.131636,88.6891322 C54.7094622,87.111306 56.0769116,84.4815956 57.9703031,83.9556535 C63.6504775,82.4830157 69.5410287,81.9570737 75.221203,80.8000011 C79.9546817,79.8533054 84.4777835,78.3806676 90.1579579,76.8028414 C85.108914,74.8042615 81.2169426,73.8575658 77.9561018,71.7537975 C76.3782756,70.8071018 76.0627103,67.8618262 75.1160146,65.7580579 C77.1145945,65.1269274 79.2183628,63.6542896 81.0065658,63.9698548 C87.2126823,65.021739 92.8928566,67.1255073 95.522567,73.9627542 C116.770627,68.8085219 138.018686,63.759478 159.477123,58.5000573 C159.056369,57.65855 158.951181,56.9222311 158.635616,56.8170427 C143.06773,52.5043177 129.498425,42.6166067 112.983844,40.0920848 C105.831032,39.0402006 99.2041615,34.4119104 92.472103,31.3614464 C89.947581,30.2043738 87.3178707,29.0473013 85.2141024,27.2590982 C82.05845,24.7345763 78.6924207,21.9996775 76.5886524,18.7388367 C74.695261,15.7935611 76.3782756,13.6897928 80.2702469,13.2690391 C87.2126823,12.5327202 92.998045,15.3728074 98.573031,18.6336483 C107.619235,24.1034458 116.455061,30.2043738 125.396077,35.9897366 C131.391816,39.881708 137.387556,43.6684909 143.383295,47.5604622 C143.804049,47.0345201 144.224803,46.6137665 144.645556,46.0878244 C142.331411,41.0387805 140.017266,36.094925 137.80831,31.0458812 C135.178599,25.2605184 132.338512,19.4751556 130.234744,13.479416 C129.393236,11.0600824 129.498425,7.90443001 130.234744,5.27471966 C130.760686,3.17095137 132.548889,0.22567577 134.126715,0.0152989415 C135.80973,-0.195077887 139.070571,1.80350198 139.701701,3.59170503 C143.06773,13.0586623 148.432339,21.8944891 146.644136,32.7288958 C145.381875,40.5128384 151.587992,49.0331 158.425239,52.3991293 C169.259645,57.8689268 180.304429,54.9236512 191.349212,54.9236512 C210.703881,54.9236512 230.058549,55.4495933 249.413217,56.0807238 C250.675478,56.0807238 251.937739,58.3948689 253.2,59.6571298 C251.622174,60.4986372 250.044348,62.1816518 248.57171,62.1816518 C232.898636,61.5505213 217.225562,60.4986372 201.4473,59.9726951 C194.715242,59.7623183 188.509125,61.5505213 183.880835,67.4410725 C180.830371,71.3330438 176.622834,74.3835078 172.836051,77.7495371 C182.618574,86.3749871 179.357733,100.996177 173.361994,109.41125 C169.890776,114.355105 153.586572,119.088584 148.327151,116.248497 C147.275267,115.722555 146.223383,113.829163 146.328571,112.672091 C147.590832,99.4183504 154.007325,88.2683785 162.737964,78.8014212 C167.997384,73.1212469 175.045008,69.2292755 181.251125,64.4957969 C181.777067,63.759478 182.303009,62.9179707 183.354893,61.6557097 Z" id="Shape"></path>
                </g>
                <g id="Group-2" transform="translate(254.500000, 157.500000) rotate(-90.000000) translate(-254.500000, -157.500000) translate(97.000000, 148.500000)"></g>
            </g>
            <path d="M0,271.310397 C0,271.310397 91.9141376,274 137.771621,261.602324 C183.629104,249.204648 276.329619,266.601666 363.405348,261.602324 C450.481077,256.602982 473.840792,261.602324 519.726382,261.602324 C565.611972,261.602324 575.315103,266.968087 631,257.426378 C686.684897,247.884669 746.43621,261.602324 809.997765,257.426378 C873.55932,253.250433 896.20001,262.249371 930.957161,260.566058 C965.714312,258.882745 1009.88056,261.602324 1009.88056,261.602324 C1009.88056,261.602324 1068.19713,260.566058 1125.83799,257.426378 C1183.47884,254.286698 1262,260.566058 1262,260.566058 L1262,293 L0,293 L0,271.310397 Z" id="Rectangle-2" fill="#F2F0EA"></path>
            <path d="M0,1.6205869 C0,1.6205869 91.9141376,5.5955035 137.771621,-12.7268012 C183.629104,-31.049106 306.791857,-6.55524577 363.405348,-12.7268012 C420.018839,-18.8983567 463.797707,-11.1953231 519.726382,-12.7268012 C575.655057,-14.2582794 575.315103,-4.79683486 631,-18.8983567 C686.684897,-32.9998785 746.43621,-12.7268012 809.997765,-18.8983567 C873.55932,-25.0699121 896.20001,-11.7705411 930.957161,-14.2582794 C965.714312,-16.7460176 967.903299,-6.03239085 989.517092,-6.03239085 C1011.13089,-6.03239085 1020.73788,-15.2378063 1089.89772,-12.7268012 C1159.05757,-10.2157961 1156.53414,-6.03239085 1200.30073,1.6205869 C1220.89643,1.42655637 1243.81382,-11.903726 1247.01198,-12.7268012 C1250.21014,-13.5498764 1262,-14.2582794 1262,-14.2582794 L1262,33.675265 L0,33.675265 L0,1.6205869 Z" id="Rectangle-2" fill="#F2F0EA" transform="translate(631.000000, 4.837632) scale(1, -1) translate(-631.000000, -4.837632) "></path>
        </g>
    </g>
</svg>