<?xml version="1.0" encoding="UTF-8"?>
<svg width="1262px" height="210px" viewBox="0 0 1262 210" version="1.1" xmlns="http://www.w3.org/2000/svg" xmlns:xlink="http://www.w3.org/1999/xlink">
    <!-- Generator: Sketch 41.2 (35397) - http://www.bohemiancoding.com/sketch -->
    <title>Leaf</title>
    <desc>Created with Sketch.</desc>
    <defs></defs>
    <g id="Page-1" stroke="none" stroke-width="1" fill="none" fill-rule="evenodd">
        <g id="Desktop-Landscape" transform="translate(0.000000, -90.000000)" fill="#000000">
            <g id="Leaf" transform="translate(604.471696, 228.508359) rotate(90.000000) translate(-604.471696, -228.508359) translate(466.471696, -433.491641)">
                <g id="Layer_1" transform="translate(0.000000, 92.000000)">
                    <g id="Group">
                        <path d="M129.317463,203.052032 C124.623276,203.052032 119.929089,202.97247 115.234902,203.131595 C114.518839,203.131595 113.643652,204.484157 113.325402,205.359345 C111.01809,212.042594 105.92609,215.782031 99.8793407,218.407594 C86.9106542,224.056531 73.4645928,227.000343 59.3820314,224.136093 C56.5973441,223.579156 53.8922194,222.306156 51.5053446,220.794468 C49.0389073,219.123656 49.8345322,216.975469 52.221407,215.941156 C64.792281,210.451344 77.2835925,204.722845 90.0931539,199.869533 C94.7077786,198.119158 100.197591,198.51697 105.28959,198.278283 C110.938527,198.039595 116.507902,198.19872 123.191151,198.19872 C120.247339,196.766595 118.099152,195.65272 115.871402,194.69797 C110.779402,192.549783 105.60784,190.401596 100.515841,188.253408 C93.4347787,185.309596 86.5924042,186.184784 79.8295923,189.287721 C78.2383424,190.003783 76.3288426,190.640283 74.7375927,190.322033 C72.5098429,189.844658 69.8842806,188.969471 70.600343,185.627846 C71.3164055,182.286221 73.6237178,181.808847 76.6470925,182.127096 C79.7500298,182.445346 82.852967,182.365784 85.9559043,182.445346 C86.5128417,182.445346 87.0697792,182.047534 88.5814666,181.490597 C82.693842,178.148972 79.5909048,172.181785 72.6689678,171.70441 C68.9295307,171.465722 66.3039684,167.487598 67.1791558,163.907285 C67.4178433,163.111661 68.2930307,162.156911 69.1682181,161.759098 C74.1806552,159.531348 78.9544048,162.395598 79.5113423,167.88541 C79.5909048,168.601473 79.9091548,169.556222 80.4660922,169.874472 C84.1259669,172.579597 87.9449666,175.284722 91.6844038,177.910284 C93.4347787,179.103722 95.1851535,180.217597 97.0150909,181.331472 C99.3224032,182.763596 101.709278,184.116159 104.01659,185.468721 C104.255278,185.230034 104.493965,184.991346 104.65309,184.752659 C103.459653,182.684034 101.868403,180.694972 101.072778,178.467222 C99.7202157,174.329972 98.3676533,170.11316 97.8902783,165.816785 C97.6515908,163.509473 99.5610907,161.361286 102.584465,161.520411 C105.448715,161.679536 106.88084,163.350348 107.19909,165.97591 C107.358215,167.169348 107.19909,168.362785 107.19909,169.79491 C102.902715,170.908785 103.459653,174.489097 105.050903,176.875972 C108.233402,181.649722 111.893277,186.264346 116.269214,189.924221 C119.213027,192.470221 123.588964,193.504533 127.487526,194.69797 C133.37515,196.448345 139.342337,198.437408 145.468649,199.073908 C152.708836,199.78997 160.108148,199.073908 167.427898,198.994345 C168.14396,198.994345 168.860023,198.51697 170.928647,197.88047 C167.587023,195.573158 165.27971,193.584096 162.654148,192.072408 C157.243899,188.889908 151.117587,186.582596 146.423399,182.684034 C142.365712,179.342409 139.74015,174.329972 136.796338,169.79491 C136.159838,168.84016 136.796338,166.771535 137.432838,165.498535 C137.751088,164.941598 139.74015,164.782473 140.615337,165.180285 C146.025587,167.408035 151.356274,169.874472 156.766524,172.181785 C163.449773,174.966472 168.14396,180.058472 171.565147,186.105221 C173.713335,189.844658 174.270272,194.459283 175.78196,199.312595 L200.844145,199.312595 C200.844145,201.301657 201.32152,202.892907 200.68502,203.768095 C200.207645,204.404595 198.298145,204.24547 197.104708,204.24547 C187.716334,203.92722 178.407522,203.370282 169.019148,203.29072 C160.028586,203.211157 151.038024,202.892907 142.127025,203.92722 C137.83065,204.404595 133.852525,207.507532 129.874401,209.735282 C128.919651,210.292219 127.964901,212.440407 128.283151,213.395156 C130.908713,221.112718 127.487526,226.92078 122.395526,231.853655 C117.223964,236.78653 111.33634,241.321592 103.69834,241.162467 C101.231903,241.082904 97.8107158,240.207717 96.5377159,238.457342 C95.6625285,237.184342 97.1742159,233.683592 98.3676533,231.535405 C103.300528,222.465281 112.131965,217.691531 120.406464,212.281282 C123.748089,210.133094 126.612338,207.109719 129.715276,204.56372 C129.715276,203.847657 129.476588,203.449845 129.317463,203.052032 Z M101.391028,236.547842 C104.732653,235.911342 107.756028,235.911342 110.222465,234.797467 C120.247339,230.341968 122.713776,226.761655 124.464151,215.543344 C115.155339,218.566719 104.255278,228.034655 101.391028,236.547842 Z" id="Shape"></path>
                        <path d="M130.354893,61.6557097 C114.471442,60.709014 99.9554412,64.1802317 85.5446284,67.6514493 C75.025787,70.1759713 64.612134,73.1212469 53.9881041,75.7509572 C51.0428285,76.4872761 49.9909444,77.6443487 49.7805676,81.0103779 C49.5701907,84.7971609 47.7819877,88.5839438 45.9937847,91.949973 C45.3626542,93.0018572 41.8914365,93.7381761 40.5239871,93.0018572 C39.2617261,92.2655383 38.5254072,89.5306395 38.6305957,87.7424365 C38.7357841,85.4282913 39.998045,83.2193346 40.9447408,80.0636822 C33.3711749,83.0089578 26.6391164,85.7438566 19.8018695,88.1631901 C15.3839561,89.7410163 10.8608543,91.424031 6.33775248,92.0551614 C4.44436102,92.2655383 2.1302159,89.8462047 0.131636033,88.6891322 C1.70946225,87.111306 3.07691163,84.4815956 4.97030309,83.9556535 C10.6504775,82.4830157 16.5410287,81.9570737 22.221203,80.8000011 C26.9546817,79.8533054 31.4777835,78.3806676 37.1579579,76.8028414 C32.108914,74.8042615 28.2169426,73.8575658 24.9561018,71.7537975 C23.3782756,70.8071018 23.0627103,67.8618262 22.1160146,65.7580579 C24.1145945,65.1269274 26.2183628,63.6542896 28.0065658,63.9698548 C34.2126823,65.021739 39.8928566,67.1255073 42.522567,73.9627542 C63.7706267,68.8085219 85.0186864,63.759478 106.477123,58.5000573 C106.056369,57.65855 105.951181,56.9222311 105.635616,56.8170427 C90.0677302,52.5043177 76.4984248,42.6166067 59.9838438,40.0920848 C52.8310316,39.0402006 46.2041615,34.4119104 39.472103,31.3614464 C36.947581,30.2043738 34.3178707,29.0473013 32.2141024,27.2590982 C29.05845,24.7345763 25.6924207,21.9996775 23.5886524,18.7388367 C21.695261,15.7935611 23.3782756,13.6897928 27.2702469,13.2690391 C34.2126823,12.5327202 39.998045,15.3728074 45.573031,18.6336483 C54.6192346,24.1034458 63.4550614,30.2043738 72.3960766,35.9897366 C78.3918163,39.881708 84.3875559,43.6684909 90.3832955,47.5604622 C90.8040491,47.0345201 91.2248028,46.6137665 91.6455565,46.0878244 C89.3314113,41.0387805 87.0172662,36.094925 84.8083095,31.0458812 C82.1785992,25.2605184 79.338512,19.4751556 77.2347437,13.479416 C76.3932364,11.0600824 76.4984248,7.90443001 77.2347437,5.27471966 C77.7606858,3.17095137 79.5488888,0.22567577 81.126715,0.0152989415 C82.8097297,-0.195077887 86.0705705,1.80350198 86.701701,3.59170503 C90.0677302,13.0586623 95.4323394,21.8944891 93.6441363,32.7288958 C92.3818754,40.5128384 98.5879918,49.0331 105.425239,52.3991293 C116.259645,57.8689268 127.304429,54.9236512 138.349212,54.9236512 C157.703881,54.9236512 177.058549,55.4495933 196.413217,56.0807238 C197.675478,56.0807238 198.937739,58.3948689 200.2,59.6571298 C198.622174,60.4986372 197.044348,62.1816518 195.57171,62.1816518 C179.898636,61.5505213 164.225562,60.4986372 148.4473,59.9726951 C141.715242,59.7623183 135.509125,61.5505213 130.880835,67.4410725 C127.830371,71.3330438 123.622834,74.3835078 119.836051,77.7495371 C129.618574,86.3749871 126.357733,100.996177 120.361994,109.41125 C116.890776,114.355105 100.586572,119.088584 95.327151,116.248497 C94.2752668,115.722555 93.2233827,113.829163 93.3285711,112.672091 C94.5908321,99.4183504 101.007325,88.2683785 109.737964,78.8014212 C114.997384,73.1212469 122.045008,69.2292755 128.251125,64.4957969 C128.777067,63.759478 129.303009,62.9179707 130.354893,61.6557097 Z" id="Shape"></path>
                    </g>
                </g>
                <g id="Group-2" transform="translate(206.000000, 662.000000) rotate(-90.000000) translate(-206.000000, -662.000000) translate(-456.000000, 592.500000)">
                    <g id="tree" transform="translate(662.264284, 69.219942) scale(-1, 1) rotate(-267.000000) translate(-662.264284, -69.219942) translate(627.764284, -591.280058)">
                        <g id="Scan_xA0_Image_1_" transform="translate(-0.000000, 0.000000)">
                            <g id="Group" transform="translate(-0.000000, 0.000000)">
                                <path d="M0.0513541973,0.920833709 C0.0513541973,0.920833709 1.8554246,-1.72803994 2.43142283,1.99775979 C3.00742106,5.72355951 4.1090652,27.1678217 4.1090652,27.1678217 C4.1090652,27.1678217 5.35338941,50.3377296 6.37799066,71.5720025 C6.57040437,75.5596662 7.26790623,78.6941059 7.41627269,81.9796957 C7.56463915,85.2652856 7.85785857,104.371504 8.77032153,105.850291 C9.09432418,107.945712 8.71812093,111.887862 9.04212358,114.132956 C9.04212358,117.725106 9.2041249,119.9702 9.69012887,122.065621 C10.0141315,123.712023 10.0141315,125.508098 9.85213019,127.1545 C10.3381342,132.243379 9.85213019,135.386511 10.1761328,138.529642 C9.85213019,143.618521 9.52812755,146.911326 9.2041249,150.054457 C9.04212358,152.299551 8.88012225,154.694318 8.55611961,156.939411 C8.39411829,158.585813 8.07011564,160.381889 7.74611299,162.028291 C6.28810109,167.566189 5.47809447,173.25376 4.66808786,178.941331 C4.02008257,182.9825 4.02008257,187.023669 4.02008257,191.064837 C4.02008257,194.357642 4.18208389,197.650446 3.85808124,200.94325 C4.02008257,203.787036 4.34408521,205.882457 4.50608654,208.12755 C4.66808786,212.019046 4.83008918,212.917084 4.83008918,213.665449 C5.15409183,216.209888 5.47809447,218.754328 5.80209712,221.44844 C6.12609977,226.237974 6.28810109,228.034049 6.77410506,229.830124 C6.93610638,233.422274 7.0981077,234.76933 7.58411167,236.116387 C7.26010903,241.803958 8.07011564,245.845127 8.07011564,249.736623 C8.07011564,251.832043 8.39411829,253.777791 8.55611961,255.873212 C8.71812093,259.315689 9.04212358,262.608494 9.2041249,266.050971 C9.36612622,270.09214 10.0141315,274.133309 10.1761328,278.174478 C10.3381342,283.263357 10.9861395,288.352236 11.4721434,293.441116 C11.9581474,298.829341 12.768154,304.367239 13.254158,309.755464 C13.5781606,313.497287 14.0641646,317.23911 14.2261659,320.980933 C14.5501686,326.219485 14.5501686,331.308365 14.8741712,336.546917 C14.3881672,340.887432 14.3881672,343.282198 14.0641646,345.527292 C14.0641646,348.670423 14.2261659,351.06519 14.2261659,353.60963 C14.2261659,357.501126 14.3881672,361.242949 14.0641646,365.134445 C13.9021633,367.678884 14.0641646,370.372997 14.3881672,372.917437 C14.5501686,374.414166 14.3881672,375.761222 14.3881672,377.257951 C14.3881672,378.605008 14.2261659,379.952064 14.2261659,381.29912 C14.2261659,384.741597 14.3881672,388.333748 14.3881672,391.776225 C14.3881672,394.769683 14.2261659,397.763142 14.2261659,400.606927 C14.2261659,402.403002 14.2261659,404.199077 14.3881672,405.995152 C13.5781606,408.988611 13.9021633,410.934359 13.9021633,412.880107 C14.0641646,415.424546 13.9021633,418.118659 13.9021633,420.663099 C13.9021633,422.010155 13.9021633,423.357211 14.0641646,424.704267 C14.2261659,426.200997 14.3881672,427.548053 14.5501686,429.044782 C14.7121699,430.541511 15.0361725,432.038241 15.1981738,433.53497 C15.6841778,437.426466 15.8461791,440.569597 16.1701818,443.712728 C16.3321831,444.910112 16.4941844,446.257168 16.6561858,447.454552 C16.8181871,449.998991 16.9801884,452.393758 17.304191,454.938198 C17.790195,458.081329 17.4661924,461.22446 18.276199,464.217919 C18.4382003,466.912031 18.4382003,468.857779 18.6002016,470.803527 C18.762203,474.395677 18.9242043,477.987827 19.2482069,481.579978 C19.7342109,486.968203 19.5722096,492.356428 20.2202149,497.744653 C20.3822162,499.540728 20.2202149,501.336803 20.3822162,503.132878 C20.5442175,507.024374 20.8682201,510.766197 21.0302215,514.657693 C21.1922228,518.10017 21.1922228,521.392975 21.1922228,524.835452 C21.1922228,526.481854 21.3542241,528.277929 21.3542241,529.924331 C21.6782268,533.666154 21.5162254,537.407977 21.8402281,541.1498 C22.1642307,545.789661 22.3262321,550.429521 23.1362387,555.069382 C23.6222426,557.913167 23.784244,559.260224 23.9462453,560.457607 C24.7562519,564.798122 24.7562519,568.090926 25.0802545,571.084384 C25.8902612,576.622283 26.2142638,582.160181 27.0242704,587.698079 C27.3482731,589.943173 27.6722757,592.188266 27.9962784,594.283687 C28.1582797,601.61766 28.320281,605.209811 28.320281,608.801961 C27.5102744,614.040513 27.3482731,616.135934 27.6722757,618.381028 C27.834277,619.877757 27.834277,621.224813 27.6722757,622.721542 C27.5102744,624.517617 27.3482731,626.313692 27.6722757,628.109767 C27.5102744,635.743086 27.3482731,639.933928 27.3482731,644.12477 C27.5102744,650.111687 27.5102744,656.098604 26.8622691,662.085521 C26.7002678,663.881596 26.7002678,665.677671 26.5382665,667.473746 C26.5382665,669.868512 26.7002678,672.263279 26.3762651,674.658046 C25.8902612,678.699215 25.8902612,682.890057 25.8902612,686.931226 C25.8902612,690.673049 25.5662585,694.414872 25.8902612,698.156695 C26.2142638,701.299826 26.7002678,704.293284 26.3762651,707.586089 C26.2142638,709.082818 26.8622691,710.579547 27.0242704,712.076276 C27.6722757,716.117445 28.320281,720.008941 28.320281,724.05011 C29.1302876,729.138989 29.7782929,733.479504 30.5882995,737.820019 C31.0743035,741.262496 31.2363048,743.058571 31.5603075,744.854646 C32.0463114,749.943525 32.3703141,752.787311 32.5323154,755.780769 C32.6943167,758.624555 32.6943167,761.46834 33.1803207,764.312126 C33.342322,771.346753 33.828326,775.088576 33.828326,778.830399 C33.828326,780.776147 34.1523286,782.572222 34.1523286,784.368297 C34.3143299,787.661102 34.3143299,790.953906 34.4763313,794.24671 C34.6383326,796.79115 34.6383326,799.485262 34.8003339,802.029702 C34.1523286,808.016619 34.3143299,810.411386 34.3143299,812.955825 C34.3143299,816.398302 34.6383326,819.691107 33.9903273,823.133584 C34.3143299,827.923117 34.3143299,830.61723 33.828326,833.461015 C33.9903273,838.549895 33.828326,840.794989 33.5043233,842.890409 C33.828326,847.979289 33.828326,850.374056 33.9903273,852.768822 C33.9903273,856.510645 34.4763313,860.252468 34.8003339,863.994291 C34.9623352,865.640693 35.1243366,867.436769 35.2863379,869.083171 C35.7723419,871.777283 36.2583458,874.321723 36.5823485,877.015836 C37.0683524,879.560275 37.3923551,881.955042 37.7163577,884.499482 C38.6883657,889.588361 39.336371,892.132801 39.8223749,894.527567 C40.3083789,896.473315 40.6323815,898.419063 40.9563842,900.364811 C41.2803868,902.609905 41.6043895,904.854999 41.9283921,907.100093 C42.4143961,910.54257 42.7383987,913.985047 43.0624014,917.577197 C43.2244027,918.924253 43.2244027,920.27131 43.0624014,921.618366 C42.9004001,923.86346 42.9004001,926.108554 43.2244027,928.353647 C43.386404,930.149723 43.386404,931.945798 43.5484054,933.741873 C43.7104067,937.932714 43.7104067,942.123556 43.5484054,946.314398 C44.5204133,948.858838 43.7104067,951.253604 43.5484054,953.498698 C43.386404,955.444446 43.386404,957.240521 43.386404,959.186269 C43.2244027,961.431363 43.0624014,963.82613 43.0624014,966.071224 C43.0624014,967.567953 42.7383987,968.915009 42.5763974,970.262065 C42.4143961,971.609122 42.2523948,973.105851 42.5763974,974.60258 C43.0624014,978.19473 42.5763974,981.78688 43.5484054,985.229358 C43.872408,988.222816 44.0344093,989.270526 44.1964106,990.46791 C44.5204133,995.10777 45.1684186,997.951556 45.8164239,1000.94501 C46.3024278,1003.04044 46.4644292,1005.28553 47.5984384,1007.38095 C48.408445,1012.17048 49.380453,1015.16394 50.3524609,1018.30707 C51.1624675,1022.49791 51.1624675,1023.99464 51.6484715,1025.49137 C51.6484715,1029.68222 51.6484715,1030.28091 51.8104728,1030.8796 C52.1344755,1032.37633 52.2964768,1033.87306 52.4584781,1035.36979 C52.4584781,1038.96194 52.9444821,1042.70376 52.9444821,1046.29591 C52.9444821,1049.58871 53.1064834,1052.88152 52.6204794,1056.17432 C52.2964768,1059.01811 52.7824808,1061.71222 53.1064834,1064.40633 C52.9444821,1069.64489 53.2684847,1072.93769 53.4304861,1076.38017 C52.7824808,1080.57101 53.7544887,1083.26512 53.7544887,1085.95923 C53.91649,1088.80302 54.2404927,1091.49713 54.5644953,1094.19124 C54.0784913,1098.98078 54.5644953,1101.67489 54.7264966,1104.51868 C54.5644953,1107.66181 54.402494,1108.11083 54.402494,1108.55984 C54.402494,1112.00232 54.5644953,1115.59447 54.2404927,1119.03695 C53.91649,1123.52714 54.402494,1128.167 54.2404927,1132.65719 C54.2404927,1134.75261 53.91649,1136.9977 54.0784913,1139.09312 C54.2404927,1144.182 53.7544887,1149.27088 54.402494,1154.35976 C54.5644953,1156.00616 55.0504993,1157.65256 55.3745019,1159.44864 C55.6985046,1160.79569 56.0225072,1162.14275 56.1845085,1163.34013 C56.5085112,1165.43555 56.8325138,1167.3813 57.1565165,1169.47672 C57.4805191,1171.2728 57.4805191,1173.21855 58.1285244,1175.01462 C58.938531,1178.00808 58.7765297,1181.30088 59.424535,1184.29434 C60.3965429,1187.2878 60.5585443,1188.48518 60.2345416,1189.83224 C60.3965429,1194.02308 60.5585443,1196.26818 60.7205456,1198.66294 C61.0445482,1204.50019 61.3685509,1210.4871 61.5305522,1216.32435 C61.5305522,1220.06617 62.0165562,1223.80799 62.8265628,1227.54982 C63.1505654,1228.89687 63.3125667,1230.24393 63.7985707,1231.44131 C65.0945813,1234.88379 65.7425866,1238.32627 66.3905919,1241.91842 C66.8765959,1244.16351 67.5246011,1246.40861 68.0106051,1248.80337 C68.8206117,1252.39552 68.6586104,1255.98767 68.4966091,1259.57982 C68.3346078,1264.07001 68.3346078,1264.96805 68.1726064,1265.71641 C67.5246011,1269.15889 67.8486038,1272.45169 67.8486038,1275.89417 C67.8486038,1281.58174 67.3625998,1287.41899 65.5805853,1292.95688 C64.446576,1296.54903 63.6365694,1300.29086 62.6645615,1303.88301 C62.1785575,1305.82875 61.6925535,1307.7745 61.3685509,1309.72025 C60.7205456,1313.16273 60.3965429,1316.60521 60.8825469,1320.19736 L56.1845085,1320.19736 C56.3465099,1314.65946 56.1845085,1311.36665 57.1565165,1307.92418 C57.6425204,1306.27777 57.4805191,1304.33203 57.8045218,1302.53595 C58.6145284,1298.79413 59.7485376,1295.20198 60.8825469,1291.60983 C61.6925535,1289.21506 62.0165562,1286.67062 62.6645615,1284.27585 C63.3125667,1281.73141 63.3125667,1279.18697 63.3125667,1276.49286 C63.3125667,1273.64908 63.4745681,1270.80529 63.960572,1267.96151 C63.3125667,1263.32165 63.7985707,1260.02884 63.7985707,1256.73604 C63.7985707,1252.09618 63.4745681,1247.45632 61.8545548,1242.96613 C61.3685509,1241.76874 61.3685509,1240.27202 61.3685509,1238.92496 C61.2065495,1236.97921 60.5585443,1235.18314 59.7485376,1233.53673 C57.9665231,1230.3936 57.1565165,1226.95113 56.8325138,1223.50865 C56.5085112,1219.16813 56.0225072,1214.97729 55.6985046,1210.63678 C55.2125006,1206.89495 55.0504993,1205.09888 55.0504993,1203.15313 C54.2404927,1197.76491 54.2404927,1195.07079 53.91649,1192.37668 C53.4304861,1188.78453 52.9444821,1185.04271 52.2964768,1181.45056 C51.8104728,1177.85841 51.3244689,1174.11658 50.8384649,1170.52443 C50.6764636,1169.0277 50.6764636,1167.53098 50.5144622,1166.03425 C50.3524609,1164.53752 50.0284583,1163.04079 49.2184517,1161.69373 C48.2464437,1156.15583 47.9224411,1152.86303 47.5984384,1149.7199 C48.2464437,1144.48135 47.9224411,1140.44018 48.0844424,1136.54868 C48.0844424,1132.35784 47.9224411,1128.167 48.408445,1123.97616 C48.894449,1119.48597 49.380453,1114.84611 49.5424543,1110.35592 C49.7044556,1106.01541 49.8664569,1101.52522 49.2184517,1097.1847 C48.7324477,1091.94615 48.5704464,1090.59909 48.408445,1089.25204 C48.2464437,1087.30629 48.0844424,1085.36054 47.9224411,1083.41479 C47.2744358,1077.57755 47.9224411,1073.9854 47.7604397,1070.54292 C47.7604397,1068.29783 47.7604397,1066.05274 47.5984384,1063.80764 C47.4364371,1061.86189 47.2744358,1059.91615 47.1124345,1057.9704 C47.1124345,1056.02465 47.1124345,1054.22857 47.2744358,1052.28283 C47.2744358,1050.18741 47.4364371,1047.94231 47.4364371,1045.84689 C46.7902411,1044.05583 48.5695381,1039.34695 48.0505847,1032.46576 C47.7910959,1029.02501 47.6461388,1023.38087 46.4369854,1018.5 C45.227832,1013.61913 42.9546995,1009.50228 42.9004001,1009.3267 C41.6043895,1005.4352 41.2803868,1001.39403 40.4703802,997.502537 C39.8223749,994.509079 39.0123683,991.51562 39.1743696,988.522162 C38.2023617,984.33132 38.364363,981.487535 37.8783591,978.943095 C37.8783591,975.201272 38.0403604,974.452907 38.0403604,973.854216 C37.7163577,969.214355 38.2023617,964.724167 38.5263643,960.084307 C38.6883657,958.288232 38.6883657,956.492157 38.6883657,954.696082 C38.6883657,950.654913 38.5263643,946.613744 38.850367,942.572575 C39.0123683,938.830752 38.850367,935.238602 38.5263643,931.496779 C38.364363,930.299395 38.0403604,929.102012 37.8783591,927.754956 C37.5543564,924.162806 37.2303538,920.570656 36.9063511,916.978505 C36.4203471,910.841916 36.4203471,904.555653 35.1243366,898.568736 C33.9903273,893.62953 33.1803207,888.690323 32.0463114,883.751117 C31.0743035,879.709948 30.4262982,875.668779 30.5882995,871.477937 C29.6162916,865.491021 29.1302876,862.048543 29.4542903,858.30672 C29.6162916,856.510645 29.4542903,854.71457 29.4542903,852.918495 C29.2922889,850.224383 29.4542903,847.53027 29.4542903,844.836157 L29.4542903,838.998914 C29.6162916,831.814613 29.2922889,827.773444 29.4542903,823.582603 C29.4542903,817.745359 29.6162916,811.908115 29.6162916,806.070871 C29.6162916,801.880029 29.4542903,797.689187 29.4542903,793.498345 C28.4822823,790.205541 28.4822823,788.11012 28.4822823,786.014699 C28.4822823,784.068951 28.320281,782.272876 28.1582797,780.327128 C27.9962784,778.680726 27.9962784,777.183997 27.9962784,775.537595 C28.1582797,772.693809 27.9962784,769.850024 27.6722757,766.856565 C27.1862717,762.366378 27.0242704,757.87619 26.0522625,753.535675 C26.7002678,747.848104 26.0522625,743.657263 25.4042572,739.316748 C24.9182532,735.425252 24.4322493,731.533756 23.9462453,727.64226 C23.6222426,725.247493 23.1362387,722.852727 22.812236,720.45796 C22.6502347,719.110904 22.3262321,717.91352 22.4882334,716.416791 C21.6782268,711.178239 21.3542241,708.783472 21.1922228,706.239032 C20.8682201,701.748845 20.5442175,697.108984 20.2202149,692.469124 C20.0582135,690.673049 20.2202149,688.727301 21.0302215,686.931226 C21.5162254,685.733842 21.5162254,684.536459 21.6782268,683.189402 C21.6782268,678.998561 21.5162254,674.807719 21.6782268,670.467204 C21.8402281,665.228652 22.1642307,659.840427 22.4882334,654.601875 C22.6502347,651.608416 22.9742373,648.764631 23.29824,645.771172 C22.812236,638.586872 22.6502347,633.947011 22.812236,629.157478 C22.3262321,621.07514 22.3262321,615.836588 22.3262321,610.747709 C23.29824,607.005886 23.4602413,605.509156 23.29824,604.1621 C22.4882334,598.773875 22.4882334,593.235977 22.3262321,587.847752 C22.1642307,582.758872 21.6782268,577.669993 21.1922228,572.581114 C20.8682201,568.390272 20.5442175,564.19943 20.2202149,560.008588 C19.7342109,557.01513 19.4102082,554.919709 19.2482069,552.824288 C18.9242043,549.681157 18.6002016,546.538025 18.4382003,543.394894 C18.1141977,540.551109 17.790195,540.10209 17.9521963,539.653071 C18.4382003,537.707323 18.1141977,535.761575 17.9521963,533.815827 C17.4661924,526.930873 16.8181871,520.045918 16.3321831,513.160964 C16.0081805,509.718487 16.0081805,506.126337 15.8461791,502.683859 C15.6841778,500.13942 15.3601752,497.445307 15.1981738,494.900868 C15.0361725,491.757736 14.8741712,488.614605 14.7121699,485.471474 C15.3601752,481.72965 15.3601752,479.334884 15.1981738,476.940117 C14.8741712,471.851238 14.5501686,466.912031 13.7401619,461.972825 C13.4161593,459.727731 13.254158,457.482637 13.0921566,455.237543 C12.6061527,450.747356 12.1201487,446.107495 11.6341447,441.617308 C11.1481408,437.276793 10.6621368,432.936278 10.1761328,428.446091 C10.0141315,427.099034 9.85213019,425.751978 9.69012887,424.404922 C9.52812755,421.112117 9.36612622,417.968986 9.2041249,414.676182 C10.3381342,405.845479 10.0141315,399.409544 10.0141315,392.973608 C10.0141315,389.381458 9.85213019,385.789308 10.1761328,382.197158 C10.3381342,380.550756 10.1761328,378.754681 10.1761328,377.108279 C10.3381342,374.11482 10.5001355,371.271035 10.3381342,368.277576 C10.8241381,364.685426 11.3101421,363.039024 10.6621368,361.242949 C10.1761328,357.501126 10.3381342,357.052107 10.5001355,356.603088 C10.8241381,354.65734 11.1481408,352.711592 10.8241381,350.765844 L10.8241381,339.390702 C10.6621368,334.601169 10.6621368,329.961308 10.9861395,325.171775 C10.5001355,320.232568 10.5001355,318.28682 10.3381342,316.341072 C10.1761328,311.401866 10.1761328,309.605791 10.0141315,307.809716 C9.2041249,303.020182 8.71812093,300.026724 8.55611961,296.883593 C8.39411829,295.237191 8.07011564,293.740461 7.90811432,292.094059 C7.58411167,288.950928 7.26010903,285.658124 6.93610638,282.514992 C7.0981077,277.875132 5.96409844,273.68429 5.80209712,269.343775 C5.6400958,264.554242 5.31609315,259.914381 5.15409183,255.124848 C4.99209051,251.083679 4.99209051,247.04251 4.66808786,243.001341 C4.50608654,240.456901 3.85808124,237.912462 3.69607992,235.218349 C3.37207728,232.823582 3.37207728,230.428816 3.21007595,228.034049 C2.56207066,223.843207 2.07606669,222.196805 1.91406537,220.40073 C1.59006272,217.257599 0.942057433,213.964794 0.942057433,210.821663 C0.942057433,205.134092 0.132050818,199.446521 0.456053464,193.609277 C0.618054787,187.921706 0.942057433,182.234135 1.91406537,176.696237 C2.72407198,171.906703 3.85808124,167.11717 4.66808786,162.477309 C5.31609315,159.184505 5.6400958,155.742028 5.96409844,152.299551 C6.45010241,148.108709 6.77410506,143.917867 6.93610638,139.727025 C7.0981077,136.284548 6.93610638,132.692398 6.77410506,129.249921 C6.61210373,125.807444 6.12609977,122.215294 6.12609977,118.772816 C6.12609977,115.330339 5.6400958,112.037535 5.15409183,108.595058" id="Shape"></path>
                            </g>
                        </g>
                    </g>
                </g>
            </g>
        </g>
    </g>
</svg>