<?xml version="1.0" encoding="UTF-8"?>
<svg width="1276px" height="23px" viewBox="0 0 1276 23" version="1.1" xmlns="http://www.w3.org/2000/svg" xmlns:xlink="http://www.w3.org/1999/xlink">
    <!-- Generator: Sketch 41.2 (35397) - http://www.bohemiancoding.com/sketch -->
    <title>line</title>
    <desc>Created with Sketch.</desc>
    <defs></defs>
    <g id="Page-1" stroke="none" stroke-width="1" fill="none" fill-rule="evenodd">
        <g id="line" transform="translate(637.974778, 17.509271) rotate(6.000000) translate(-637.974778, -17.509271) translate(-1.025222, -52.490729)" fill="#E38B11">
            <g id="Group-2" transform="translate(-0.000000, -0.000000)">
                <g id="Page-1" transform="translate(-0.000000, -0.000000)">
                    <g id="Desktop-Landscape" transform="translate(-0.000000, -0.000000)">
                        <g id="Group-2" transform="translate(-0.000000, -0.000000)">
                            <g id="tree" transform="translate(638.670180, 70.053427) rotate(87.000000) translate(-638.670180, -70.053427) translate(602.170180, -567.446573)">
                                <g id="Scan_xA0_Image_1_" transform="translate(0.064349, 0.635103)">
                                    <g id="Group" transform="translate(-0.000000, 0.000000)">
                                        <path d="M0.0537358265,0.888507107 C0.0537358265,0.888507107 1.94147275,-1.66737572 2.54418377,1.92762684 C3.1468948,5.52262939 4.29962938,26.2140736 4.29962938,26.2140736 C4.29962938,26.2140736 5.60166101,48.5705834 6.67377971,69.0594102 C6.8751169,72.9070838 7.60496647,75.9314865 7.76021366,79.1017331 C7.91546084,82.2719797 8.22227876,100.707459 9.17705858,102.134332 C9.51608734,104.156192 9.12243709,107.959949 9.46146585,110.126228 C9.46146585,113.592272 9.63098022,115.75855 10.1395234,117.78041 C10.4785522,119.369014 10.4785522,121.102036 10.3090377,122.69064 C10.8175809,127.60087 10.3090377,130.633659 10.6480665,133.666448 C10.3090377,138.576678 9.97000898,141.753887 9.63098022,144.786676 C9.46146585,146.952954 9.29195147,149.263651 8.95292271,151.429928 C8.78340833,153.018531 8.44437957,154.751555 8.10535081,156.340159 C6.57972138,161.683644 5.73214947,167.171549 4.88457756,172.659453 C4.20652004,176.558753 4.20652004,180.458054 4.20652004,184.357353 C4.20652004,187.534562 4.37603442,190.711769 4.03700565,193.888977 C4.20652004,196.632929 4.5455488,198.654789 4.71506318,200.821066 C4.88457756,204.575948 5.05409194,205.44246 5.05409194,206.164553 C5.39312071,208.619667 5.73214947,211.074783 6.07117823,213.674316 C6.410207,218.295709 6.57972138,220.028732 7.08826452,221.761754 C7.2577789,225.227799 7.42729329,226.527565 7.93583643,227.827333 C7.59680767,233.315237 8.44437957,237.214538 8.44437957,240.96942 C8.44437957,242.991278 8.78340833,244.868719 8.95292271,246.890579 C9.12243709,250.212205 9.46146585,253.389413 9.63098022,256.711039 C9.80049465,260.61034 10.4785522,264.50964 10.6480665,268.408941 C10.8175809,273.319171 11.4956385,278.229401 12.0041815,283.139631 C12.5127247,288.338699 13.3602967,293.682184 13.8688398,298.881251 C14.2078685,302.491715 14.7164117,306.102178 14.8859261,309.712641 C15.2249548,314.76729 15.2249548,319.67752 15.5639836,324.732169 C15.0554405,328.920307 15.0554405,331.231003 14.7164117,333.397281 C14.7164117,336.43007 14.8859261,338.740766 14.8859261,341.195882 C14.8859261,344.950764 15.0554405,348.561227 14.7164117,352.316109 C14.5468973,354.771223 14.7164117,357.370757 15.0554405,359.825873 C15.2249548,361.270058 15.0554405,362.569824 15.0554405,364.01401 C15.0554405,365.313777 14.8859261,366.613544 14.8859261,367.91331 C14.8859261,371.234936 15.0554405,374.700982 15.0554405,378.022608 C15.0554405,380.910978 14.8859261,383.799349 14.8859261,386.543301 C14.8859261,388.276324 14.8859261,390.009346 15.0554405,391.742368 C14.2078685,394.630739 14.5468973,396.50818 14.5468973,398.385621 C14.7164117,400.840736 14.5468973,403.44027 14.5468973,405.895385 C14.5468973,407.195152 14.5468973,408.494918 14.7164117,409.794685 C14.8859261,411.238871 15.0554405,412.538637 15.2249548,413.982823 C15.3944692,415.427008 15.733498,416.871194 15.9030123,418.315379 C16.4115555,422.070261 16.5810699,425.10305 16.9200986,428.135839 C17.089613,429.291187 17.2591274,430.590954 17.4286418,431.746303 C17.5981561,434.201417 17.7676706,436.512114 18.1066993,438.96723 C18.6152425,442.000018 18.2762137,445.032807 19.1237856,447.921179 C19.2933,450.520712 19.2933,452.398153 19.4628144,454.275593 C19.6323288,457.741638 19.8018431,461.207683 20.1408719,464.673729 C20.6494151,469.872796 20.4799006,475.071863 21.1579582,480.27093 C21.3274726,482.003952 21.1579582,483.736974 21.3274726,485.469997 C21.4969869,489.224879 21.8360157,492.835342 22.0055301,496.590224 C22.1750444,499.91185 22.1750444,503.089059 22.1750444,506.410685 C22.1750444,507.999288 22.3445589,509.732311 22.3445589,511.320914 C22.6835876,514.931378 22.5140732,518.541841 22.853102,522.152304 C23.1921307,526.629279 23.3616451,531.106253 24.2092171,535.583228 C24.7177602,538.32718 24.8872746,539.626948 25.0567889,540.782295 C25.9043609,544.970433 25.9043609,548.147641 26.2433897,551.036011 C27.0909615,556.379498 27.4299903,561.722983 28.2775622,567.066469 C28.616591,569.232747 28.9556197,571.399024 29.2946485,573.420884 C29.4641629,580.497392 29.6336773,583.963438 29.6336773,587.429482 C28.7861053,592.484131 28.616591,594.50599 28.9556197,596.672269 C29.1251341,598.116454 29.1251341,599.41622 28.9556197,600.860405 C28.7861053,602.593428 28.616591,604.32645 28.9556197,606.059472 C28.7861053,613.424818 28.616591,617.468537 28.616591,621.512256 C28.7861053,627.288997 28.7861053,633.065739 28.1080478,638.84248 C27.9385335,640.575503 27.9385335,642.308525 27.769019,644.041548 C27.769019,646.352243 27.9385335,648.66294 27.5995047,650.973637 C27.0909615,654.872937 27.0909615,658.916657 27.0909615,662.815957 C27.0909615,666.42642 26.7519327,670.036884 27.0909615,673.647347 C27.4299903,676.680136 27.9385335,679.568506 27.5995047,682.745715 C27.4299903,684.1899 28.1080478,685.634085 28.2775622,687.07827 C28.9556197,690.977571 29.6336773,694.732453 29.6336773,698.631753 C30.4812492,703.541983 31.1593067,707.730121 32.0068786,711.918258 C32.5154218,715.239885 32.6849361,716.972907 33.0239649,718.705929 C33.532508,723.616159 33.8715368,726.360112 34.0410511,729.248482 C34.2105656,731.992435 34.2105656,734.736386 34.7191088,737.480339 C34.8886231,744.26801 35.3971663,747.878473 35.3971663,751.488936 C35.3971663,753.366377 35.736195,755.0994 35.736195,756.832422 C35.9057094,760.00963 35.9057094,763.186838 36.0752238,766.364045 C36.2447381,768.819161 36.2447381,771.418694 36.4142526,773.873809 C35.736195,779.650551 35.9057094,781.961248 35.9057094,784.416362 C35.9057094,787.737988 36.2447381,790.915197 35.5666806,794.236823 C35.9057094,798.858215 35.9057094,801.457749 35.3971663,804.201701 C35.5666806,809.111932 35.3971663,811.27821 35.0581375,813.300069 C35.3971663,818.210299 35.3971663,820.520996 35.5666806,822.831692 C35.5666806,826.442155 36.0752238,830.052619 36.4142526,833.663082 C36.5837669,835.251686 36.7532813,836.984709 36.9227956,838.573313 C37.4313388,841.172846 37.9398819,843.627961 38.2789107,846.227495 C38.7874539,848.68261 39.1264826,850.993306 39.4655114,853.448422 C40.4825977,858.358652 41.1606552,860.813767 41.6691984,863.124463 C42.1777415,865.001904 42.5167702,866.879345 42.855799,868.756786 C43.1948277,870.923064 43.5338565,873.089342 43.8728853,875.25562 C44.3814285,878.577246 44.7204572,881.898873 45.059486,885.364917 C45.2290003,886.664684 45.2290003,887.964451 45.059486,889.264218 C44.8899715,891.430496 44.8899715,893.596774 45.2290003,895.763051 C45.3985147,897.496075 45.3985147,899.229097 45.5680292,900.962119 C45.7375435,905.005838 45.7375435,909.049557 45.5680292,913.093276 C46.5851154,915.548391 45.7375435,917.859087 45.5680292,920.025365 C45.3985147,921.902806 45.3985147,923.635829 45.3985147,925.51327 C45.2290003,927.679548 45.059486,929.990245 45.059486,932.156523 C45.059486,933.600708 44.7204572,934.900474 44.5509428,936.200241 C44.3814285,937.500008 44.211914,938.944194 44.5509428,940.388379 C45.059486,943.854423 44.5509428,947.320468 45.5680292,950.642095 C45.9070579,953.530465 46.0765723,954.541395 46.2460867,955.696744 C46.5851154,960.173718 47.263173,962.91767 47.9412305,965.806037 C48.4497736,967.827905 48.619288,969.994179 49.8058886,972.016038 C50.6534606,976.637428 51.6705468,979.5258 52.6876331,982.558588 C53.5352051,986.602305 53.5352051,988.046491 54.0437482,989.490677 C54.0437482,993.534404 54.0437482,994.112077 54.2132626,994.689749 C54.5522914,996.133935 54.7218057,997.578121 54.8913201,999.022307 C54.8913201,1002.48835 55.3998632,1006.09881 55.3998632,1009.56486 C55.3998632,1012.74206 55.5693776,1015.91927 55.0608344,1019.09648 C54.7218057,1021.84043 55.2303489,1024.43997 55.5693776,1027.0395 C55.3998632,1032.09415 55.738892,1035.27136 55.9084064,1038.59299 C55.2303489,1042.6367 56.2474352,1045.23623 56.2474352,1047.83576 C56.4169496,1050.57972 56.7559783,1053.17925 57.0950071,1055.77878 C56.5864639,1060.40018 57.0950071,1062.99971 57.2645214,1065.74367 C57.0950071,1068.77646 56.9254927,1069.20972 56.9254927,1069.64296 C56.9254927,1072.96459 57.0950071,1076.43064 56.7559783,1079.75226 C56.4169496,1084.08482 56.9254927,1088.5618 56.7559783,1092.89436 C56.7559783,1094.91621 56.4169496,1097.08249 56.5864639,1099.10435 C56.7559783,1104.01458 56.2474352,1108.92481 56.9254927,1113.83504 C57.0950071,1115.42364 57.6035502,1117.01224 57.942579,1118.74527 C58.2816077,1120.04503 58.6206365,1121.3448 58.7901509,1122.50015 C59.1291797,1124.52201 59.4682084,1126.39945 59.8072372,1128.42131 C60.1462659,1130.15433 60.1462659,1132.03178 60.8243235,1133.76479 C61.6718954,1136.65317 61.502381,1139.83037 62.1804385,1142.71874 C63.1975248,1145.60711 63.3670392,1146.76246 63.0280104,1148.06223 C63.1975248,1152.10595 63.3670392,1154.27223 63.5365535,1156.58292 C63.8755823,1162.21525 64.2146111,1167.99198 64.3841255,1173.62431 C64.3841255,1177.23477 64.8926686,1180.84523 65.7402405,1184.4557 C66.0792693,1185.75546 66.2487836,1187.05524 66.7573268,1188.21058 C68.1134418,1191.53221 68.7914994,1194.85384 69.4695569,1198.31988 C69.9781001,1200.48616 70.6561576,1202.65244 71.1647007,1204.96313 C72.0122726,1208.42918 71.8427582,1211.89522 71.6732439,1215.36127 C71.5037294,1219.69382 71.5037294,1220.56034 71.3342151,1221.28243 C70.6561576,1224.60405 70.9951864,1227.78126 70.9951864,1231.10289 C70.9951864,1236.59079 70.4866432,1242.22312 68.621985,1247.5666 C67.4353843,1251.03264 66.5878124,1254.64311 65.5707261,1258.10916 C65.062183,1259.98659 64.5536398,1261.86403 64.2146111,1263.74148 C63.5365535,1267.0631 63.1975248,1270.38473 63.706068,1273.85078 L58.7901509,1273.85078 C58.9596652,1268.50729 58.7901509,1265.33008 59.8072372,1262.00846 C60.3157803,1260.41985 60.1462659,1258.54241 60.4852947,1256.80939 C61.3328666,1253.19893 62.5194673,1249.73288 63.706068,1246.26684 C64.5536398,1243.95614 64.8926686,1241.50102 65.5707261,1239.19032 C66.2487836,1236.73521 66.2487836,1234.28009 66.2487836,1231.68056 C66.2487836,1228.93661 66.418298,1226.19266 66.9268412,1223.44871 C66.2487836,1218.97174 66.7573268,1215.79452 66.7573268,1212.61732 C66.7573268,1208.14034 66.418298,1203.66337 64.7231542,1199.33081 C64.2146111,1198.17546 64.2146111,1196.73128 64.2146111,1195.43151 C64.0450967,1193.55407 63.3670392,1191.82105 62.5194673,1190.23244 C60.654809,1187.19965 59.8072372,1183.87803 59.4682084,1180.5564 C59.1291797,1176.36826 58.6206365,1172.32454 58.2816077,1168.13641 C57.7730646,1164.52594 57.6035502,1162.79292 57.6035502,1160.91548 C56.7559783,1155.71642 56.7559783,1153.11688 56.4169496,1150.51735 C55.9084064,1147.0513 55.3998632,1143.44084 54.7218057,1139.9748 C54.2132626,1136.50875 53.7047194,1132.89828 53.1961763,1129.43224 C53.0266619,1127.98805 53.0266619,1126.54387 52.8571476,1125.09969 C52.6876331,1123.6555 52.3486044,1122.21131 51.5010325,1120.91154 C50.4839461,1115.56806 50.1449174,1112.39085 49.8058886,1109.35807 C50.4839461,1104.30342 50.1449174,1100.40412 50.3144318,1096.64923 C50.3144318,1092.60551 50.1449174,1088.5618 50.6534606,1084.51808 C51.1620038,1080.18552 51.6705468,1075.70855 51.8400613,1071.37599 C52.0095756,1067.18786 52.17909,1062.8553 51.5010325,1058.66716 C50.9924893,1053.61251 50.822975,1052.31274 50.6534606,1051.01298 C50.4839461,1049.13554 50.3144318,1047.25809 50.1449174,1045.38065 C49.4668599,1039.74833 50.1449174,1036.28229 49.975403,1032.96066 C49.975403,1030.79438 49.975403,1028.62811 49.8058886,1026.46182 C49.6363743,1024.58438 49.4668599,1022.70695 49.2973455,1020.8295 C49.2973455,1018.95206 49.2973455,1017.21903 49.4668599,1015.3416 C49.4668599,1013.31974 49.6363743,1011.15346 49.6363743,1009.1316 C48.96021,1007.40342 50.8220245,1002.85985 50.279004,996.220226 C50.007481,992.900266 49.8558012,987.454268 48.5905714,982.744745 C47.3253417,978.035222 44.9467892,974.062897 44.8899715,973.893481 C43.5338565,970.138595 43.1948277,966.239293 42.3472559,962.484414 C41.6691984,959.596044 40.8216264,956.707673 40.9911409,953.819303 C39.9740546,949.775584 40.1435689,947.031632 39.6350257,944.576516 C39.6350257,940.966053 39.8045402,940.24396 39.8045402,939.666287 C39.4655114,935.189312 39.9740546,930.856755 40.3130833,926.379781 C40.4825977,924.646759 40.4825977,922.913737 40.4825977,921.180714 C40.4825977,917.281414 40.3130833,913.382113 40.6521121,909.482813 C40.8216264,905.872349 40.6521121,902.406305 40.3130833,898.795841 C40.1435689,897.640492 39.8045402,896.485144 39.6350257,895.185378 C39.295997,891.719333 38.9569682,888.253289 38.6179394,884.787243 C38.1093964,878.866084 38.1093964,872.800505 36.7532813,867.023763 C35.5666806,862.257952 34.7191088,857.49214 33.532508,852.726329 C32.5154218,848.827028 31.8373642,844.927728 32.0068786,840.884009 C30.9897923,835.107268 30.4812492,831.785641 30.820278,828.175178 C30.9897923,826.442155 30.820278,824.709133 30.820278,822.976111 C30.6507635,820.376578 30.820278,817.777044 30.820278,815.17751 L30.820278,809.545188 C30.9897923,802.613097 30.6507635,798.713797 30.820278,794.670079 C30.820278,789.037756 30.9897923,783.405433 30.9897923,777.77311 C30.9897923,773.729391 30.820278,769.685672 30.820278,765.641952 C29.8031917,762.464745 29.8031917,760.442885 29.8031917,758.421026 C29.8031917,756.543585 29.6336773,754.810562 29.4641629,752.933121 C29.2946485,751.344518 29.2946485,749.900333 29.2946485,748.311729 C29.4641629,745.567776 29.2946485,742.823825 28.9556197,739.935453 C28.4470765,735.602898 28.2775622,731.270342 27.2604759,727.082204 C27.9385335,721.5943 27.2604759,717.550581 26.5824184,713.362444 C26.0738752,709.607562 25.5653321,705.85268 25.0567889,702.097798 C24.7177602,699.787101 24.2092171,697.476405 23.8701882,695.165708 C23.7006739,693.865942 23.3616451,692.710593 23.5311595,691.266408 C22.6835876,686.211759 22.3445589,683.901063 22.1750444,681.445947 C21.8360157,677.113392 21.4969869,672.636417 21.1579582,668.159443 C20.9884438,666.42642 21.1579582,664.54898 22.0055301,662.815957 C22.5140732,661.660608 22.5140732,660.50526 22.6835876,659.205493 C22.6835876,655.161775 22.5140732,651.118056 22.6835876,646.929918 C22.853102,641.875269 23.1921307,636.676202 23.5311595,631.621554 C23.7006739,628.733183 24.0397027,625.989231 24.3787314,623.10086 C23.8701882,616.16877 23.7006739,611.691795 23.8701882,607.070403 C23.3616451,599.271802 23.3616451,594.217153 23.3616451,589.306923 C24.3787314,585.69646 24.5482459,584.252274 24.3787314,582.952507 C23.5311595,577.75344 23.5311595,572.409955 23.3616451,567.210888 C23.1921307,562.300657 22.6835876,557.390427 22.1750444,552.480197 C21.8360157,548.436478 21.4969869,544.392759 21.1579582,540.34904 C20.6494151,537.460669 20.3103863,535.43881 20.1408719,533.41695 C19.8018431,530.384161 19.4628144,527.351372 19.2933,524.318583 C18.9542713,521.574631 18.6152425,521.141375 18.7847568,520.708119 C19.2933,518.830678 18.9542713,516.953237 18.7847568,515.075796 C18.2762137,508.432544 17.5981561,501.789291 17.089613,495.146039 C16.7505843,491.824413 16.7505843,488.358368 16.5810699,485.036741 C16.4115555,482.581627 16.0725268,479.982093 15.9030123,477.526978 C15.733498,474.494188 15.5639836,471.461399 15.3944692,468.428611 C16.0725268,464.818146 16.0725268,462.50745 15.9030123,460.196754 C15.5639836,455.286524 15.2249548,450.520712 14.377383,445.7549 C14.0383542,443.588622 13.8688398,441.422344 13.6993254,439.256066 C13.1907823,434.92351 12.6822391,430.446535 12.173696,426.11398 C11.6651528,421.925842 11.1566097,417.737704 10.6480665,413.405149 C10.4785522,412.105382 10.3090377,410.805615 10.1395234,409.505849 C9.97000898,406.32864 9.80049465,403.295851 9.63098022,400.118644 C10.8175809,391.59795 10.4785522,385.387953 10.4785522,379.177956 C10.4785522,375.711911 10.3090377,372.245866 10.6480665,368.779822 C10.8175809,367.191218 10.6480665,365.458196 10.6480665,363.869592 C10.8175809,360.981221 10.9870953,358.237269 10.8175809,355.348898 C11.326124,351.882853 11.8346672,350.294249 11.1566097,348.561227 C10.6480665,344.950764 10.8175809,344.517508 10.9870953,344.084252 C11.326124,342.206811 11.6651528,340.32937 11.326124,338.451929 L11.326124,327.476121 C11.1566097,322.854728 11.1566097,318.377753 11.4956385,313.75636 C10.9870953,308.990548 10.9870953,307.113107 10.8175809,305.235666 C10.6480665,300.469855 10.6480665,298.736833 10.4785522,297.00381 C9.63098022,292.382417 9.12243709,289.494046 8.95292271,286.461258 C8.78340833,284.872654 8.44437957,283.428468 8.27486519,281.839864 C7.93583643,278.807075 7.59680767,275.629868 7.2577789,272.597078 C7.42729329,268.120104 6.24069261,264.076385 6.07117823,259.888247 C5.90166385,255.266854 5.56263509,250.789879 5.39312071,246.168487 C5.22360633,242.269186 5.22360633,238.369886 4.88457756,234.470585 C4.71506318,232.01547 4.03700565,229.560355 3.86749127,226.960821 C3.52846251,224.650124 3.52846251,222.339429 3.35894813,220.028732 C2.6808906,215.985013 2.17234746,214.396409 2.00283308,212.663386 C1.66380431,209.630598 0.985746788,206.453389 0.985746788,203.4206 C0.985746788,197.932696 0.138174877,192.444792 0.47720364,186.812469 C0.646718021,181.324565 0.985746788,175.83666 2.00283308,170.493175 C2.85040498,165.871781 4.03700565,161.250388 4.88457756,156.773413 C5.56263509,153.596206 5.90166385,150.27458 6.24069261,146.952954 C6.74923576,142.909235 7.08826452,138.865515 7.2577789,134.821796 C7.42729329,131.50017 7.2577789,128.034125 7.08826452,124.712499 C6.91875014,121.390873 6.410207,117.924829 6.410207,114.603202 C6.410207,111.281575 5.90166385,108.104368 5.39312071,104.782742" id="Shape"></path>
                                    </g>
                                </g>
                            </g>
                        </g>
                    </g>
                </g>
            </g>
        </g>
    </g>
</svg>