<?xml version="1.0" encoding="UTF-8"?>
<svg width="1280px" height="24px" viewBox="0 0 1280 24" version="1.1" xmlns="http://www.w3.org/2000/svg" xmlns:xlink="http://www.w3.org/1999/xlink">
    <!-- Generator: Sketch 41.2 (35397) - http://www.bohemiancoding.com/sketch -->
    <title>Group 2</title>
    <desc>Created with Sketch.</desc>
    <defs></defs>
    <g id="Page-1" stroke="none" stroke-width="1" fill="none" fill-rule="evenodd">
        <g id="Desktop-Landscape" transform="translate(0.000000, -324.000000)" fill="#000000">
            <g id="Group-2" transform="translate(-29.000000, 269.000000)">
                <g id="tree" transform="translate(662.353868, 72.214199) scale(-1, 1) rotate(-267.000000) translate(-662.353868, -72.214199) translate(624.853868, -588.285801)">
                    <g id="Scan_xA0_Image_1_" transform="translate(-0.000000, 0.000000)">
                        <g id="Group" transform="translate(-0.000000, 0.000000)">
                            <path d="M0.0558290858,0.920833709 C0.0558290858,0.920833709 2.0171021,-1.72803994 2.64329151,1.99775979 C3.26948092,5.72355951 4.46711985,27.1678217 4.46711985,27.1678217 C4.46711985,27.1678217 5.81987164,50.3377296 6.93375433,71.5720025 C7.14293454,75.5596662 7.90121513,78.6941059 8.06250991,81.9796957 C8.22380469,85.2652856 8.54257459,104.371504 9.53454751,105.850291 C9.88678301,107.945712 9.47779826,111.887862 9.83003376,114.132956 C9.83003376,117.725106 10.0061515,119.9702 10.5345048,122.065621 C10.8867403,123.712023 10.8867403,125.508098 10.7106225,127.1545 C11.2389758,132.243379 10.7106225,135.386511 11.062858,138.529642 C10.7106225,143.618521 10.358387,146.911326 10.0061515,150.054457 C9.83003376,152.299551 9.65391601,154.694318 9.30168051,156.939411 C9.12556276,158.585813 8.77332726,160.381889 8.42109175,162.028291 C6.83603199,167.566189 5.95544323,173.25376 5.07485447,178.941331 C4.37038347,182.9825 4.37038347,187.023669 4.37038347,191.064837 C4.37038347,194.357642 4.54650122,197.650446 4.19426571,200.94325 C4.37038347,203.787036 4.72261897,205.882457 4.89873672,208.12755 C5.07485447,212.019046 5.25097222,212.917084 5.25097222,213.665449 C5.60320773,216.209888 5.95544323,218.754328 6.30767873,221.44844 C6.65991424,226.237974 6.83603199,228.034049 7.36438524,229.830124 C7.54050299,233.422274 7.71662075,234.76933 8.244974,236.116387 C7.8927385,241.803958 8.77332726,245.845127 8.77332726,249.736623 C8.77332726,251.832043 9.12556276,253.777791 9.30168051,255.873212 C9.47779826,259.315689 9.83003376,262.608494 10.0061515,266.050971 C10.1822693,270.09214 10.8867403,274.133309 11.062858,278.174478 C11.2389758,283.263357 11.9434468,288.352236 12.4718,293.441116 C13.0001533,298.829341 13.8807421,304.367239 14.4090953,309.755464 C14.7613308,313.497287 15.2896841,317.23911 15.4658018,320.980933 C15.8180373,326.219485 15.8180373,331.308365 16.1702728,336.546917 C15.6419196,340.887432 15.6419196,343.282198 15.2896841,345.527292 C15.2896841,348.670423 15.4658018,351.06519 15.4658018,353.60963 C15.4658018,357.501126 15.6419196,361.242949 15.2896841,365.134445 C15.1135663,367.678884 15.2896841,370.372997 15.6419196,372.917437 C15.8180373,374.414166 15.6419196,375.761222 15.6419196,377.257951 C15.6419196,378.605008 15.4658018,379.952064 15.4658018,381.29912 C15.4658018,384.741597 15.6419196,388.333748 15.6419196,391.776225 C15.6419196,394.769683 15.4658018,397.763142 15.4658018,400.606927 C15.4658018,402.403002 15.4658018,404.199077 15.6419196,405.995152 C14.7613308,408.988611 15.1135663,410.934359 15.1135663,412.880107 C15.2896841,415.424546 15.1135663,418.118659 15.1135663,420.663099 C15.1135663,422.010155 15.1135663,423.357211 15.2896841,424.704267 C15.4658018,426.200997 15.6419196,427.548053 15.8180373,429.044782 C15.9941551,430.541511 16.3463906,432.038241 16.5225083,433.53497 C17.0508616,437.426466 17.2269793,440.569597 17.5792148,443.712728 C17.7553326,444.910112 17.9314503,446.257168 18.1075681,447.454552 C18.2836858,449.998991 18.4598036,452.393758 18.8120391,454.938198 C19.3403924,458.081329 18.9881568,461.22446 19.8687456,464.217919 C20.0448634,466.912031 20.0448634,468.857779 20.2209811,470.803527 C20.3970989,474.395677 20.5732166,477.987827 20.9254521,481.579978 C21.4538054,486.968203 21.2776876,492.356428 21.9821586,497.744653 C22.1582764,499.540728 21.9821586,501.336803 22.1582764,503.132878 C22.3343941,507.024374 22.6866296,510.766197 22.8627474,514.657693 C23.0388651,518.10017 23.0388651,521.392975 23.0388651,524.835452 C23.0388651,526.481854 23.2149829,528.277929 23.2149829,529.924331 C23.5672184,533.666154 23.3911006,537.407977 23.7433361,541.1498 C24.0955716,545.789661 24.2716894,550.429521 25.1522782,555.069382 C25.6806314,557.913167 25.8567492,559.260224 26.0328669,560.457607 C26.9134557,564.798122 26.9134557,568.090926 27.2656912,571.084384 C28.1462799,576.622283 28.4985154,582.160181 29.3791042,587.698079 C29.7313397,589.943173 30.0835752,592.188266 30.4358107,594.283687 C30.6119285,601.61766 30.7880462,605.209811 30.7880462,608.801961 C29.9074574,614.040513 29.7313397,616.135934 30.0835752,618.381028 C30.2596929,619.877757 30.2596929,621.224813 30.0835752,622.721542 C29.9074574,624.517617 29.7313397,626.313692 30.0835752,628.109767 C29.9074574,635.743086 29.7313397,639.933928 29.7313397,644.12477 C29.9074574,650.111687 29.9074574,656.098604 29.2029864,662.085521 C29.0268687,663.881596 29.0268687,665.677671 28.8507509,667.473746 C28.8507509,669.868512 29.0268687,672.263279 28.6746332,674.658046 C28.1462799,678.699215 28.1462799,682.890057 28.1462799,686.931226 C28.1462799,690.673049 27.7940444,694.414872 28.1462799,698.156695 C28.4985154,701.299826 29.0268687,704.293284 28.6746332,707.586089 C28.4985154,709.082818 29.2029864,710.579547 29.3791042,712.076276 C30.0835752,716.117445 30.7880462,720.008941 30.7880462,724.05011 C31.668635,729.138989 32.373106,733.479504 33.2536947,737.820019 C33.782048,741.262496 33.9581657,743.058571 34.3104012,744.854646 C34.8387545,749.943525 35.19099,752.787311 35.3671077,755.780769 C35.5432255,758.624555 35.5432255,761.46834 36.0715788,764.312126 C36.2476965,771.346753 36.7760498,775.088576 36.7760498,778.830399 C36.7760498,780.776147 37.1282853,782.572222 37.1282853,784.368297 C37.304403,787.661102 37.304403,790.953906 37.4805208,794.24671 C37.6566385,796.79115 37.6566385,799.485262 37.8327563,802.029702 C37.1282853,808.016619 37.304403,810.411386 37.304403,812.955825 C37.304403,816.398302 37.6566385,819.691107 36.9521675,823.133584 C37.304403,827.923117 37.304403,830.61723 36.7760498,833.461015 C36.9521675,838.549895 36.7760498,840.794989 36.4238143,842.890409 C36.7760498,847.979289 36.7760498,850.374056 36.9521675,852.768822 C36.9521675,856.510645 37.4805208,860.252468 37.8327563,863.994291 C38.008874,865.640693 38.1849918,867.436769 38.3611095,869.083171 C38.8894628,871.777283 39.417816,874.321723 39.7700515,877.015836 C40.2984048,879.560275 40.6506403,881.955042 41.0028758,884.499482 C42.0595823,889.588361 42.7640533,892.132801 43.2924066,894.527567 C43.8207598,896.473315 44.1729953,898.419063 44.5252308,900.364811 C44.8774663,902.609905 45.2297018,904.854999 45.5819373,907.100093 C46.1102906,910.54257 46.4625261,913.985047 46.8147616,917.577197 C46.9908793,918.924253 46.9908793,920.27131 46.8147616,921.618366 C46.6386438,923.86346 46.6386438,926.108554 46.9908793,928.353647 C47.1669971,930.149723 47.1669971,931.945798 47.3431149,933.741873 C47.5192326,937.932714 47.5192326,942.123556 47.3431149,946.314398 C48.3998214,948.858838 47.5192326,951.253604 47.3431149,953.498698 C47.1669971,955.444446 47.1669971,957.240521 47.1669971,959.186269 C46.9908793,961.431363 46.8147616,963.82613 46.8147616,966.071224 C46.8147616,967.567953 46.4625261,968.915009 46.2864083,970.262065 C46.1102906,971.609122 45.9341728,973.105851 46.2864083,974.60258 C46.8147616,978.19473 46.2864083,981.78688 47.3431149,985.229358 C47.6953504,988.222816 47.8714681,989.270526 48.0475859,990.46791 C48.3998214,995.10777 49.1042924,997.951556 49.8087634,1000.94501 C50.3371166,1003.04044 50.5132344,1005.28553 51.7460586,1007.38095 C52.6266474,1012.17048 53.6833539,1015.16394 54.7400604,1018.30707 C55.6206492,1022.49791 55.6206492,1023.99464 56.1490024,1025.49137 C56.1490024,1029.68222 56.1490024,1030.28091 56.3251202,1030.8796 C56.6773557,1032.37633 56.8534734,1033.87306 57.0295912,1035.36979 C57.0295912,1038.96194 57.5579444,1042.70376 57.5579444,1046.29591 C57.5579444,1049.58871 57.7340622,1052.88152 57.2057089,1056.17432 C56.8534734,1059.01811 57.3818267,1061.71222 57.7340622,1064.40633 C57.5579444,1069.64489 57.9101799,1072.93769 58.0862977,1076.38017 C57.3818267,1080.57101 58.4385332,1083.26512 58.4385332,1085.95923 C58.614651,1088.80302 58.9668865,1091.49713 59.319122,1094.19124 C58.7907687,1098.98078 59.319122,1101.67489 59.4952397,1104.51868 C59.319122,1107.66181 59.1430042,1108.11083 59.1430042,1108.55984 C59.1430042,1112.00232 59.319122,1115.59447 58.9668865,1119.03695 C58.614651,1123.52714 59.1430042,1128.167 58.9668865,1132.65719 C58.9668865,1134.75261 58.614651,1136.9977 58.7907687,1139.09312 C58.9668865,1144.182 58.4385332,1149.27088 59.1430042,1154.35976 C59.319122,1156.00616 59.8474752,1157.65256 60.1997107,1159.44864 C60.5519462,1160.79569 60.9041817,1162.14275 61.0802995,1163.34013 C61.432535,1165.43555 61.7847705,1167.3813 62.137006,1169.47672 C62.4892415,1171.2728 62.4892415,1173.21855 63.1937125,1175.01462 C64.0743013,1178.00808 63.8981835,1181.30088 64.6026545,1184.29434 C65.659361,1187.2878 65.8354788,1188.48518 65.4832433,1189.83224 C65.659361,1194.02308 65.8354788,1196.26818 66.0115965,1198.66294 C66.363832,1204.50019 66.7160675,1210.4871 66.8921853,1216.32435 C66.8921853,1220.06617 67.4205385,1223.80799 68.3011273,1227.54982 C68.6533628,1228.89687 68.8294805,1230.24393 69.3578338,1231.44131 C70.7667758,1234.88379 71.4712468,1238.32627 72.1757178,1241.91842 C72.7040711,1244.16351 73.4085421,1246.40861 73.9368953,1248.80337 C74.8174841,1252.39552 74.6413663,1255.98767 74.4652486,1259.57982 C74.2891308,1264.07001 74.2891308,1264.96805 74.1130131,1265.71641 C73.4085421,1269.15889 73.7607776,1272.45169 73.7607776,1275.89417 C73.7607776,1281.58174 73.2324243,1287.41899 71.2951291,1292.95688 C70.0623048,1296.54903 69.181716,1300.29086 68.1250095,1303.88301 C67.5966563,1305.82875 67.068303,1307.7745 66.7160675,1309.72025 C66.0115965,1313.16273 65.659361,1316.60521 66.1877143,1320.19736 L61.0802995,1320.19736 C61.2564172,1314.65946 61.0802995,1311.36665 62.137006,1307.92418 C62.6653592,1306.27777 62.4892415,1304.33203 62.841477,1302.53595 C63.7220657,1298.79413 64.95489,1295.20198 66.1877143,1291.60983 C67.068303,1289.21506 67.4205385,1286.67062 68.1250095,1284.27585 C68.8294805,1281.73141 68.8294805,1279.18697 68.8294805,1276.49286 C68.8294805,1273.64908 69.0055983,1270.80529 69.5339516,1267.96151 C68.8294805,1263.32165 69.3578338,1260.02884 69.3578338,1256.73604 C69.3578338,1252.09618 69.0055983,1247.45632 67.2444208,1242.96613 C66.7160675,1241.76874 66.7160675,1240.27202 66.7160675,1238.92496 C66.5399498,1236.97921 65.8354788,1235.18314 64.95489,1233.53673 C63.0175947,1230.3936 62.137006,1226.95113 61.7847705,1223.50865 C61.432535,1219.16813 60.9041817,1214.97729 60.5519462,1210.63678 C60.023593,1206.89495 59.8474752,1205.09888 59.8474752,1203.15313 C58.9668865,1197.76491 58.9668865,1195.07079 58.614651,1192.37668 C58.0862977,1188.78453 57.5579444,1185.04271 56.8534734,1181.45056 C56.3251202,1177.85841 55.7967669,1174.11658 55.2684137,1170.52443 C55.0922959,1169.0277 55.0922959,1167.53098 54.9161782,1166.03425 C54.7400604,1164.53752 54.3878249,1163.04079 53.5072362,1161.69373 C52.4505296,1156.15583 52.0982941,1152.86303 51.7460586,1149.7199 C52.4505296,1144.48135 52.0982941,1140.44018 52.2744119,1136.54868 C52.2744119,1132.35784 52.0982941,1128.167 52.6266474,1123.97616 C53.1550007,1119.48597 53.6833539,1114.84611 53.8594717,1110.35592 C54.0355894,1106.01541 54.2117072,1101.52522 53.5072362,1097.1847 C52.9788829,1091.94615 52.8027652,1090.59909 52.6266474,1089.25204 C52.4505296,1087.30629 52.2744119,1085.36054 52.0982941,1083.41479 C51.3938231,1077.57755 52.0982941,1073.9854 51.9221764,1070.54292 C51.9221764,1068.29783 51.9221764,1066.05274 51.7460586,1063.80764 C51.5699409,1061.86189 51.3938231,1059.91615 51.2177054,1057.9704 C51.2177054,1056.02465 51.2177054,1054.22857 51.3938231,1052.28283 C51.3938231,1050.18741 51.5699409,1047.94231 51.5699409,1045.84689 C50.8674369,1044.05583 52.8017777,1039.34695 52.237604,1032.46576 C51.9555039,1029.02501 51.7979155,1023.38087 50.4833992,1018.5 C49.1688829,1013.61913 46.6976748,1009.50228 46.6386438,1009.3267 C45.2297018,1005.4352 44.8774663,1001.39403 43.9968776,997.502537 C43.2924066,994.509079 42.4118178,991.51562 42.5879356,988.522162 C41.5312291,984.33132 41.7073468,981.487535 41.1789935,978.943095 C41.1789935,975.201272 41.3551113,974.452907 41.3551113,973.854216 C41.0028758,969.214355 41.5312291,964.724167 41.8834646,960.084307 C42.0595823,958.288232 42.0595823,956.492157 42.0595823,954.696082 C42.0595823,950.654913 41.8834646,946.613744 42.2357001,942.572575 C42.4118178,938.830752 42.2357001,935.238602 41.8834646,931.496779 C41.7073468,930.299395 41.3551113,929.102012 41.1789935,927.754956 C40.826758,924.162806 40.4745225,920.570656 40.122287,916.978505 C39.5939338,910.841916 39.5939338,904.555653 38.1849918,898.568736 C36.9521675,893.62953 36.0715788,888.690323 34.8387545,883.751117 C33.782048,879.709948 33.077577,875.668779 33.2536947,871.477937 C32.1969882,865.491021 31.668635,862.048543 32.0208705,858.30672 C32.1969882,856.510645 32.0208705,854.71457 32.0208705,852.918495 C31.8447527,850.224383 32.0208705,847.53027 32.0208705,844.836157 L32.0208705,838.998914 C32.1969882,831.814613 31.8447527,827.773444 32.0208705,823.582603 C32.0208705,817.745359 32.1969882,811.908115 32.1969882,806.070871 C32.1969882,801.880029 32.0208705,797.689187 32.0208705,793.498345 C30.964164,790.205541 30.964164,788.11012 30.964164,786.014699 C30.964164,784.068951 30.7880462,782.272876 30.6119285,780.327128 C30.4358107,778.680726 30.4358107,777.183997 30.4358107,775.537595 C30.6119285,772.693809 30.4358107,769.850024 30.0835752,766.856565 C29.5552219,762.366378 29.3791042,757.87619 28.3223977,753.535675 C29.0268687,747.848104 28.3223977,743.657263 27.6179267,739.316748 C27.0895734,735.425252 26.5612202,731.533756 26.0328669,727.64226 C25.6806314,725.247493 25.1522782,722.852727 24.8000426,720.45796 C24.6239249,719.110904 24.2716894,717.91352 24.4478071,716.416791 C23.5672184,711.178239 23.2149829,708.783472 23.0388651,706.239032 C22.6866296,701.748845 22.3343941,697.108984 21.9821586,692.469124 C21.8060409,690.673049 21.9821586,688.727301 22.8627474,686.931226 C23.3911006,685.733842 23.3911006,684.536459 23.5672184,683.189402 C23.5672184,678.998561 23.3911006,674.807719 23.5672184,670.467204 C23.7433361,665.228652 24.0955716,659.840427 24.4478071,654.601875 C24.6239249,651.608416 24.9761604,648.764631 25.3283959,645.771172 C24.8000426,638.586872 24.6239249,633.947011 24.8000426,629.157478 C24.2716894,621.07514 24.2716894,615.836588 24.2716894,610.747709 C25.3283959,607.005886 25.5045137,605.509156 25.3283959,604.1621 C24.4478071,598.773875 24.4478071,593.235977 24.2716894,587.847752 C24.0955716,582.758872 23.5672184,577.669993 23.0388651,572.581114 C22.6866296,568.390272 22.3343941,564.19943 21.9821586,560.008588 C21.4538054,557.01513 21.1015699,554.919709 20.9254521,552.824288 C20.5732166,549.681157 20.2209811,546.538025 20.0448634,543.394894 C19.6926279,540.551109 19.3403924,540.10209 19.5165101,539.653071 C20.0448634,537.707323 19.6926279,535.761575 19.5165101,533.815827 C18.9881568,526.930873 18.2836858,520.045918 17.7553326,513.160964 C17.4030971,509.718487 17.4030971,506.126337 17.2269793,502.683859 C17.0508616,500.13942 16.6986261,497.445307 16.5225083,494.900868 C16.3463906,491.757736 16.1702728,488.614605 15.9941551,485.471474 C16.6986261,481.72965 16.6986261,479.334884 16.5225083,476.940117 C16.1702728,471.851238 15.8180373,466.912031 14.9374486,461.972825 C14.5852131,459.727731 14.4090953,457.482637 14.2329776,455.237543 C13.7046243,450.747356 13.176271,446.107495 12.6479178,441.617308 C12.1195645,437.276793 11.5912113,432.936278 11.062858,428.446091 C10.8867403,427.099034 10.7106225,425.751978 10.5345048,424.404922 C10.358387,421.112117 10.1822693,417.968986 10.0061515,414.676182 C11.2389758,405.845479 10.8867403,399.409544 10.8867403,392.973608 C10.8867403,389.381458 10.7106225,385.789308 11.062858,382.197158 C11.2389758,380.550756 11.062858,378.754681 11.062858,377.108279 C11.2389758,374.11482 11.4150935,371.271035 11.2389758,368.277576 C11.767329,364.685426 12.2956823,363.039024 11.5912113,361.242949 C11.062858,357.501126 11.2389758,357.052107 11.4150935,356.603088 C11.767329,354.65734 12.1195645,352.711592 11.767329,350.765844 L11.767329,339.390702 C11.5912113,334.601169 11.5912113,329.961308 11.9434468,325.171775 C11.4150935,320.232568 11.4150935,318.28682 11.2389758,316.341072 C11.062858,311.401866 11.062858,309.605791 10.8867403,307.809716 C10.0061515,303.020182 9.47779826,300.026724 9.30168051,296.883593 C9.12556276,295.237191 8.77332726,293.740461 8.5972095,292.094059 C8.244974,288.950928 7.8927385,285.658124 7.54050299,282.514992 C7.71662075,277.875132 6.48379648,273.68429 6.30767873,269.343775 C6.13156098,264.554242 5.77932548,259.914381 5.60320773,255.124848 C5.42708998,251.083679 5.42708998,247.04251 5.07485447,243.001341 C4.89873672,240.456901 4.19426571,237.912462 4.01814796,235.218349 C3.66591246,232.823582 3.66591246,230.428816 3.48979471,228.034049 C2.7853237,223.843207 2.25697045,222.196805 2.0808527,220.40073 C1.72861719,217.257599 1.02414619,213.964794 1.02414619,210.821663 C1.02414619,205.134092 0.143557428,199.446521 0.495792931,193.609277 C0.671910682,187.921706 1.02414619,182.234135 2.0808527,176.696237 C2.96144145,171.906703 4.19426571,167.11717 5.07485447,162.477309 C5.77932548,159.184505 6.13156098,155.742028 6.48379648,152.299551 C7.01214974,148.108709 7.36438524,143.917867 7.54050299,139.727025 C7.71662075,136.284548 7.54050299,132.692398 7.36438524,129.249921 C7.18826749,125.807444 6.65991424,122.215294 6.65991424,118.772816 C6.65991424,115.330339 6.13156098,112.037535 5.60320773,108.595058" id="Shape"></path>
                        </g>
                    </g>
                </g>
            </g>
        </g>
    </g>
</svg>