<?xml version="1.0" encoding="UTF-8"?>
<svg width="1280px" height="270px" viewBox="0 0 1280 270" version="1.1" xmlns="http://www.w3.org/2000/svg" xmlns:xlink="http://www.w3.org/1999/xlink">
    <!-- Generator: Sketch 41.2 (35397) - http://www.bohemiancoding.com/sketch -->
    <title>Path 6</title>
    <desc>Created with Sketch.</desc>
    <defs></defs>
    <g id="Page-1" stroke="none" stroke-width="1" fill="none" fill-rule="evenodd">
        <g id="Desktop-Landscape" transform="translate(0.000000, -432.000000)" stroke="#2A353D" fill="#2A353D">
            <path d="M-34.2076719,550.631291 C-34.2076719,550.631291 -20.1527779,550.93347 -9.50402696,550.631291 C-1.74675271,550.93347 8.14146951,549.714655 57.6033897,569.191009 C71.364603,571.245957 80.0006615,571.245957 80.0006615,571.245957 C80.0006615,571.245957 91.3232629,570.810147 103.017969,569.191009 C114.712674,567.571871 142.377106,557.120294 155.204074,555.593552 C168.031043,554.06681 180.014069,558.789354 187.907244,558.789354 C195.80042,558.789354 210.361614,556.283332 217.607239,555.593552 C224.852864,554.903772 229.700275,554.764177 233.266134,554.764177 C252.336658,551.121045 254.444764,545.271257 319.913561,532.326711 C327.91293,528.567854 350.618948,520.02308 366.005828,514.739843 C384.799731,504.356603 425.493425,481.62099 434.701986,479.29327 C443.910547,476.965551 450.655491,480.086382 455.442343,479.29327 C458.163947,478.84234 470.651744,473.031254 474.495918,470.494897 C478.340092,467.95854 478.936934,464.138551 484.381135,463.233037 C487.459187,462.721076 493.607587,466.765122 500.505375,467.760081 C507.403164,468.755039 511.617774,466.392992 516.421057,465.694979 C520.337039,465.125909 533.830282,459.569893 550.01994,454.315718 C553.282425,453.256915 557.313955,452.275191 562.644252,449.737336 C567.974549,447.199481 582.022637,439.517027 591.391547,436.580849 C598.134225,434.467722 603.936374,434.944053 608.351739,434.579534 C612.767103,434.215015 614.474777,431.826544 617.260256,433.144802 C618.471645,433.718105 625.725806,448.308864 630.190431,455.56027 C640.364207,463.145004 662.849192,466.549824 665.882367,468.522361 C667.180633,469.36665 667.083523,473.967142 669.826598,479.29327 C672.569674,484.619398 680.440784,494.770121 685.359843,496.675254 C691.43238,501.777223 699.642156,508.553729 715.71333,511.435406 C717.682442,511.788481 719.599435,513.919277 722.164295,515.915977 C724.729156,517.912676 730.32412,521.220874 732.933587,522.897908 C736.240605,523.09781 743.150325,523.419754 753.447939,522.243593 C763.745552,521.067431 766.26172,519.592194 770.573411,518.598805 C774.885102,517.605416 780.799464,513.256477 785.116376,513.256477 C789.433288,513.256477 798.136432,524.180078 804.315777,527.410783 C806.224151,527.688947 817.880487,529.264374 829.20858,528.337578 C840.536672,527.410783 845.176834,525.907467 855.319426,526.327226 C879.539756,527.329605 915.949564,532.326711 915.949564,532.326711 C915.949564,532.326711 923.216539,541.725564 926.858647,543.510582 C928.89063,542.546624 933.14978,538.323905 939.742893,536.219226 C940.764012,535.893261 942.700824,536.807396 944.984302,536.219226 C947.427463,532.326711 956.446051,531.946093 962.69121,530.507877 C971.936258,528.378808 981.544964,526.327226 981.544964,526.327226 C981.544964,526.327226 987.29188,528.337578 990.482703,531.535764 C990.79995,531.853744 990.39838,528.302076 993.073699,528.337578 C993.344669,528.341174 995.632907,529.103064 999.20353,530.507877 C1002.77415,531.91269 1019.9605,539.785727 1023.60544,540.771198 C1027.25037,541.756669 1035.191,537.219543 1041.40218,543.510582 C1043.33583,543.863702 1044.4496,541.803547 1045.86692,540.771198 C1046.70336,540.161959 1048.33278,540.687819 1050.28852,539.915804 C1052.24427,539.143788 1052.20104,537.297687 1054.84452,537.109968 C1057.48799,536.922249 1060.12624,539.085152 1061.98585,539.085152 C1063.84545,539.085152 1072.24847,537.054443 1075.6319,536.219226 C1077.12845,535.849796 1088.22357,529.057334 1099.59243,526.327226 C1110.96129,523.597118 1116.90954,522.243593 1129.47975,522.243593 C1142.04996,522.243593 1165.78555,530.507877 1183.00722,533.439548 C1187.56284,532.940482 1195.24496,529.756544 1202.31131,526.327226 C1209.37766,522.897908 1220.95337,524.069968 1233.10335,520.02308 C1245.25334,515.976192 1242.16477,511.502075 1256.37794,508.341955 C1265.4004,506.335923 1286.41092,514.49814 1300.82151,518.598805 C1315.23209,522.69947 1315.46333,520.02308 1315.46333,520.02308 L1314.54828,699.226024 L-35.4107735,700.95602 L-34.2076719,550.631291 Z" id="Path-6"></path>
        </g>
    </g>
</svg>