<?xml version="1.0" encoding="UTF-8"?>
<svg width="763px" height="106px" viewBox="0 0 763 106" version="1.1" xmlns="http://www.w3.org/2000/svg" xmlns:xlink="http://www.w3.org/1999/xlink">
    <!-- Generator: Sketch 41.2 (35397) - http://www.bohemiancoding.com/sketch -->
    <title>Group 4</title>
    <desc>Created with Sketch.</desc>
    <defs></defs>
    <g id="Page-1" stroke="none" stroke-width="1" fill="none" fill-rule="evenodd">
        <g id="Desktop-Landscape" transform="translate(-258.000000, -192.000000)">
            <g id="Group-4" transform="translate(258.000000, 206.000000)">
                <g id="Group-3">
                    <text id="The-National-Geograp" font-family="SwistblnkMonthoers, Swistblnk Monthoers" font-size="80" font-weight="normal" letter-spacing="0.850526273" fill="#F3ECE6">
                        <tspan x="33.1721688" y="63.9027778">The National Geographic</tspan>
                    </text>
                    <g id="Group-2" transform="translate(0.000000, 33.680556)" stroke-linecap="round">
                        <g id="Group-6" transform="translate(20.029963, 0.000000)" stroke="#F3ECE6">
                            <path d="M12.1610487,2.02083333 L12.1610487,54.5797692" id="Line"></path>
                            <path d="M3.70905516,9.13325205 C3.70905516,9.13325205 6.5753795,6.76349406 8.21327912,5.09354305 C9.85117874,3.42359204 11.8127636,1.07923215 11.8127636,1.07923215 C12.1704613,0.657907402 12.7381312,0.662166698 13.0892574,1.09469864 C13.0892574,1.09469864 15.3796005,3.98513489 16.6391699,5.08296459 C17.8987392,6.1807943 21.2118098,9.25729148 21.2118098,9.25729148" id="Path-10"></path>
                            <path d="M3.70905516,21.2582521 C3.70905516,21.2582521 6.5753795,18.8884941 8.21327912,17.218543 C9.85117874,15.548592 11.8127636,13.2042321 11.8127636,13.2042321 C12.1704613,12.7829074 12.7381312,12.7871667 13.0892574,13.2196986 C13.0892574,13.2196986 15.3796005,16.1101349 16.6391699,17.2079646 C17.8987392,18.3057943 21.2118098,21.3822915 21.2118098,21.3822915" id="Path-10"></path>
                            <path d="M1.57135448,32.0360298 C1.57135448,32.0360298 5.41569396,30.2615279 8.21327912,27.9963208 C11.0108643,25.7311137 11.9155,24.0474474 11.9155,24.0474474 C12.2164579,23.5899825 12.7027368,23.5859063 13.02072,24.0377371 C13.02072,24.0377371 14.0868183,25.8331635 16.6391699,27.9857424 C19.1915214,30.1383212 22.9147849,32.0360298 22.9147849,32.0360298" id="Path-10"></path>
                            <path d="M0.157545118,42.8138076 C0.157545118,42.8138076 4.58403443,41.4223668 6.84413482,39.4494784 C9.10423522,37.4765901 11.7630427,34.7117202 11.7630427,34.7117202 C12.1482005,34.3169424 12.7156174,34.3675153 13.0363777,34.8154916 C13.0363777,34.8154916 14.8411143,37.5801637 17.2855442,39.4494784 C19.7299742,41.3187931 23.9899434,42.8138076 23.9899434,42.8138076" id="Path-10"></path>
                        </g>
                        <g id="Group-6" transform="translate(0.000000, 16.166667)" stroke="#E38B11">
                            <path d="M8.58426966,1.42936992 L8.58426966,38.6052026" id="Line"></path>
                            <path d="M2.61815658,6.46010511 C2.61815658,6.46010511 4.64144435,4.78393482 5.79760879,3.60274996 C6.95377323,2.4215651 8.15186448,0.981451153 8.15186448,0.981451153 C8.50738946,0.562992177 9.07532541,0.572044278 9.4192031,0.994183742 C9.4192031,0.994183742 10.8561886,2.81875395 11.7452964,3.59526764 C12.6344041,4.37178133 14.9730422,6.54784032 14.9730422,6.54784032" id="Path-10"></path>
                            <path d="M2.61815658,15.0363246 C2.61815658,15.0363246 4.64144435,13.3601543 5.79760879,12.1789695 C6.95377323,10.9977846 8.15186448,9.55767067 8.15186448,9.55767067 C8.50738946,9.13921169 9.07532541,9.14826379 9.4192031,9.57040325 C9.4192031,9.57040325 10.8561886,11.3949735 11.7452964,12.1714872 C12.6344041,12.9480008 14.9730422,15.1240598 14.9730422,15.1240598" id="Path-10"></path>
                            <path d="M1.1091914,22.6596309 C1.1091914,22.6596309 3.82284279,21.4044954 5.79760879,19.8022757 C7.77237479,18.200056 8.54083765,16.8215438 8.54083765,16.8215438 C8.68153868,16.6015943 8.91342236,16.6039567 9.07143774,16.8342267 C9.07143774,16.8342267 9.94363643,18.2722376 11.7452964,19.7947934 C13.5469563,21.3173492 16.1751423,22.6596309 16.1751423,22.6596309" id="Path-10"></path>
                            <path d="M0.111208318,30.2829371 C0.111208318,30.2829371 3.23578901,29.2987473 4.83115399,27.9032896 C6.42651898,26.507832 8.09811151,24.7609337 8.09811151,24.7609337 C8.48332344,24.3664159 9.051478,24.4160296 9.3707955,24.8546878 C9.3707955,24.8546878 10.4760807,26.5810914 12.2015606,27.9032896 C13.9270406,29.2254878 16.9340777,30.2829371 16.9340777,30.2829371" id="Path-10"></path>
                        </g>
                    </g>
                    <g id="Group" opacity="0.835880888" transform="translate(673.865169, 0.000000)" stroke-linecap="round">
                        <g id="Group-6" transform="translate(22.579231, 47.332407)" stroke="#E38B11">
                            <path d="M9.67681307,1.61995257 L9.67681307,43.752563" id="Line"></path>
                            <path d="M2.95137651,7.32145246 C2.95137651,7.32145246 5.23217363,5.4217928 6.53548627,4.08311662 C7.83879891,2.74444045 9.26899455,1.01887967 9.26899455,1.01887967 C9.62579523,0.59622703 10.1909062,0.599227914 10.5365995,1.02682522 C10.5365995,1.02682522 12.2378853,3.19458781 13.2401523,4.07463666 C14.2424192,4.95468551 16.8787021,7.42088569 16.8787021,7.42088569" id="Path-10"></path>
                            <path d="M2.95137651,17.0411679 C2.95137651,17.0411679 5.23217363,15.1415082 6.53548627,13.8028321 C7.83879891,12.4641559 9.26899455,10.7385951 9.26899455,10.7385951 C9.62579523,10.3159425 10.1909062,10.3189434 10.5365995,10.7465407 C10.5365995,10.7465407 12.2378853,12.9143033 13.2401523,13.7943521 C14.2424192,14.674401 16.8787021,17.1406011 16.8787021,17.1406011" id="Path-10"></path>
                            <path d="M1.25036121,25.680915 C1.25036121,25.680915 4.30938642,24.2584281 6.53548627,22.4425791 C8.76158612,20.6267302 9.65796697,19.0195236 9.65796697,19.0195236 C9.79994412,18.795041 10.0371609,18.801732 10.1939283,19.0326822 C10.1939283,19.0326822 11.2091902,20.7085359 13.2401523,22.4340992 C15.2711144,24.1596624 18.2337967,25.680915 18.2337967,25.680915" id="Path-10"></path>
                            <path d="M0.125362104,34.320662 C0.125362104,34.320662 3.6476167,33.2052469 5.44602814,31.6237282 C7.24443958,30.0422096 9.22517735,27.9639547 9.22517735,27.9639547 C9.6061776,27.5711997 10.1676854,27.6207105 10.4865022,28.0643162 C10.4865022,28.0643162 11.8094,30.1252369 13.7544865,31.6237282 C15.699573,33.1222195 19.0893239,34.320662 19.0893239,34.320662" id="Path-10"></path>
                        </g>
                        <g id="Group-6" transform="translate(45.158461, 47.332407)" stroke="#F3ECE6">
                            <path d="M9.67681307,1.61995257 L9.67681307,43.752563" id="Line"></path>
                            <path d="M2.95137651,7.32145246 C2.95137651,7.32145246 5.23217363,5.4217928 6.53548627,4.08311662 C7.83879891,2.74444045 9.26899455,1.01887967 9.26899455,1.01887967 C9.62579523,0.59622703 10.1909062,0.599227914 10.5365995,1.02682522 C10.5365995,1.02682522 12.2378853,3.19458781 13.2401523,4.07463666 C14.2424192,4.95468551 16.8787021,7.42088569 16.8787021,7.42088569" id="Path-10"></path>
                            <path d="M2.95137651,17.0411679 C2.95137651,17.0411679 5.23217363,15.1415082 6.53548627,13.8028321 C7.83879891,12.4641559 9.26899455,10.7385951 9.26899455,10.7385951 C9.62579523,10.3159425 10.1909062,10.3189434 10.5365995,10.7465407 C10.5365995,10.7465407 12.2378853,12.9143033 13.2401523,13.7943521 C14.2424192,14.674401 16.8787021,17.1406011 16.8787021,17.1406011" id="Path-10"></path>
                            <path d="M1.25036121,25.680915 C1.25036121,25.680915 4.30938642,24.2584281 6.53548627,22.4425791 C8.76158612,20.6267302 9.65796697,19.0195236 9.65796697,19.0195236 C9.79994412,18.795041 10.0371609,18.801732 10.1939283,19.0326822 C10.1939283,19.0326822 11.2091902,20.7085359 13.2401523,22.4340992 C15.2711144,24.1596624 18.2337967,25.680915 18.2337967,25.680915" id="Path-10"></path>
                            <path d="M0.125362104,34.320662 C0.125362104,34.320662 3.6476167,33.2052469 5.44602814,31.6237282 C7.24443958,30.0422096 9.22517735,27.9639547 9.22517735,27.9639547 C9.6061776,27.5711997 10.1676854,27.6207105 10.4865022,28.0643162 C10.4865022,28.0643162 11.8094,30.1252369 13.7544865,31.6237282 C15.699573,33.1222195 19.0893239,34.320662 19.0893239,34.320662" id="Path-10"></path>
                        </g>
                        <g id="Group-6" transform="translate(69.350494, 47.332407)" stroke="#F3ECE6">
                            <path d="M9.67681307,1.61995257 L9.67681307,43.752563" id="Line"></path>
                            <path d="M2.95137651,7.32145246 C2.95137651,7.32145246 5.23217363,5.4217928 6.53548627,4.08311662 C7.83879891,2.74444045 9.26899455,1.01887967 9.26899455,1.01887967 C9.62579523,0.59622703 10.1909062,0.599227914 10.5365995,1.02682522 C10.5365995,1.02682522 12.2378853,3.19458781 13.2401523,4.07463666 C14.2424192,4.95468551 16.8787021,7.42088569 16.8787021,7.42088569" id="Path-10"></path>
                            <path d="M2.95137651,17.0411679 C2.95137651,17.0411679 5.23217363,15.1415082 6.53548627,13.8028321 C7.83879891,12.4641559 9.26899455,10.7385951 9.26899455,10.7385951 C9.62579523,10.3159425 10.1909062,10.3189434 10.5365995,10.7465407 C10.5365995,10.7465407 12.2378853,12.9143033 13.2401523,13.7943521 C14.2424192,14.674401 16.8787021,17.1406011 16.8787021,17.1406011" id="Path-10"></path>
                            <path d="M1.25036121,25.680915 C1.25036121,25.680915 4.30938642,24.2584281 6.53548627,22.4425791 C8.76158612,20.6267302 9.65796697,19.0195236 9.65796697,19.0195236 C9.79994412,18.795041 10.0371609,18.801732 10.1939283,19.0326822 C10.1939283,19.0326822 11.2091902,20.7085359 13.2401523,22.4340992 C15.2711144,24.1596624 18.2337967,25.680915 18.2337967,25.680915" id="Path-10"></path>
                            <path d="M0.125362104,34.320662 C0.125362104,34.320662 3.6476167,33.2052469 5.44602814,31.6237282 C7.24443958,30.0422096 9.22517735,27.9639547 9.22517735,27.9639547 C9.6061776,27.5711997 10.1676854,27.6207105 10.4865022,28.0643162 C10.4865022,28.0643162 11.8094,30.1252369 13.7544865,31.6237282 C15.699573,33.1222195 19.0893239,34.320662 19.0893239,34.320662" id="Path-10"></path>
                        </g>
                        <g id="Group-6" transform="translate(22.579231, 0.000000)" stroke="#F3ECE6">
                            <path d="M9.67681307,1.61995257 L9.67681307,43.752563" id="Line"></path>
                            <path d="M2.95137651,7.32145246 C2.95137651,7.32145246 5.23217363,5.4217928 6.53548627,4.08311662 C7.83879891,2.74444045 9.26899455,1.01887967 9.26899455,1.01887967 C9.62579523,0.59622703 10.1909062,0.599227914 10.5365995,1.02682522 C10.5365995,1.02682522 12.2378853,3.19458781 13.2401523,4.07463666 C14.2424192,4.95468551 16.8787021,7.42088569 16.8787021,7.42088569" id="Path-10"></path>
                            <path d="M2.95137651,17.0411679 C2.95137651,17.0411679 5.23217363,15.1415082 6.53548627,13.8028321 C7.83879891,12.4641559 9.26899455,10.7385951 9.26899455,10.7385951 C9.62579523,10.3159425 10.1909062,10.3189434 10.5365995,10.7465407 C10.5365995,10.7465407 12.2378853,12.9143033 13.2401523,13.7943521 C14.2424192,14.674401 16.8787021,17.1406011 16.8787021,17.1406011" id="Path-10"></path>
                            <path d="M1.25036121,25.680915 C1.25036121,25.680915 4.30938642,24.2584281 6.53548627,22.4425791 C8.76158612,20.6267302 9.65796697,19.0195236 9.65796697,19.0195236 C9.79994412,18.795041 10.0371609,18.801732 10.1939283,19.0326822 C10.1939283,19.0326822 11.2091902,20.7085359 13.2401523,22.4340992 C15.2711144,24.1596624 18.2337967,25.680915 18.2337967,25.680915" id="Path-10"></path>
                            <path d="M0.125362104,34.320662 C0.125362104,34.320662 3.6476167,33.2052469 5.44602814,31.6237282 C7.24443958,30.0422096 9.22517735,27.9639547 9.22517735,27.9639547 C9.6061776,27.5711997 10.1676854,27.6207105 10.4865022,28.0643162 C10.4865022,28.0643162 11.8094,30.1252369 13.7544865,31.6237282 C15.699573,33.1222195 19.0893239,34.320662 19.0893239,34.320662" id="Path-10"></path>
                        </g>
                        <g id="Group-6" stroke="#F3ECE6">
                            <path d="M9.67681307,1.61995257 L9.67681307,43.752563" id="Line"></path>
                            <path d="M2.95137651,7.32145246 C2.95137651,7.32145246 5.23217363,5.4217928 6.53548627,4.08311662 C7.83879891,2.74444045 9.26899455,1.01887967 9.26899455,1.01887967 C9.62579523,0.59622703 10.1909062,0.599227914 10.5365995,1.02682522 C10.5365995,1.02682522 12.2378853,3.19458781 13.2401523,4.07463666 C14.2424192,4.95468551 16.8787021,7.42088569 16.8787021,7.42088569" id="Path-10"></path>
                            <path d="M2.95137651,17.0411679 C2.95137651,17.0411679 5.23217363,15.1415082 6.53548627,13.8028321 C7.83879891,12.4641559 9.26899455,10.7385951 9.26899455,10.7385951 C9.62579523,10.3159425 10.1909062,10.3189434 10.5365995,10.7465407 C10.5365995,10.7465407 12.2378853,12.9143033 13.2401523,13.7943521 C14.2424192,14.674401 16.8787021,17.1406011 16.8787021,17.1406011" id="Path-10"></path>
                            <path d="M1.25036121,25.680915 C1.25036121,25.680915 4.30938642,24.2584281 6.53548627,22.4425791 C8.76158612,20.6267302 9.65796697,19.0195236 9.65796697,19.0195236 C9.79994412,18.795041 10.0371609,18.801732 10.1939283,19.0326822 C10.1939283,19.0326822 11.2091902,20.7085359 13.2401523,22.4340992 C15.2711144,24.1596624 18.2337967,25.680915 18.2337967,25.680915" id="Path-10"></path>
                            <path d="M0.125362104,34.320662 C0.125362104,34.320662 3.6476167,33.2052469 5.44602814,31.6237282 C7.24443958,30.0422096 9.22517735,27.9639547 9.22517735,27.9639547 C9.6061776,27.5711997 10.1676854,27.6207105 10.4865022,28.0643162 C10.4865022,28.0643162 11.8094,30.1252369 13.7544865,31.6237282 C15.699573,33.1222195 19.0893239,34.320662 19.0893239,34.320662" id="Path-10"></path>
                        </g>
                        <g id="Group-6" transform="translate(0.000000, 47.332407)" stroke="#C47D19">
                            <path d="M9.67681307,1.61995257 L9.67681307,43.752563" id="Line"></path>
                            <path d="M2.95137651,7.32145246 C2.95137651,7.32145246 5.23217363,5.4217928 6.53548627,4.08311662 C7.83879891,2.74444045 9.26899455,1.01887967 9.26899455,1.01887967 C9.62579523,0.59622703 10.1909062,0.599227914 10.5365995,1.02682522 C10.5365995,1.02682522 12.2378853,3.19458781 13.2401523,4.07463666 C14.2424192,4.95468551 16.8787021,7.42088569 16.8787021,7.42088569" id="Path-10"></path>
                            <path d="M2.95137651,17.0411679 C2.95137651,17.0411679 5.23217363,15.1415082 6.53548627,13.8028321 C7.83879891,12.4641559 9.26899455,10.7385951 9.26899455,10.7385951 C9.62579523,10.3159425 10.1909062,10.3189434 10.5365995,10.7465407 C10.5365995,10.7465407 12.2378853,12.9143033 13.2401523,13.7943521 C14.2424192,14.674401 16.8787021,17.1406011 16.8787021,17.1406011" id="Path-10"></path>
                            <path d="M1.25036121,25.680915 C1.25036121,25.680915 4.30938642,24.2584281 6.53548627,22.4425791 C8.76158612,20.6267302 9.65796697,19.0195236 9.65796697,19.0195236 C9.79994412,18.795041 10.0371609,18.801732 10.1939283,19.0326822 C10.1939283,19.0326822 11.2091902,20.7085359 13.2401523,22.4340992 C15.2711144,24.1596624 18.2337967,25.680915 18.2337967,25.680915" id="Path-10"></path>
                            <path d="M0.125362104,34.320662 C0.125362104,34.320662 3.6476167,33.2052469 5.44602814,31.6237282 C7.24443958,30.0422096 9.22517735,27.9639547 9.22517735,27.9639547 C9.6061776,27.5711997 10.1676854,27.6207105 10.4865022,28.0643162 C10.4865022,28.0643162 11.8094,30.1252369 13.7544865,31.6237282 C15.699573,33.1222195 19.0893239,34.320662 19.0893239,34.320662" id="Path-10"></path>
                        </g>
                        <g id="Group-6" transform="translate(45.158461, 0.000000)" stroke="#F3ECE6">
                            <path d="M9.67681307,1.61995257 L9.67681307,43.752563" id="Line"></path>
                            <path d="M2.95137651,7.32145246 C2.95137651,7.32145246 5.23217363,5.4217928 6.53548627,4.08311662 C7.83879891,2.74444045 9.26899455,1.01887967 9.26899455,1.01887967 C9.62579523,0.59622703 10.1909062,0.599227914 10.5365995,1.02682522 C10.5365995,1.02682522 12.2378853,3.19458781 13.2401523,4.07463666 C14.2424192,4.95468551 16.8787021,7.42088569 16.8787021,7.42088569" id="Path-10"></path>
                            <path d="M2.95137651,17.0411679 C2.95137651,17.0411679 5.23217363,15.1415082 6.53548627,13.8028321 C7.83879891,12.4641559 9.26899455,10.7385951 9.26899455,10.7385951 C9.62579523,10.3159425 10.1909062,10.3189434 10.5365995,10.7465407 C10.5365995,10.7465407 12.2378853,12.9143033 13.2401523,13.7943521 C14.2424192,14.674401 16.8787021,17.1406011 16.8787021,17.1406011" id="Path-10"></path>
                            <path d="M1.25036121,25.680915 C1.25036121,25.680915 4.30938642,24.2584281 6.53548627,22.4425791 C8.76158612,20.6267302 9.65796697,19.0195236 9.65796697,19.0195236 C9.79994412,18.795041 10.0371609,18.801732 10.1939283,19.0326822 C10.1939283,19.0326822 11.2091902,20.7085359 13.2401523,22.4340992 C15.2711144,24.1596624 18.2337967,25.680915 18.2337967,25.680915" id="Path-10"></path>
                            <path d="M0.125362104,34.320662 C0.125362104,34.320662 3.6476167,33.2052469 5.44602814,31.6237282 C7.24443958,30.0422096 9.22517735,27.9639547 9.22517735,27.9639547 C9.6061776,27.5711997 10.1676854,27.6207105 10.4865022,28.0643162 C10.4865022,28.0643162 11.8094,30.1252369 13.7544865,31.6237282 C15.699573,33.1222195 19.0893239,34.320662 19.0893239,34.320662" id="Path-10"></path>
                        </g>
                        <g id="Group-6" transform="translate(69.350494, 0.000000)" stroke="#E38B11">
                            <path d="M9.67681307,1.61995257 L9.67681307,43.752563" id="Line"></path>
                            <path d="M2.95137651,7.32145246 C2.95137651,7.32145246 5.23217363,5.4217928 6.53548627,4.08311662 C7.83879891,2.74444045 9.26899455,1.01887967 9.26899455,1.01887967 C9.62579523,0.59622703 10.1909062,0.599227914 10.5365995,1.02682522 C10.5365995,1.02682522 12.2378853,3.19458781 13.2401523,4.07463666 C14.2424192,4.95468551 16.8787021,7.42088569 16.8787021,7.42088569" id="Path-10"></path>
                            <path d="M2.95137651,17.0411679 C2.95137651,17.0411679 5.23217363,15.1415082 6.53548627,13.8028321 C7.83879891,12.4641559 9.26899455,10.7385951 9.26899455,10.7385951 C9.62579523,10.3159425 10.1909062,10.3189434 10.5365995,10.7465407 C10.5365995,10.7465407 12.2378853,12.9143033 13.2401523,13.7943521 C14.2424192,14.674401 16.8787021,17.1406011 16.8787021,17.1406011" id="Path-10"></path>
                            <path d="M1.25036121,25.680915 C1.25036121,25.680915 4.30938642,24.2584281 6.53548627,22.4425791 C8.76158612,20.6267302 9.65796697,19.0195236 9.65796697,19.0195236 C9.79994412,18.795041 10.0371609,18.801732 10.1939283,19.0326822 C10.1939283,19.0326822 11.2091902,20.7085359 13.2401523,22.4340992 C15.2711144,24.1596624 18.2337967,25.680915 18.2337967,25.680915" id="Path-10"></path>
                            <path d="M0.125362104,34.320662 C0.125362104,34.320662 3.6476167,33.2052469 5.44602814,31.6237282 C7.24443958,30.0422096 9.22517735,27.9639547 9.22517735,27.9639547 C9.6061776,27.5711997 10.1676854,27.6207105 10.4865022,28.0643162 C10.4865022,28.0643162 11.8094,30.1252369 13.7544865,31.6237282 C15.699573,33.1222195 19.0893239,34.320662 19.0893239,34.320662" id="Path-10"></path>
                        </g>
                    </g>
                </g>
            </g>
        </g>
    </g>
</svg>