<?xml version="1.0" encoding="UTF-8"?>
<svg width="899px" height="331px" viewBox="0 0 899 331" version="1.1" xmlns="http://www.w3.org/2000/svg" xmlns:xlink="http://www.w3.org/1999/xlink">
    <!-- Generator: Sketch 41.2 (35397) - http://www.bohemiancoding.com/sketch -->
    <title>Group</title>
    <desc>Created with Sketch.</desc>
    <defs></defs>
    <g id="Page-1" stroke="none" stroke-width="1" fill="none" fill-rule="evenodd">
        <g id="Desktop-Landscape" transform="translate(-169.000000, -222.000000)" fill="#FFFFFF">
            <g id="Group" transform="translate(169.000000, 222.000000)">
                <path d="M451.722207,22.5703749 C451.722207,23.0912087 452.047728,23.4818334 452.698768,23.7422488 C453.349809,24.1328734 453.935745,24.0026642 454.456579,23.3516242 C454.716995,23.0912087 454.847204,22.8307903 454.847204,22.5703749 C454.847204,21.7891256 454.131058,20.747461 452.698768,19.4453779 C451.006061,17.7526702 447.555545,17.1016301 442.347216,17.4922547 C439.222219,17.7526702 436.097222,18.2084009 432.972225,18.8594409 C433.883683,15.6042347 434.404514,13.7162177 434.534723,13.1953838 C434.534723,12.1537192 434.013889,11.5026761 432.972225,11.2422607 C432.5816,11.1120515 432.321185,11.1120515 432.190976,11.2422607 C431.670142,11.2422607 431.214414,11.437573 430.823789,11.8281976 C430.172749,13.260487 429.065979,15.9948593 427.50348,20.0313148 C425.940981,20.4219394 424.443586,20.8125641 423.011297,21.2031887 C416.631094,23.286521 411.422767,23.6120396 407.386312,22.1797503 C404.912355,21.398501 403.414962,20.2266271 402.894128,18.6641286 C402.633713,17.1016301 402.568607,16.1901717 402.698816,15.9297562 C402.829025,16.4505901 403.154544,16.7110055 403.675378,16.7110055 C404.196212,16.7110055 404.651939,16.5807963 405.042564,16.3203809 C405.302979,16.0599654 405.368085,15.6042347 405.237876,14.9531947 C405.107667,14.1719454 404.586836,13.91153 403.675378,14.1719454 C402.503504,14.1719454 401.852464,15.2787162 401.722255,17.4922547 C401.592045,17.6224639 401.526942,17.7526702 401.526942,17.8828794 C401.657151,19.9662117 403.414962,21.6589164 406.800375,22.9609995 C409.534747,24.0026642 412.26912,24.523498 415.003492,24.523498 C418.128489,24.523498 421.513901,23.872458 425.159732,22.5703749 L426.722231,21.984438 C426.331606,22.8958964 426.006085,23.8073519 425.745669,24.7188103 C423.401921,31.4896382 421.579007,38.7812969 420.276924,46.5937895 C419.365466,51.0208696 418.779529,55.4479467 418.519114,59.8750268 C415.133701,63.5208577 411.227455,65.8646054 406.800375,66.9062701 C401.852464,67.9479348 396.709238,68.1432471 391.370702,67.4922071 C384.730083,66.5807486 377.959255,65.1484593 371.058221,63.1953362 C364.026978,61.1120038 357.516569,60.005236 351.52699,59.8750268 C348.271784,59.6146114 345.211893,59.7448176 342.347311,60.2656514 C339.48273,61.0469007 336.94367,62.2187746 334.730131,63.7812731 C334.079091,63.2604393 333.297842,62.6745023 332.386383,62.0234623 C331.0843,61.242213 329.456699,60.7864853 327.503575,60.6562761 C326.852535,60.3958607 326.201492,60.2656514 325.550452,60.2656514 C323.46712,60.2656514 322.034831,60.9817976 321.253581,62.4140869 C320.732748,63.1953362 320.472332,63.9114823 320.472332,64.5625224 C320.472332,65.0833562 320.667644,65.5390839 321.058269,65.9297085 C321.709309,66.4505424 322.295246,66.5156455 322.81608,66.1250209 C323.46712,65.8646054 323.792641,65.4739808 323.792641,64.953147 C323.792641,64.4323131 323.532226,64.1067946 323.011392,63.9765854 C322.490558,63.5859608 321.969727,63.4557516 321.448894,63.5859608 C321.448894,63.4557516 321.904621,62.9349207 322.81608,62.0234623 C323.727538,61.242213 325.290037,61.0469007 327.503575,61.4375253 C330.628572,62.0885654 332.646799,63.3255454 333.558257,65.1484593 C332.125968,66.190124 331.149406,67.8177286 330.628572,70.0312671 C330.107739,72.2448057 330.758782,73.677098 332.581696,74.328138 C333.102529,74.4583472 333.62336,74.5234504 334.144194,74.5234504 C335.576483,74.5234504 336.618151,73.6119919 337.269191,71.789078 C337.3994,71.1380379 337.464503,70.4218918 337.464503,69.6406425 C337.594713,68.078144 337.073879,66.4505424 335.902005,64.7578347 C338.115543,63.1953362 340.654604,62.0885654 343.519185,61.4375253 C346.644182,60.9166915 349.964491,60.7864853 353.480113,61.0469007 C360.120732,61.6979408 367.217078,63.130233 374.769155,65.3437716 C382.451439,67.5573102 389.7431,68.8593933 396.644134,69.2500179 L398.597258,69.2500179 C402.373295,69.2500179 406.019125,68.7291841 409.534747,67.6875194 C412.789953,66.6458547 415.784741,64.6927316 418.519114,61.82815 L418.519114,63.1953362 C418.519114,67.3619979 419.105051,71.0078287 420.276924,74.1328257 C421.058174,76.0859489 422.164944,77.8437597 423.597234,79.4062582 C425.029523,80.7083413 426.982646,81.5546936 429.456603,81.9453183 L429.847228,81.9453183 C431.409726,81.9453183 433.102434,81.3593813 434.925348,80.1875075 C437.00868,78.6250089 439.157116,76.7369889 441.370654,74.5234504 C444.495651,71.1380379 447.425336,67.6224163 450.159708,63.9765854 C452.894081,60.2005483 454.521682,57.8568006 455.042516,56.9453421 L454.261267,56.9453421 C454.131058,56.8151329 453.870642,56.8151329 453.480018,56.9453421 C452.959184,58.2474252 449.638875,62.6093992 443.51909,70.0312671 C437.65972,77.5833443 433.362849,81.0989659 430.628477,80.5781321 C427.763895,80.0572982 426.136294,77.0625104 425.745669,71.5937656 C425.485254,65.7343962 425.875878,59.1588807 426.917543,51.867222 C428.089417,43.143271 429.586812,34.6797384 431.409726,26.4766212 C431.93056,24.0026642 432.386288,21.9193348 432.776912,20.2266271 C436.422743,19.1849625 439.873259,18.5990255 443.128465,18.4688163 C446.123253,18.3386071 448.467001,18.5990255 450.159708,19.2500656 C451.722207,19.9011056 452.698768,20.4870426 453.089393,21.0078764 C452.698768,21.0078764 452.308144,21.0729795 451.917519,21.2031887 C451.657104,21.5938133 451.591998,22.0495411 451.722207,22.5703749 Z M332.386383,70.0312671 C332.646799,68.4687686 333.167632,67.2968947 333.948882,66.5156455 C334.079091,66.9062701 334.144194,67.3619979 334.144194,67.8828317 C334.144194,71.2682441 333.753569,72.8958487 332.97232,72.7656395 C332.060862,72.6354303 331.865549,71.7239748 332.386383,70.0312671 Z M485.667854,57.7265914 C485.537645,56.4245083 485.472542,55.1224282 485.472542,53.8203451 C487.03504,51.9974312 488.988163,49.6536834 491.331911,46.7891018 C496.540241,40.7995232 501.292839,34.4193229 505.58971,27.6484951 C508.975122,22.1797503 511.31887,17.1016301 512.620953,12.4141346 C514.183452,7.59642985 513.337099,4.47143283 510.081893,3.03914353 C507.087105,1.34643581 504.222524,0.500083447 501.488151,0.500083447 L501.292839,0.500083447 C498.558467,0.630292649 496.08451,1.34643581 493.870971,2.6485189 C490.615765,4.60164203 487.881393,7.66153594 485.667854,11.8281976 C483.454315,15.8646531 481.696505,20.6172518 480.394422,26.0859965 C478.701714,32.9870306 477.855361,40.4088986 477.855361,48.3516003 C477.855361,51.7370128 478.050674,55.1224282 478.441298,58.5078406 C479.352757,70.2265795 482.087129,79.7968828 486.644416,87.2187507 C486.904831,87.3489599 487.165249,87.4140631 487.425665,87.4140631 C487.816289,87.4140631 488.206914,87.3489599 488.597539,87.2187507 C489.248579,86.9583353 489.639203,86.4375015 489.769413,85.6562522 C490.420453,83.1822953 491.592327,78.4947997 493.285034,71.5937656 C494.847533,64.4323131 496.149616,60.7864853 497.191281,60.6562761 C497.712114,60.6562761 498.037633,62.4140869 498.167842,65.9297085 C498.298051,69.315121 499.339716,72.5052241 501.292839,75.5000119 C501.943879,76.9323012 502.855338,78.1692812 504.027212,79.2109459 C505.068876,80.1224043 506.436062,80.7083413 508.12877,80.9687567 C511.123558,81.6197968 515.225117,78.1041751 520.433446,70.4218918 C525.902191,62.8698146 528.896978,58.6380498 529.417812,57.7265914 C529.287603,57.2057575 529.092291,56.9453421 528.831875,56.9453421 C528.701666,56.8151329 528.441251,56.9453421 528.050626,57.3359667 C527.790211,58.117216 524.990732,62.1536715 519.652197,69.4453302 C514.443867,76.6067827 511.058455,79.9921951 509.495956,79.6015705 C508.584498,79.3411551 507.868355,76.8671981 507.347521,72.1797026 C506.826687,67.4922071 505.654813,63.71617 503.831899,60.8515884 C503.311065,59.8099237 502.529816,59.0286745 501.488151,58.5078406 C500.576693,57.9870068 499.665238,57.8568006 498.753779,58.117216 C496.149616,58.3776314 494.00118,62.0885654 492.308473,69.2500179 C490.745974,76.2812612 489.834516,80.4479229 489.5741,81.750006 C487.620977,76.2812612 486.318894,68.2734563 485.667854,57.7265914 Z M488.792851,48.156288 C487.490768,49.5885773 486.318894,50.8906604 485.277229,52.0625343 C485.14702,43.4687925 485.798063,35.3958845 487.230353,27.8438074 C488.141811,22.7656872 489.313685,18.2084009 490.745974,14.1719454 C492.308473,10.1354899 494.261596,7.075599 496.605344,4.99226666 C498.428258,3.42976815 500.381381,2.58341579 502.464713,2.45320658 C504.678252,2.32299738 507.152209,2.90893432 509.886581,4.21101741 C513.271993,5.90372512 513.532412,9.7448653 510.66783,15.7344439 C507.933458,21.5938133 504.352733,27.6484951 499.925653,33.8984891 C496.019407,39.1068185 492.308473,43.8594171 488.792851,48.156288 Z M558.8712,62.8047115 C559.001409,61.242213 559.196721,59.8099237 559.457136,58.5078406 C565.186297,58.117216 568.636815,56.4245083 569.808689,53.4297205 C570.980563,50.044308 569.157649,48.2864972 564.339944,48.156288 L564.144632,48.156288 C559.97797,48.2864972 556.267036,51.1510758 553.01183,56.7500298 C551.319122,59.8750268 550.47277,62.8698146 550.47277,65.7343962 C550.47277,67.9479348 550.863395,69.966164 551.644644,71.789078 C552.556102,73.3515765 553.793079,74.5885535 555.355578,75.5000119 C556.787867,76.6718858 558.806096,77.5182382 561.41026,78.039072 C562.0613,78.2994874 562.647237,78.4296966 563.16807,78.4296966 C564.860778,78.4296966 566.553483,77.9739689 568.246191,77.0625104 C570.720148,75.8906365 573.259208,74.3932411 575.863371,72.5703272 C579.509202,69.7057456 582.894614,66.5807486 586.019611,63.1953362 C588.884193,59.9401299 590.576897,57.8568006 591.097731,56.9453421 C590.967522,56.8151329 590.77221,56.7500298 590.511794,56.7500298 C590.251379,56.880239 589.925857,56.9453421 589.535233,56.9453421 C588.884193,58.2474252 586.996173,60.3958607 583.871176,63.3906485 C581.006594,66.6458547 577.881597,69.5104333 574.496185,71.9843903 C572.152437,73.677098 569.873792,75.0442842 567.660254,76.0859489 C565.70713,77.1276135 563.884217,77.4531351 562.191509,77.0625104 C558.806096,76.0208458 557.699326,71.2682441 558.8712,62.8047115 Z M568.246191,53.4297205 C567.334732,55.643259 564.535257,56.9453421 559.847761,57.3359667 C561.149844,52.3880558 563.16807,49.8489957 565.902443,49.7187865 C568.767024,49.4583711 569.548274,50.6953481 568.246191,53.4297205 Z" id="The"></path>
                <path d="M187.483492,124.03912 C186.832452,124.429744 186.441827,124.950578 186.311618,125.601618 C186.181409,126.513077 186.181409,127.164117 186.311618,127.554741 C185.660578,127.554741 184.61891,126.903701 183.186621,125.601618 C181.754331,124.299535 181.754331,122.346412 183.186621,119.742249 C184.61891,117.398501 186.441827,115.575587 188.655366,114.273504 C190.999113,112.841215 193.538173,111.604235 196.272546,110.56257 C201.350666,108.739656 206.754308,107.177158 212.483468,105.875075 C212.874092,105.875075 213.264717,105.809971 213.655342,105.679762 C213.525132,107.763095 213.460029,109.976633 213.460029,112.320381 C213.32982,121.565163 213.590239,130.484426 214.241279,139.078168 C214.371488,141.81254 214.5668,144.416703 214.827216,146.89066 C213.915757,148.843784 213.199614,150.796907 212.67878,152.75003 C210.855866,158.47919 211.311594,162.125021 214.045966,163.687519 C217.952213,165.770852 220.361063,164.403666 221.272522,159.585961 C222.18398,155.028674 222.444396,149.039096 222.053771,141.617228 C221.923562,139.794314 221.858459,137.906294 221.858459,135.953171 C222.118874,135.562546 222.379293,135.106818 222.639708,134.585985 C227.196994,126.903701 232.275115,119.742249 237.874069,113.10163 C243.473023,106.591221 247.379269,103.466224 249.592807,103.726639 C252.717804,103.987054 253.368844,107.958407 251.545931,115.64069 C249.462598,123.453183 247.183957,132.372446 244.71,142.398477 C243.407916,147.737013 242.301149,153.140654 241.38969,158.609399 C240.348026,163.817729 239.957401,168.700536 240.217816,173.257823 C240.348026,177.684903 241.194378,181.526043 242.756876,184.781249 C244.189166,188.166662 246.728226,190.510409 250.374057,191.812493 C252.848014,192.854157 254.996449,193.374991 256.819363,193.374991 C257.861028,193.374991 258.707383,193.309888 259.358423,193.179679 C261.83238,192.528639 263.13446,191.682283 263.264669,190.640619 C263.264669,189.72916 262.808942,189.013017 261.897483,188.492183 C261.246443,188.101559 260.5954,188.101559 259.94436,188.492183 C259.032902,189.273432 258.772486,189.989579 259.163111,190.640619 C259.553735,191.161452 260.009463,191.486971 260.530297,191.61718 C260.009463,192.138014 258.902695,192.398429 257.209988,192.398429 C255.256865,192.398429 253.303741,191.942702 251.350618,191.031243 C250.178744,190.640619 249.332392,189.468745 248.811558,187.515622 C248.420934,185.692708 248.290724,183.34896 248.420934,180.484378 C248.941767,175.406258 250.178744,169.026055 252.131868,161.343772 C253.954781,153.921904 255.647489,146.434933 257.209988,138.882856 C259.032902,129.377655 259.879257,120.979226 259.749048,113.687567 C259.749048,106.395908 256.819363,102.489662 250.959994,101.968828 C248.095412,101.708413 243.668335,105.028722 237.678756,111.929756 C231.819387,118.440166 226.480851,125.536515 221.663147,133.218798 C221.402731,126.838595 221.012107,120.328186 220.491273,113.687567 C220.230857,109.520905 220.230857,106.005284 220.491273,103.140702 C222.704811,101.968828 224.657934,100.471433 226.350642,98.6485189 C229.996473,95.002688 230.452201,92.1381094 227.717828,90.0547771 C226.80637,89.403737 225.894914,89.0782155 224.983456,89.0782155 C222.900124,89.0782155 220.751688,90.3151925 218.53815,92.7891495 C216.194402,95.5235219 214.631903,99.4297682 213.850654,104.507888 L210.725657,105.289138 C205.256912,106.461011 199.853271,107.828198 194.514735,109.390696 C189.04599,110.692779 185.139744,113.362046 182.795996,117.398501 C181.624122,119.351624 181.038185,121.044332 181.038185,122.476621 C181.038185,124.429744 181.884538,125.992243 183.577245,127.164117 C186.572033,129.377655 188.720469,129.507864 190.022552,127.554741 C190.93401,126.382867 190.93401,125.406306 190.022552,124.625057 C189.371512,123.713598 188.525156,123.518286 187.483492,124.03912 Z M225.178768,98.6485189 C223.876685,99.950602 222.314187,101.05737 220.491273,101.968828 C221.012107,98.8438312 221.858459,96.5651866 223.030333,95.1328973 C224.983456,92.7891495 226.545954,92.0079002 227.717828,92.7891495 C228.889702,93.8308142 228.04335,95.7839373 225.178768,98.6485189 Z M214.045966,152.359405 C214.306382,151.447947 214.631903,150.536491 215.022528,149.625033 C215.282943,152.229196 215.543362,154.572944 215.803777,156.656276 C216.064193,161.343772 215.608465,163.361998 214.436591,162.710958 C212.223052,161.148459 212.092843,157.697941 214.045966,152.359405 Z M313.616515,151.578156 C314.267555,151.057322 314.267555,149.690136 313.616515,147.476597 C312.705056,145.393265 310.817039,144.286497 307.952458,144.156288 L307.561833,144.156288 C302.744128,144.156288 299.163404,146.89066 296.819656,152.359405 C295.257157,155.354193 294.606117,158.088565 294.866533,160.562522 C294.866533,162.645855 295.257157,164.598978 296.038407,166.421892 C296.689447,167.33335 297.470696,168.179703 298.382154,168.960952 C299.163404,169.742201 300.270174,170.263035 301.702464,170.52345 C303.916002,171.17449 306.585272,169.156264 309.710269,164.468769 C312.835266,159.520858 314.527973,156.786485 314.788389,156.265651 C314.788389,156.786485 314.65818,159.065127 314.397764,163.101582 C314.267555,167.007829 314.853492,170.52345 316.155575,173.648447 C316.676409,174.690112 317.327449,175.536467 318.108698,176.187507 C318.889947,176.838548 319.866509,177.359381 321.038383,177.750006 L321.429007,177.750006 C323.121715,177.750006 325.270151,176.513029 327.874314,174.039072 C330.869102,171.17449 333.733683,168.049493 336.468056,164.664081 C338.681594,161.929709 340.569614,159.390648 342.132113,157.046901 C343.82482,154.833362 344.736276,153.596382 344.866485,153.335967 C344.736276,153.075551 344.540964,152.945342 344.280548,152.945342 C344.020133,152.945342 343.759714,153.075551 343.499299,153.335967 C343.238884,153.596382 342.001904,155.158881 339.788365,158.023462 C337.574826,161.148459 335.165973,164.208353 332.561809,167.203141 C330.478477,169.807304 328.460251,171.95574 326.507128,173.648447 C324.684214,175.471361 323.251921,176.317717 322.210257,176.187507 C320.647758,175.796883 320.322237,172.281261 321.233695,165.640643 C322.014944,159.130233 322.861297,152.75003 323.772755,146.500036 C323.251921,145.328162 322.600881,144.872434 321.819632,145.13285 C320.777967,145.523474 320.061821,145.848996 319.671197,146.109411 C317.848283,148.713574 314.983701,153.335967 311.077455,159.976585 C307.171209,166.747413 304.436836,169.677098 302.874338,168.76564 C301.572255,168.114599 301.572255,163.947935 302.874338,156.265651 C304.046212,148.843784 305.934232,145.13285 308.538395,145.13285 C310.231102,145.263059 311.468079,146.044308 312.249329,147.476597 C313.030578,149.039096 313.160787,149.820345 312.639953,149.820345 C312.11912,150.080761 311.988913,150.536491 312.249329,151.187531 C312.509744,151.708365 312.965475,151.838571 313.616515,151.578156 Z M400.882345,117.203189 C400.882345,117.854229 401.207866,118.309959 401.858906,118.570375 C402.640155,118.83079 403.291195,118.700584 403.812029,118.17975 C403.942238,117.919335 404.007342,117.593813 404.007342,117.203189 C404.007342,116.552149 403.421405,115.575587 402.249531,114.273504 C400.556823,112.190172 397.171411,111.734444 392.09329,112.906318 C388.707878,113.687567 385.452672,114.599026 382.327675,115.64069 C383.890173,109.781321 384.736526,106.526115 384.866735,105.875075 C384.736526,104.83341 384.150589,104.247473 383.108924,104.117264 C382.978715,103.856848 382.718299,103.856848 382.327675,104.117264 C381.806841,104.117264 381.416216,104.247473 381.155801,104.507888 C380.114136,106.461011 378.356325,110.953195 375.882368,117.984438 C370.934457,119.807352 366.57248,119.61204 362.796443,117.398501 C360.84332,116.096418 359.866759,114.794338 359.866759,113.492255 C359.866759,112.059965 359.931862,111.21361 360.062071,110.953195 C360.19228,111.474028 360.517799,111.734444 361.038633,111.734444 C361.559466,111.864653 362.080297,111.734444 362.601131,111.343819 C362.73134,111.21361 362.73134,110.822985 362.601131,110.171945 C362.601131,109.260487 362.080297,108.804759 361.038633,108.804759 C360.257383,109.065175 359.476134,110.171945 358.694885,112.125069 C358.564676,112.515693 358.499572,112.841215 358.499572,113.10163 C358.499572,115.054753 359.801656,116.747461 362.405819,118.17975 C365.2704,120.132873 368.200085,121.109435 371.194873,121.109435 C372.496956,121.109435 373.799036,120.914123 375.101119,120.523498 C372.757371,128.335991 370.934457,136.408899 369.632374,144.742225 C368.851125,149.42972 368.4605,153.987007 368.4605,158.414087 L368.4605,158.609399 C368.4605,162.90627 369.046437,166.552101 370.218311,169.546889 C370.869351,171.760427 371.976122,173.648447 373.538621,175.210946 C375.101119,176.643235 377.054242,177.554694 379.39799,177.945318 L379.788615,177.945318 C381.351113,177.945318 382.978715,177.359381 384.671423,176.187507 C386.884961,174.625009 389.098503,172.736989 391.312041,170.52345 C394.567247,167.138038 397.496932,163.622416 400.101095,159.976585 C402.835468,156.200548 404.463069,153.856801 404.983903,152.945342 C404.593279,152.945342 404.332863,152.880239 404.202654,152.75003 C404.072445,152.75003 403.812029,152.815133 403.421405,152.945342 C402.900571,154.247425 399.645368,158.609399 393.655789,166.031267 C387.66621,173.583344 383.304236,177.098966 380.569864,176.578132 C377.054242,175.927092 375.361535,171.369803 375.491744,162.90627 C375.882368,154.442738 376.85893,145.653683 378.421428,136.539108 C379.593302,129.507864 380.765176,123.25787 381.93705,117.789126 C385.843296,115.966212 389.358918,114.664129 392.483915,113.882879 C395.608912,113.10163 397.887557,113.10163 399.319846,113.882879 C401.012554,114.533919 401.989115,115.119856 402.249531,115.64069 C401.989115,115.64069 401.728697,115.836003 401.468282,116.226627 C400.947448,116.356836 400.752135,116.682355 400.882345,117.203189 Z M431.116967,147.867222 C427.731555,153.466176 425.973744,159.195336 425.843535,165.054706 C425.713326,165.184915 425.648222,165.315121 425.648222,165.44533 C425.648222,170.65366 428.187283,173.648447 433.265403,174.429697 L433.85134,174.429697 C435.283629,174.429697 436.976337,173.908863 438.92946,172.867198 C441.142998,171.434909 443.486746,169.87241 445.960703,168.179703 C449.476325,165.315121 452.731531,162.320333 455.726319,159.195336 C458.5909,156.070339 460.413814,153.987007 461.195064,152.945342 L460.413814,152.945342 C460.02319,152.815133 459.632565,152.945342 459.24194,153.335967 C458.330482,154.63805 454.619548,158.414087 448.109139,164.664081 C441.728935,170.783866 437.236752,173.322926 434.632589,172.281261 C433.2003,171.630221 432.939881,167.723975 433.85134,160.562522 C434.893004,153.661488 435.348735,149.625033 435.218526,148.453159 C434.697692,147.802119 434.046652,147.411494 433.265403,147.281285 C433.004987,147.02087 432.809675,146.89066 432.679466,146.89066 C432.158632,146.89066 431.637801,147.216182 431.116967,147.867222 Z M435.999775,139.859417 C436.26019,139.989626 436.520609,140.054729 436.781024,140.054729 C437.822689,140.054729 438.408626,139.468792 438.538835,138.296919 C438.669044,137.645879 438.734147,137.125045 438.734147,136.73442 C438.734147,136.08338 438.603938,135.692755 438.343523,135.562546 L437.952898,135.562546 C437.692483,135.562546 436.976337,136.148483 435.804463,137.320357 C435.023213,137.971397 434.632589,138.492231 434.632589,138.882856 C434.632589,139.403689 435.088317,139.729208 435.999775,139.859417 Z M490.062497,150.992219 C483.421878,152.294302 480.101569,155.679715 480.101569,161.148459 L480.101569,162.515645 C480.622402,168.505224 484.789064,171.760427 492.601557,172.281261 L493.382806,172.281261 C497.289052,172.281261 500.479152,169.87241 502.953109,165.054706 C504.515608,161.929709 505.296857,158.739608 505.296857,155.484402 C508.68227,156.265651 512.132788,156.395861 515.64841,155.875027 C519.424447,155.354193 521.963507,154.312528 523.26559,152.75003 C522.61455,152.619821 522.158819,152.554717 521.898404,152.554717 C520.205696,154.507841 515.973931,155.158881 509.203103,154.507841 C507.770814,154.507841 506.468731,154.377631 505.296857,154.117216 C505.166648,152.424508 504.841129,150.731804 504.320296,149.039096 C502.627588,143.70056 499.567697,141.031291 495.140617,141.031291 C490.973955,141.031291 489.997394,143.24483 492.210932,147.67191 C493.122391,149.755242 494.684889,151.447947 496.898428,152.75003 C499.111966,153.921904 501.52082,154.768256 504.124983,155.28909 L504.320296,155.484402 C504.320296,158.609399 503.539046,161.604187 501.976548,164.468769 C499.242175,169.41668 496.4427,171.630221 493.578118,171.109387 C490.453121,170.718763 489.216144,167.919287 489.867184,162.710958 C490.648434,157.502628 491.885411,154.63805 493.578118,154.117216 C493.578118,153.335967 493.252597,152.619821 492.601557,151.968781 C492.080723,151.31774 491.234371,150.992219 490.062497,150.992219 Z M503.343734,149.42972 L504.124983,153.726591 C500.348946,152.554717 497.874989,150.406282 496.703115,147.281285 C495.531241,144.546913 495.921866,143.179726 497.874989,143.179726 C499.958322,143.179726 501.781235,145.263059 503.343734,149.42972 Z M551.156467,146.695348 C550.635633,146.174514 549.91949,146.174514 549.008032,146.695348 C548.356992,147.085973 547.836158,147.67191 547.445533,148.453159 L547.445533,149.42972 C547.445533,150.86201 547.575742,152.815133 547.836158,155.28909 C547.836158,158.804712 548.422095,161.539084 549.593969,163.492207 C550.375218,163.752622 551.351779,163.882832 552.523653,163.882832 C553.565318,163.882832 554.411673,163.427104 555.062713,162.515645 C556.495003,157.82815 558.448126,152.880239 560.922083,147.67191 C563.526246,142.333374 565.349163,139.664105 566.390828,139.664105 C567.302286,139.664105 567.627805,141.096394 567.367389,143.960976 C566.846555,146.825557 566.390828,150.080761 566.000203,153.726591 C565.739788,156.200548 565.609578,158.674502 565.609578,161.148459 C565.349163,163.752622 565.479369,166.031267 566.000203,167.98439 C566.521037,169.677098 567.302286,171.044284 568.343951,172.085949 C569.385615,173.257823 570.817908,174.039072 572.640822,174.429697 L573.226759,174.429697 C575.700716,174.429697 579.802274,171.3047 585.531434,165.054706 C591.651219,158.283878 594.971528,154.442738 595.492362,153.531279 C594.841322,153.531279 594.320488,153.466176 593.929864,153.335967 C593.669448,153.987007 590.674658,157.437525 584.945497,163.687519 C579.086128,169.937513 575.440297,172.932301 574.008008,172.671886 C573.096549,172.671886 572.705925,171.109387 572.836134,167.98439 C572.836134,164.989602 572.966343,161.539084 573.226759,157.632838 C573.487174,152.815133 573.356968,148.32295 572.836134,144.156288 C572.445509,139.859417 570.883011,137.710982 568.148638,137.710982 L567.758014,137.710982 C565.153851,137.971397 562.484581,141.291706 559.750209,147.67191 C557.015837,154.182319 555.583547,157.437525 555.453338,157.437525 C555.453338,157.17711 554.867401,155.549505 553.695527,152.554717 C552.523653,149.690136 551.677301,147.737013 551.156467,146.695348 Z M636.469174,151.578156 C637.120214,151.057322 637.120214,149.690136 636.469174,147.476597 C635.557716,145.393265 633.669699,144.286497 630.805117,144.156288 L630.414492,144.156288 C625.596788,144.156288 622.016063,146.89066 619.672315,152.359405 C618.109817,155.354193 617.458777,158.088565 617.719192,160.562522 C617.719192,162.645855 618.109817,164.598978 618.891066,166.421892 C619.542106,167.33335 620.323355,168.179703 621.234814,168.960952 C622.016063,169.742201 623.122834,170.263035 624.555123,170.52345 C626.768662,171.17449 629.437931,169.156264 632.562928,164.468769 C635.687925,159.520858 637.380633,156.786485 637.641048,156.265651 C637.641048,156.786485 637.510839,159.065127 637.250423,163.101582 C637.120214,167.007829 637.706151,170.52345 639.008234,173.648447 C639.529068,174.690112 640.180108,175.536467 640.961357,176.187507 C641.742607,176.838548 642.719168,177.359381 643.891042,177.750006 L644.281667,177.750006 C645.974374,177.750006 648.12281,176.513029 650.726973,174.039072 C653.721761,171.17449 656.586342,168.049493 659.320715,164.664081 C661.534253,161.929709 663.422273,159.390648 664.984772,157.046901 C666.67748,154.833362 667.588935,153.596382 667.719144,153.335967 C667.588935,153.075551 667.393623,152.945342 667.133207,152.945342 C666.872792,152.945342 666.612374,153.075551 666.351958,153.335967 C666.091543,153.596382 664.854563,155.158881 662.641024,158.023462 C660.427486,161.148459 658.018632,164.208353 655.414469,167.203141 C653.331136,169.807304 651.31291,171.95574 649.359787,173.648447 C647.536873,175.471361 646.104581,176.317717 645.062916,176.187507 C643.500417,175.796883 643.174896,172.281261 644.086354,165.640643 C644.867604,159.130233 645.713956,152.75003 646.625414,146.500036 C646.104581,145.328162 645.453541,144.872434 644.672291,145.13285 C643.630627,145.523474 642.914481,145.848996 642.523856,146.109411 C640.700942,148.713574 637.83636,153.335967 633.930114,159.976585 C630.023868,166.747413 627.289495,169.677098 625.726997,168.76564 C624.424914,168.114599 624.424914,163.947935 625.726997,156.265651 C626.898871,148.843784 628.786891,145.13285 631.391054,145.13285 C633.083762,145.263059 634.320739,146.044308 635.101988,147.476597 C635.883237,149.039096 636.013446,149.820345 635.492613,149.820345 C634.971779,150.080761 634.841573,150.536491 635.101988,151.187531 C635.362403,151.708365 635.818134,151.838571 636.469174,151.578156 Z M698.344403,158.609399 C698.344403,156.005236 698.474612,153.40107 698.735028,150.796907 C700.948566,148.583368 703.35742,146.109411 705.961583,143.375039 C709.998039,139.208377 713.904285,134.911506 717.680322,130.484426 C723.279276,123.843807 727.445938,117.724023 730.18031,112.125069 C732.654267,106.395908 731.352184,102.684974 726.274064,100.992267 C724.581356,100.471433 722.823545,100.211017 721.000631,100.211017 C715.271471,100.080808 709.998039,103.205805 705.180334,109.586008 C698.93034,118.049541 694.633469,127.619844 692.289721,138.296919 C691.117847,143.375039 690.53191,148.257847 690.53191,152.945342 C690.53191,156.330755 690.857432,159.651064 691.508472,162.90627 C692.940761,170.588553 696.521489,175.341155 702.250649,177.164069 C703.292314,177.554694 704.464188,177.750006 705.766271,177.750006 C709.802726,177.750006 715.922511,176.187507 724.125628,173.06251 C734.672493,169.156264 747.367794,165.184915 762.21153,161.148459 C770.154231,159.065127 778.422452,157.307316 787.016193,155.875027 C795.870351,154.312528 804.919823,153.466176 814.164605,153.335967 C830.44063,152.945342 841.964057,154.377631 848.734885,157.632838 C855.505712,160.888044 858.891125,162.841167 858.891125,163.492207 C858.370291,163.101582 857.589042,163.166686 856.547377,163.687519 C855.505712,164.078144 855.180191,164.859393 855.570816,166.031267 C855.701025,166.812516 856.352065,167.398453 857.523939,167.789078 C858.695813,168.309912 859.737477,167.789078 860.648936,166.226579 C860.779145,165.835955 860.844248,165.575539 860.844248,165.44533 C861.104663,163.492207 857.914563,160.692732 851.273945,157.046901 C843.591661,153.140654 830.961464,151.382844 813.383356,151.773468 C804.138574,151.903677 795.023998,152.75003 786.039632,154.312528 C777.055265,156.005236 768.591733,157.893253 760.649031,159.976585 C745.935504,163.752622 733.37041,167.723975 722.953755,171.890637 C712.667305,175.796883 706.091792,177.098966 703.227211,175.796883 C699.841798,174.364594 698.214194,168.63543 698.344403,158.609399 Z M704.399085,143.179726 C702.445962,145.393265 700.623048,147.346388 698.93034,149.039096 C699.711589,142.138062 701.078775,135.237025 703.031899,128.335991 C705.375646,120.132873 708.565746,113.231839 712.602202,107.632885 C716.638657,102.164141 721.326153,100.341227 726.664688,102.164141 C730.83135,103.726639 731.482393,107.307364 728.617812,112.906318 C725.623024,118.505272 721.391256,124.429744 715.922511,130.679738 C712.146474,134.976609 708.305331,139.143271 704.399085,143.179726 Z" id="National"></path>
                <path d="M1.24293417,251.863305 C0.813247081,252.006535 0.598403536,252.221379 0.598403536,252.507836 L0.813247081,252.722679 C1.09970405,252.86591 1.38616429,253.080753 1.67262126,253.36721 C6.97209647,249.929713 14.276777,249.213569 23.5866629,251.218775 C33.0397788,253.36721 42.4212814,255.515645 51.7311673,257.664081 C56.7441822,258.953142 61.5423569,260.02736 66.1256848,260.886734 C68.8470375,261.173191 71.2819299,261.316421 73.4303653,261.316421 C75.2923438,261.316421 77.0110922,261.244808 78.5866104,261.101578 C84.8886866,259.955747 89.4720178,258.165381 92.3365973,255.730489 C98.6386735,259.454443 105.585284,261.316421 113.176421,261.316421 C115.0384,261.316421 116.971992,261.244808 118.977197,261.101578 C129.576144,259.812516 139.17249,257.234394 147.766232,253.36721 C152.63602,251.218775 156.932891,248.927109 160.656845,246.492217 C162.80528,245.059925 164.667259,243.699251 166.242777,242.410189 C165.383403,245.417999 165.81309,248.210965 167.531838,250.789087 C168.391212,251.934919 169.46543,252.86591 170.754491,253.582054 C172.043553,254.441428 173.619071,255.014345 175.481049,255.300802 C178.059172,255.587259 180.923751,252.937523 184.074791,247.351591 C187.082601,241.908889 188.872962,238.757849 189.44588,237.898475 C189.44588,239.330766 188.872962,245.203155 187.727131,255.515645 C187.583901,256.947937 187.369058,258.380225 187.082601,259.812516 C182.499273,262.820326 177.844328,265.828136 173.11777,268.835945 C169.107356,271.700525 165.240173,274.636721 161.516219,277.644531 C157.792265,280.50911 154.712839,283.373693 152.277946,286.238272 C146.978471,292.540349 144.328735,298.985655 144.328735,305.574191 C144.328735,307.579397 144.615192,309.512989 145.188109,311.374967 C147.336545,319.682252 152.134716,323.835893 159.582627,323.835893 L160.012314,323.835893 C164.738872,323.692663 168.820899,322.331988 172.258396,319.753865 C175.839123,317.175743 178.918546,313.80986 181.496669,309.656219 C184.361248,305.359348 186.652914,300.561177 188.371662,295.261701 C189.94718,289.675769 191.236241,283.946607 192.238846,278.074218 C193.527907,270.48308 194.387281,263.321627 194.816968,256.589863 L196.10603,255.730489 C199.973213,253.295597 203.482324,251.003931 206.633363,248.855496 C209.784403,246.70706 212.219295,244.701855 213.938044,242.839876 L214.152887,242.625033 C214.009657,242.481803 213.86643,242.410189 213.7232,242.410189 L212.648983,242.410189 C209.641173,245.561229 204.198471,249.428413 196.320873,254.011741 L195.031812,254.871115 C195.175042,252.86591 195.246655,250.860701 195.246655,248.855496 L195.246655,233.816447 C194.816968,232.670616 194.172438,231.882856 193.313063,231.453168 L192.453689,231.453168 C191.880772,231.453168 191.522702,231.668012 191.379472,232.097699 C189.517493,235.105509 186.867757,239.54561 183.43026,245.417999 C180.135994,251.576848 177.486255,254.369814 175.481049,253.796897 C173.332614,253.51044 172.831313,250.287787 173.977144,244.128938 C175.122976,237.970088 177.199798,235.033895 180.207607,235.320352 C181.639899,235.606809 182.570886,236.25134 183.000573,237.253944 C183.143803,238.686236 183.072187,239.473993 182.78573,239.617223 C182.356043,240.19014 182.356043,240.619827 182.78573,240.906284 C183.072187,241.479202 183.573491,241.479202 184.289635,240.906284 C184.862552,240.333367 184.790935,239.115923 184.074791,237.253944 C183.501874,235.391966 181.854742,234.317748 179.13339,234.031291 C173.690687,233.315147 169.823504,235.105509 167.531838,239.40238 C163.664654,242.983106 157.577422,246.85029 149.270137,251.003931 C140.246708,255.444032 130.936822,258.236998 121.340476,259.382829 C116.041001,259.955747 110.956372,259.88413 106.086584,259.167986 C101.503256,258.595069 97.3496123,257.091164 93.6256586,254.656271 C94.3418026,253.653667 94.9147198,252.651066 95.3444069,251.648462 C95.6308639,249.929713 95.774094,248.497422 95.774094,247.351591 C95.774094,245.346385 94.8431064,244.272168 92.9811279,244.128938 C92.8378978,243.842481 92.694671,243.699251 92.5514408,243.699251 C90.2597753,243.699251 88.8274872,245.131542 88.2545699,247.996121 C87.5384259,250.860701 88.3261834,253.009136 90.6178489,254.441428 C88.6126436,256.733093 84.3873861,258.308612 77.9420798,259.167986 C74.9342701,259.740903 71.2103165,259.669286 66.7702154,258.953142 C62.3301144,258.093768 57.6035564,257.16278 52.5905415,256.160176 C43.2806556,253.868511 33.7559229,251.791692 24.01635,249.929713 C14.1335469,247.924508 6.54240938,248.569039 1.24293417,251.863305 Z M172.902927,270.554694 C177.772715,267.403654 182.427656,264.395844 186.867757,261.531265 C185.578696,270.125007 183.788334,278.933592 181.496669,287.957021 C179.061776,296.98045 175.98235,305.001274 172.258396,312.019498 C168.820899,319.037721 164.380798,322.618445 158.938096,322.761675 C153.352164,323.048132 149.413367,319.037721 147.121701,310.730437 C145.116496,302.709612 147.121701,294.975244 153.137321,287.527334 C158.150336,281.654945 164.738872,275.997396 172.902927,270.554694 Z M91.9069102,251.863305 L91.4772231,253.152366 C90.0449317,252.006535 89.4720178,250.574244 89.7584748,248.855496 C89.9017049,246.70706 90.5462355,245.847686 91.6920667,246.277373 C92.5514408,246.420603 92.6230543,248.282578 91.9069102,251.863305 Z M246.981449,249.285183 C247.124679,247.566434 247.339522,245.990916 247.625979,244.558625 C253.928056,244.128938 257.723626,242.266959 259.012687,238.972693 C260.301748,235.248739 258.296543,233.315147 252.997068,233.171917 L252.782224,233.171917 C248.198896,233.315147 244.116869,236.466183 240.536142,242.625033 C238.674164,246.06253 237.743176,249.356796 237.743176,252.507836 C237.743176,254.942728 238.172863,257.16278 239.032237,259.167986 C240.034842,260.886734 241.395516,262.247409 243.114265,263.250013 C244.689783,264.539074 246.909835,265.470062 249.774415,266.042979 C250.490559,266.329436 251.135089,266.472666 251.708007,266.472666 C253.569985,266.472666 255.43196,265.971366 257.293939,264.968761 C260.015291,263.6797 262.808258,262.032565 265.672837,260.02736 C269.683251,256.87632 273.407205,253.438823 276.844701,249.71487 C279.995741,246.134143 281.857716,243.842481 282.430634,242.839876 C282.287403,242.696646 282.07256,242.625033 281.786103,242.625033 C281.499646,242.768263 281.141572,242.839876 280.711885,242.839876 C279.995741,244.272168 277.918919,246.635447 274.481422,249.929713 C271.330383,253.51044 267.892886,256.661477 264.168932,259.382829 C261.59081,261.244808 259.084301,262.748713 256.649408,263.894544 C254.500973,265.040375 252.495767,265.398449 250.633789,264.968761 C246.909835,263.82293 245.692387,258.595069 246.981449,249.285183 Z M257.293939,238.972693 C256.291335,241.407585 253.211911,242.839876 248.055666,243.269563 C249.487958,237.826861 251.708007,235.033895 254.715816,234.890665 C257.866856,234.604208 258.72623,235.964883 257.293939,238.972693 Z M314.184816,240.691441 C306.880136,242.123732 303.227796,245.847686 303.227796,251.863305 L303.227796,253.36721 C303.800713,259.955747 308.384041,263.53647 316.977783,264.109387 L317.837157,264.109387 C322.134028,264.109387 325.643138,261.459651 328.36449,256.160176 C330.083239,252.722679 330.942613,249.213569 330.942613,245.632842 C334.666567,246.492217 338.462137,246.635447 342.329321,246.06253 C346.482962,245.489612 349.275928,244.343781 350.708219,242.625033 C349.992075,242.481803 349.490771,242.410189 349.204314,242.410189 C347.342336,244.558625 342.687395,245.274769 335.239484,244.558625 C333.663966,244.558625 332.231674,244.415395 330.942613,244.128938 C330.799383,242.266959 330.441312,240.404984 329.868395,238.543005 C328.006417,232.670616 324.640537,229.73442 319.770749,229.73442 C315.187421,229.73442 314.113203,232.169312 316.548095,237.039101 C317.5507,239.330766 319.269448,241.192741 321.704341,242.625033 C324.139233,243.914094 326.788972,244.845082 329.653552,245.417999 L329.868395,245.632842 C329.868395,249.070339 329.009021,252.364606 327.290273,255.515645 C324.282463,260.958348 321.20304,263.393243 318.052,262.820326 C314.614504,262.390639 313.253829,259.311216 313.969973,253.582054 C314.829347,247.852891 316.190022,244.701855 318.052,244.128938 C318.052,243.269563 317.693927,242.481803 316.977783,241.765659 C316.404865,241.049515 315.473878,240.691441 314.184816,240.691441 Z M328.794178,238.972693 L329.653552,243.699251 C325.499911,242.410189 322.778558,240.04691 321.489497,236.609414 C320.200436,233.601604 320.630123,232.097699 322.778558,232.097699 C325.070224,232.097699 327.075429,234.389365 328.794178,238.972693 Z M395.567859,237.253944 C396.140776,236.967487 396.140776,235.821653 395.567859,233.816447 C394.851715,231.954469 393.06135,230.808638 390.19677,230.378951 L388.478022,230.378951 C383.751464,230.378951 380.242354,232.957073 377.950688,238.113318 C375.372566,244.128938 375.444179,248.998726 378.165532,252.722679 C379.024906,253.582054 379.955894,254.441428 380.958498,255.300802 C382.104329,255.873719 383.465007,256.23179 385.040525,256.37502 C387.618648,256.661477 390.411614,254.298198 393.419423,249.285183 C396.140776,244.272168 397.787908,241.264358 398.360825,240.261754 C398.504055,241.694045 398.217595,245.919299 397.501451,252.937523 C397.214994,255.229189 396.928534,257.592468 396.642077,260.02736 C391.629062,263.321627 386.4012,266.68751 380.958498,270.125007 C372.794443,275.424482 366.492367,280.79557 362.052266,286.238272 C356.896021,292.540349 354.317898,298.985655 354.317898,305.574191 C354.317898,307.579397 354.532742,309.512989 354.962429,311.374967 C357.110864,319.682252 361.765809,323.835893 368.927259,323.835893 L369.786634,323.835893 C374.513192,323.692663 378.666832,322.331988 382.247559,319.753865 C385.685056,317.318973 388.692865,314.024703 391.270988,309.871062 C393.992341,305.860648 396.140776,301.13409 397.716294,295.691388 C399.291813,290.535143 400.652491,285.020825 401.798322,279.148435 C402.944153,271.270838 403.6603,263.82293 403.946757,256.804707 C405.235818,256.088563 406.453266,255.372415 407.599097,254.656271 C415.190235,250.21617 420.561324,246.277373 423.712363,242.839876 L423.712363,242.625033 L423.49752,242.410189 L422.423302,242.410189 C420.704554,244.128938 418.269661,246.06253 415.118622,248.210965 C411.967582,250.21617 408.458472,252.436222 404.591288,254.871115 L404.161601,255.300802 L404.161601,236.179726 C403.875144,235.033895 403.230613,234.317748 402.228009,234.031291 C401.368635,233.888061 400.724104,234.031291 400.294417,234.460978 C398.432438,237.468788 395.925933,241.765659 392.774893,247.351591 C389.623853,252.937523 387.045731,255.444032 385.040525,254.871115 C382.89209,254.584658 382.677246,250.502631 384.395995,242.625033 C386.257973,235.033895 388.549635,231.381555 391.270988,231.668012 C392.846506,231.954469 393.777497,232.74223 394.063954,234.031291 C394.350411,235.177122 394.278798,235.893269 393.849111,236.179726 C393.70588,236.609414 393.70588,237.110714 393.849111,237.683631 C394.278798,237.970088 394.851715,237.826861 395.567859,237.253944 Z M384.395995,269.265632 C388.406409,266.54428 392.416819,263.966157 396.427233,261.531265 C395.711089,266.401053 394.851715,271.557298 393.849111,277 C391.700675,288.028634 388.549635,298.269511 384.395995,307.722627 C380.528811,317.4622 375.300952,322.475218 368.712416,322.761675 C362.983253,323.048132 359.11607,319.037721 357.110864,310.730437 C354.819199,302.709612 356.752791,294.975244 362.91164,287.527334 C365.489763,284.233067 368.640802,281.082027 372.364756,278.074218 C376.08871,275.066408 380.099124,272.130212 384.395995,269.265632 Z M455.466551,244.558625 C454.03426,243.842481 452.888429,242.839876 452.029054,241.550815 C453.318116,239.40238 454.822021,236.609414 456.540769,233.171917 C458.402747,229.304733 458.402747,226.869841 456.540769,225.867236 C455.681395,225.580779 454.750407,225.437549 453.747803,225.437549 C451.885824,225.437549 449.952232,226.153693 447.947027,227.585985 C445.655362,229.304733 444.437917,231.453168 444.294687,234.031291 C444.294687,234.890665 444.437917,235.893269 444.724374,237.039101 C445.726978,240.476597 448.018641,242.983106 451.599367,244.558625 C455.036864,246.134143 457.1853,247.208361 458.044674,247.781278 C458.331131,248.210965 456.612382,250.789087 452.888429,255.515645 C449.307702,259.955747 447.66057,263.966157 447.947027,267.546884 C448.090257,268.835945 448.519944,269.910163 449.236088,270.769537 C450.238693,271.772141 451.670981,272.488286 453.532959,272.917973 C453.819416,273.061203 454.392333,273.132816 455.251708,273.132816 C457.97306,273.132816 461.410557,271.700525 465.564198,268.835945 C470.577213,265.541679 475.518614,261.746108 480.388402,257.449237 C483.252982,254.727885 486.045948,252.006535 488.767301,249.285183 C491.345423,246.70706 493.207402,244.773468 494.353233,243.484407 C493.493859,243.341177 492.920941,243.269563 492.634484,243.269563 C491.63188,244.558625 489.769905,246.492217 487.048552,249.070339 C484.040743,251.934919 480.889703,254.799501 477.595436,257.664081 C473.298565,261.244808 469.144925,264.467461 465.134511,267.33204 C461.267327,270.19662 458.760818,271.342454 457.614987,270.769537 C456.325925,270.48308 456.970456,266.973967 459.548579,260.242203 C461.983471,253.51044 462.484775,249.428413 461.052483,247.996121 C460.049879,246.993517 458.187904,245.847686 455.466551,244.558625 Z M454.822021,233.816447 C453.676189,236.39457 452.530355,238.543005 451.384524,240.261754 C450.811607,238.972693 450.381919,237.540401 450.095463,235.964883 C449.809006,234.102904 450.381919,232.169312 451.814211,230.164107 C453.103272,227.872442 454.463947,227.084684 455.896238,227.800828 C456.898843,228.230515 456.540769,230.235721 454.822021,233.816447 Z M538.783187,241.335972 C539.499331,240.763054 539.499331,239.259149 538.783187,236.824257 C537.780583,234.532591 535.703764,233.315147 532.552724,233.171917 L532.123037,233.171917 C526.823562,233.171917 522.884765,236.179726 520.306642,242.195346 C518.587894,245.489612 517.87175,248.497422 518.158207,251.218775 C518.158207,253.51044 518.587894,255.658876 519.447268,257.664081 C520.163412,258.666685 521.022786,259.597673 522.025391,260.457047 C522.884765,261.316421 524.102213,261.889338 525.677731,262.175795 C528.112623,262.891939 531.04882,260.671891 534.486316,255.515645 C537.923813,250.072943 539.785791,247.065134 540.072248,246.492217 C540.072248,247.065134 539.929018,249.57164 539.642561,254.011741 C539.499331,258.308612 540.143862,262.175795 541.576153,265.613292 C542.14907,266.759123 542.865215,267.690114 543.724589,268.406258 C544.583963,269.122402 545.658181,269.695319 546.947242,270.125007 L547.376929,270.125007 C549.238907,270.125007 551.602186,268.764332 554.466766,266.042979 C557.761033,262.891939 560.912072,259.454443 563.919882,255.730489 C566.354774,252.722679 568.431596,249.929713 570.150345,247.351591 C572.012323,244.916698 573.014924,243.55602 573.158154,243.269563 C573.014924,242.983106 572.800081,242.839876 572.513624,242.839876 C572.227167,242.839876 571.940707,242.983106 571.65425,243.269563 C571.367793,243.55602 570.007115,245.274769 567.572222,248.425809 C565.13733,251.863305 562.487591,255.229189 559.623011,258.523455 C557.331345,261.388035 555.111297,263.751314 552.962861,265.613292 C550.957656,267.618497 549.382134,268.549488 548.236303,268.406258 C546.517555,267.976571 546.159481,264.109387 547.162085,256.804707 C548.02146,249.643256 548.952447,242.625033 549.955051,235.750039 C549.382134,234.460978 548.66599,233.959678 547.806616,234.246135 C546.660785,234.675822 545.873024,235.033895 545.443337,235.320352 C543.438132,238.184932 540.287092,243.269563 535.990221,250.574244 C531.69335,258.022155 528.685541,261.244808 526.966792,260.242203 C525.534501,259.526059 525.534501,254.942728 526.966792,246.492217 C528.255853,238.328162 530.332675,234.246135 533.197255,234.246135 C535.059233,234.389365 536.419908,235.248739 537.279282,236.824257 C538.138657,238.543005 538.281887,239.40238 537.708969,239.40238 C537.136052,239.688837 536.992825,240.19014 537.279282,240.906284 C537.565739,241.479202 538.067043,241.622428 538.783187,241.335972 Z M647.881057,242.839876 C647.881057,242.696646 647.737827,242.625033 647.45137,242.625033 L646.806839,242.410189 C646.663609,242.410189 644.801634,243.269563 641.220907,244.988312 C637.64018,246.420603 633.772996,248.282578 629.619356,250.574244 C629.619356,247.709664 628.759981,245.346385 627.041233,243.484407 C626.325089,242.768263 625.394098,242.195346 624.248267,241.765659 C622.959206,241.479202 621.526914,241.407585 619.951396,241.550815 C617.516504,241.980502 613.720933,245.632842 608.564688,252.507836 C607.418857,253.940127 606.273023,255.444032 605.127191,257.01955 L605.127191,249.285183 C605.127191,245.417999 604.983961,241.980502 604.697504,238.972693 C604.267817,236.25134 603.766517,234.031291 603.1936,232.312543 C602.477456,231.739625 601.832925,231.453168 601.260008,231.453168 L601.045164,231.453168 C600.472247,231.453168 600.114177,231.739625 599.970946,232.312543 C599.684489,232.88546 599.469646,236.25134 599.326416,242.410189 C599.039959,248.712265 598.467042,256.160176 597.607667,264.753918 L597.392824,268.621102 L592.666266,276.785156 C586.36419,287.670564 581.136328,298.484355 576.982687,309.226532 C574.547795,315.098921 573.330347,319.610635 573.330347,322.761675 C573.330347,325.339798 574.118108,327.130159 575.693626,328.132764 C578.271748,329.565055 580.563414,330.281199 582.568619,330.281199 C586.149346,330.281199 589.157156,328.419221 591.592048,324.695267 C595.602462,318.536418 598.753499,310.300749 601.045164,299.988259 C602.907143,291.680974 604.124587,282.872389 604.697504,273.562503 C604.983961,268.549488 605.127191,263.751314 605.127191,259.167986 L609.424062,253.582054 C614.437077,246.85029 617.874574,243.269563 619.736553,242.839876 C621.598531,242.696646 622.314675,246.420603 621.884988,254.011741 L621.884988,255.085958 C620.02301,256.37502 618.304261,257.664081 616.728743,258.953142 C613.148016,261.674495 613.219633,263.6797 616.943586,264.968761 C622.529519,266.83074 626.325089,264.539074 628.330294,258.093768 C629.189669,255.658876 629.619356,253.51044 629.619356,251.648462 C630.3355,251.218775 631.051647,250.860701 631.767791,250.574244 C635.921432,248.425809 639.645389,246.635447 642.939655,245.203155 C646.233922,243.914094 647.881057,243.126333 647.881057,242.839876 Z M593.955327,276.785156 C595.101158,274.923178 596.175376,273.132816 597.17798,271.414068 C596.891523,273.84896 596.605063,276.355469 596.318606,278.933592 C595.745689,283.80338 595.101158,288.673165 594.385014,293.542953 C592.666266,304.28513 590.302987,313.380173 587.295177,320.828083 C584.573825,328.132764 581.136328,330.281199 576.982687,327.27339 C573.68842,324.838497 574.189721,318.536418 578.486592,308.367158 C582.497006,297.911437 587.653251,287.384104 593.955327,276.785156 Z M618.877178,258.093768 C619.736553,257.377624 620.66754,256.733093 621.670144,256.160176 C621.097227,262.462252 619.593322,265.040375 617.15843,263.894544 C614.580307,262.605482 615.153225,260.671891 618.877178,258.093768 Z M681.783682,243.699251 C681.640452,242.266959 681.568839,240.834671 681.568839,239.40238 C683.287587,237.397174 685.436022,234.819052 688.014145,231.668012 C693.743307,225.079476 698.971166,218.061255 703.697724,210.613345 C707.421677,204.597725 709.9998,199.011793 711.432091,193.855548 C713.15084,188.556073 712.219852,185.118576 708.639125,183.543058 C705.344859,181.681079 702.193819,180.750092 699.186009,180.750092 L698.971166,180.750092 C695.963356,180.893322 693.242003,181.681079 690.807111,183.113371 C687.226384,185.261806 684.218574,188.62769 681.783682,193.211017 C679.34879,197.651118 677.415198,202.878977 675.982906,208.894596 C674.120928,216.485734 673.18994,224.649788 673.18994,233.38676 C673.18994,237.110714 673.404784,240.834671 673.834471,244.558625 C674.837075,257.449237 677.844885,267.976571 682.8579,276.140626 C683.144357,276.283856 683.430817,276.355469 683.717274,276.355469 C684.146961,276.355469 684.576648,276.283856 685.006335,276.140626 C685.722479,275.854169 686.152166,275.281252 686.295397,274.421877 C687.011541,271.700525 688.300602,266.54428 690.16258,258.953142 C691.881329,251.075544 693.31362,247.065134 694.459451,246.921904 C695.032368,246.921904 695.390439,248.855496 695.533669,252.722679 C695.676899,256.446633 696.82273,259.955747 698.971166,263.250013 C699.68731,264.825531 700.689914,266.186209 701.978975,267.33204 C703.124806,268.334645 704.628711,268.979175 706.49069,269.265632 C709.784956,269.981776 714.296671,266.114593 720.025833,257.664081 C726.041452,249.356796 729.335719,244.701855 729.908636,243.699251 C729.765406,243.126333 729.550562,242.839876 729.264106,242.839876 C729.120875,242.696646 728.834418,242.839876 728.404731,243.269563 C728.118274,244.128938 725.038848,248.569039 719.166459,256.589863 C713.437297,264.467461 709.713343,268.191415 707.994595,267.761728 C706.99199,267.475271 706.204233,264.753918 705.631316,259.597673 C705.058398,254.441428 703.769337,250.287787 701.764132,247.136747 C701.191215,245.990916 700.33184,245.131542 699.186009,244.558625 C698.183405,243.985707 697.180804,243.842481 696.1782,244.128938 C693.31362,244.415395 690.950341,248.497422 689.088363,256.37502 C687.369614,264.109387 686.36701,268.692715 686.080553,270.125007 C683.932118,264.109387 682.499826,255.300802 681.783682,243.699251 Z M685.221179,233.171917 C683.788887,234.747435 682.499826,236.179726 681.353995,237.468788 C681.210765,228.015672 681.926912,219.135473 683.50243,210.828188 C684.505035,205.242256 685.794096,200.229241 687.369614,195.78914 C689.088363,191.349039 691.236798,187.983159 693.814921,185.691493 C695.820126,183.972745 697.968561,183.041757 700.260227,182.898527 C702.695119,182.755297 705.416472,183.399828 708.424282,184.832119 C712.148235,186.694098 712.434696,190.919352 709.283656,197.507888 C706.275846,203.953195 702.337049,210.613345 697.467261,217.488338 C693.17039,223.2175 689.088363,228.445359 685.221179,233.171917 Z M758.869866,237.253944 C755.145913,243.412794 753.212321,249.71487 753.069091,256.160176 C752.92586,256.303406 752.854247,256.446633 752.854247,256.589863 C752.854247,262.319026 755.647213,265.613292 761.233145,266.472666 L761.877676,266.472666 C763.453194,266.472666 765.315173,265.899749 767.463608,264.753918 C769.898501,263.1784 772.476623,261.459651 775.197976,259.597673 C779.06516,256.446633 782.645886,253.152366 785.940153,249.71487 C789.091193,246.277373 791.096398,243.985707 791.955772,242.839876 L791.096398,242.839876 C790.666711,242.696646 790.237024,242.839876 789.807337,243.269563 C788.804732,244.701855 784.722705,248.855496 777.561255,255.730489 C770.543031,262.462252 765.60163,265.255218 762.73705,264.109387 C761.161532,263.393243 760.875072,259.096372 761.877676,251.218775 C763.023507,243.627637 763.524811,239.187536 763.381581,237.898475 C762.808664,237.182331 762.092519,236.752644 761.233145,236.609414 C760.946688,236.322957 760.731845,236.179726 760.588615,236.179726 C760.015697,236.179726 759.442784,236.5378 758.869866,237.253944 Z M764.240955,228.445359 C764.527412,228.588589 764.813872,228.660202 765.100329,228.660202 C766.24616,228.660202 766.890691,228.015672 767.033921,226.72661 C767.177151,226.010466 767.248765,225.437549 767.248765,225.007862 C767.248765,224.291718 767.105534,223.862031 766.819077,223.718801 L766.38939,223.718801 C766.102933,223.718801 765.315173,224.363331 764.026111,225.652393 C763.166737,226.368537 762.73705,226.941454 762.73705,227.371141 C762.73705,227.944058 763.238351,228.302129 764.240955,228.445359 Z M832.948222,234.246135 C832.088848,234.102904 831.086244,234.031291 829.940412,234.031291 L828.006821,234.031291 C826.288072,234.317748 824.712554,234.890665 823.280263,235.750039 C817.83756,238.614619 814.829751,243.770864 814.256834,251.218775 L814.256834,252.937523 C814.256834,259.526059 817.622717,263.608087 824.35448,265.183605 C825.070624,265.470062 825.858385,265.613292 826.717759,265.613292 C830.441713,265.613292 835.383114,263.751314 841.541964,260.02736 C848.989875,255.300802 856.724242,250.717474 864.745067,246.277373 C870.330999,243.269563 875.773701,240.834671 881.073176,238.972693 C886.229421,237.110714 890.884366,236.681027 895.038007,237.683631 C894.178632,237.970088 893.748945,238.614619 893.748945,239.617223 C894.035402,240.333367 894.536706,240.763054 895.25285,240.906284 C896.398681,240.906284 897.329672,240.404984 898.045816,239.40238 C898.189046,238.972693 898.26066,238.686236 898.26066,238.543005 C898.26066,237.683631 897.616129,237.110714 896.327068,236.824257 C891.886967,235.535196 886.945565,235.678426 881.502863,237.253944 C876.203388,238.972693 870.832299,241.335972 865.389597,244.343781 C857.225543,248.640652 849.562788,253.080753 842.401338,257.664081 C835.239888,262.390639 830.155256,264.395844 827.147446,263.6797 C823.137032,262.533869 822.062815,257.377624 823.924793,248.210965 C826.073229,238.901079 829.152652,234.604208 833.163066,235.320352 C835.884418,235.893269 837.316706,236.967487 837.459937,238.543005 C837.603167,240.118524 837.53155,241.192741 837.245093,241.765659 C836.958636,241.622428 836.528949,241.550815 835.956032,241.550815 C835.383114,241.407585 835.025044,241.694045 834.881814,242.410189 C834.738584,243.126333 834.953427,243.699251 835.526345,244.128938 C835.812802,244.415395 836.385719,244.415395 837.245093,244.128938 C838.104467,243.699251 838.748998,242.195346 839.178685,239.617223 C839.465142,237.039101 837.388323,235.248739 832.948222,234.246135 Z" id="Geographic"></path>
            </g>
        </g>
    </g>
</svg>